<?xml version="1.0" encoding="UTF-8" standalone="no"?>
<!-- Created with Inkscape (http://www.inkscape.org/) -->

<svg
   version="1.1"
   id="svg1"
   width="2799.8926"
   height="1582.1157"
   viewBox="0 0 2799.8926 1582.1157"
   sodipodi:docname="vae.svg"
   inkscape:version="1.3.2 (091e20e, 2023-11-25)"
   xmlns:inkscape="http://www.inkscape.org/namespaces/inkscape"
   xmlns:sodipodi="http://sodipodi.sourceforge.net/DTD/sodipodi-0.dtd"
   xmlns="http://www.w3.org/2000/svg"
   xmlns:svg="http://www.w3.org/2000/svg">
  <defs
     id="defs1" />
  <sodipodi:namedview
     id="namedview1"
     pagecolor="#ffffff"
     bordercolor="#000000"
     borderopacity="0.25"
     inkscape:showpageshadow="2"
     inkscape:pageopacity="0.0"
     inkscape:pagecheckerboard="0"
     inkscape:deskcolor="#d1d1d1"
     inkscape:zoom="0.14916734"
     inkscape:cx="1401.111"
     inkscape:cy="787.70593"
     inkscape:window-width="1728"
     inkscape:window-height="1056"
     inkscape:window-x="0"
     inkscape:window-y="33"
     inkscape:window-maximized="1"
     inkscape:current-layer="g1">
    <inkscape:page
       x="0"
       y="0"
       inkscape:label="1"
       id="page1"
       width="2799.8926"
       height="1582.1157"
       margin="0"
       bleed="0" />
  </sodipodi:namedview>
  <g
     id="g1"
     inkscape:groupmode="layer"
     inkscape:label="1">
    <path
       id="path1"
       d="M 1.5,132.152 H 135.832 V 266.484 H 1.5 Z"
       style="fill:#18974c;fill-opacity:1;fill-rule:nonzero;stroke:#000000;stroke-width:3;stroke-linecap:butt;stroke-linejoin:bevel;stroke-miterlimit:4;stroke-dasharray:none;stroke-opacity:1"
       transform="scale(1.3333333)" />
    <path
       id="path2"
       d="M 1.5,266.484 H 135.832 V 400.816 H 1.5 Z"
       style="fill:#18974c;fill-opacity:1;fill-rule:nonzero;stroke:#000000;stroke-width:3;stroke-linecap:butt;stroke-linejoin:bevel;stroke-miterlimit:4;stroke-dasharray:none;stroke-opacity:1"
       transform="scale(1.3333333)" />
    <path
       id="path3"
       d="M 1.5,400.816 H 135.832 V 535.144 H 1.5 Z"
       style="fill:#18974c;fill-opacity:1;fill-rule:nonzero;stroke:#000000;stroke-width:3;stroke-linecap:butt;stroke-linejoin:bevel;stroke-miterlimit:4;stroke-dasharray:none;stroke-opacity:1"
       transform="scale(1.3333333)" />
    <path
       id="path4"
       d="M 1.5,535.145 H 135.832 V 669.477 H 1.5 Z"
       style="fill:#18974c;fill-opacity:1;fill-rule:nonzero;stroke:#000000;stroke-width:3;stroke-linecap:butt;stroke-linejoin:bevel;stroke-miterlimit:4;stroke-dasharray:none;stroke-opacity:1"
       transform="scale(1.3333333)" />
    <path
       id="path5"
       d="M 1.5,669.477 H 135.832 V 803.805 H 1.5 Z"
       style="fill:#18974c;fill-opacity:1;fill-rule:nonzero;stroke:#000000;stroke-width:3;stroke-linecap:butt;stroke-linejoin:bevel;stroke-miterlimit:4;stroke-dasharray:none;stroke-opacity:1"
       transform="scale(1.3333333)" />
    <path
       id="path6"
       d="M 1.5,803.805 H 135.832 V 938.137 H 1.5 Z"
       style="fill:#18974c;fill-opacity:1;fill-rule:nonzero;stroke:#000000;stroke-width:3;stroke-linecap:butt;stroke-linejoin:bevel;stroke-miterlimit:4;stroke-dasharray:none;stroke-opacity:1"
       transform="scale(1.3333333)" />
    <path
       id="path7"
       d="m 1.5,938.137 h 134.332 v 134.332 H 1.5 Z"
       style="fill:#18974c;fill-opacity:1;fill-rule:nonzero;stroke:#000000;stroke-width:3;stroke-linecap:butt;stroke-linejoin:bevel;stroke-miterlimit:4;stroke-dasharray:none;stroke-opacity:1"
       transform="scale(1.3333333)" />
    <path
       id="path8"
       d="M 672.707,467.98 H 807.039 V 602.312 H 672.707 Z"
       style="fill:#a1be1f;fill-opacity:1;fill-rule:nonzero;stroke:#000000;stroke-width:3;stroke-linecap:butt;stroke-linejoin:bevel;stroke-miterlimit:4;stroke-dasharray:none;stroke-opacity:1"
       transform="scale(1.3333333)" />
    <path
       id="path9"
       d="M 672.707,602.312 H 807.039 V 736.64 H 672.707 Z"
       style="fill:#a1be1f;fill-opacity:1;fill-rule:nonzero;stroke:#000000;stroke-width:3;stroke-linecap:butt;stroke-linejoin:bevel;stroke-miterlimit:4;stroke-dasharray:none;stroke-opacity:1"
       transform="scale(1.3333333)" />
    <g
       id="g9"
       aria-label="μ&#10;x&#10;σ&#10;x"
       transform="matrix(1.3333333,0,0,1.3333333,953.79481,724.33982)">
      <path
         id="path10"
         d="m 21.361897,-6.1874832 c -1.007813,2.15625 -1.875,3.3515625 -2.355469,3.3515625 -0.234375,0 -0.386719,-0.1875 -0.386719,-0.4335937 0,-0.1875 0.04687,-0.46875 0.292969,-1.2890625 l 4.3125,-16.7578121 h -5.460937 l -2.402344,9.222656 c -0.960938,2.5898436 -1.488281,3.6445311 -2.835938,5.7070311 -1.394531,2.109375 -2.015625,2.7421875 -2.8359372,2.7421875 -0.4804687,0 -0.7148437,-0.2929688 -0.7148437,-0.9140625 0,-0.3398438 0,-0.3398438 0.2929687,-1.2539063 L 13.240803,-21.316389 H 7.7798656 L 4.6040843,-9.1171707 c -0.4804687,1.7695313 -0.9609375,3.5976563 -1.3945312,5.3789063 -0.4804688,1.7226562 -0.8085938,2.87109371 -1.0546875,3.44531246 -0.09375,0.24609375 -0.4335938,0.9609375 -0.9140625,2.01562504 -1.00781254,2.1210937 -1.38281254,3.4570312 -1.38281254,4.7578125 0,1.5820312 1.0546875,2.6835937 2.54296874,2.6835937 1.4882813,0 2.6835938,-1.1015625 2.6835938,-2.4960937 0,-0.4804688 -0.046875,-1.1015625 -0.1875,-1.7226563 C 4.6040843,3.3632981 4.5103343,2.3554856 4.5103343,0.86720431 c 0,-0.57421875 0,-0.9609375 0.09375,-1.78125 0.5742188,0.9609375 1.0546875,1.30078125 1.921875,1.30078125 2.015625,0 3.5976567,-1.34765625 7.1953127,-6.19921876 -0.1875,0.7734375 -0.328125,1.3476563 -0.480469,1.734375 -0.28125,0.9609375 -0.421875,1.8164063 -0.421875,2.4023438 0,1.19531246 1.054688,2.06249996 2.542969,2.06249996 2.683594,0 5.085937,-2.16796876 6.960937,-6.19921876 z m 0,0"
         style="fill:#000000;fill-opacity:1;fill-rule:nonzero;stroke:none" />
      <path
         id="path11"
         d="m 45.883381,3.6943528 c -1.863281,2.4023437 -2.34375,2.8359375 -3.210937,2.8359375 -0.914063,0 -1.394532,-0.6679688 -1.78125,-2.5429688 l -1.535157,-7.4882812 c 0.152344,-0.1992188 0.199219,-0.2929688 0.433594,-0.6210938 1.6875,-2.7890625 2.882813,-3.9375 3.984375,-3.9375 0.292969,0 0.621094,0.140625 1.207031,0.4335938 0.667969,0.421875 1.007813,0.5273437 1.535157,0.5273437 1.441406,0 2.683593,-1.1601562 2.683593,-2.5429687 0,-1.5468753 -1.300781,-2.9296873 -2.789062,-2.9296873 -2.25,0 -3.738281,1.289062 -7.582031,6.6210935 -0.855469,-4.1718745 -1.242188,-5.3320315 -2.15625,-6.6210935 l -8.015625,1.148437 v 1.300782 c 0.867187,-0.105469 1.195312,-0.105469 1.675781,-0.105469 1.535156,0 2.214844,0.8671873 2.695312,3.222656 l 1.441407,7.39453125 -2.121094,3.35156255 c -0.960938,1.5820312 -1.441406,1.96875 -2.296875,1.96875 -0.292969,0 -0.527344,-0.09375 -1.007813,-0.3867188 C 28.2701,4.901384 27.742756,4.7021653 27.121662,4.7021653 c -1.488281,0 -2.636718,1.1601562 -2.636718,2.6953125 0,1.6757812 1.242187,2.8242192 3.070312,2.8242192 2.402344,0 3.457031,-0.960938 6.28125,-5.5664067 l 1.160156,-1.875 c 1.054688,5.5195312 2.25,7.4414067 4.652344,7.4414067 2.308594,0 4.324219,-1.6289067 7.242188,-5.8476567 z m 0,0"
         style="fill:#000000;fill-opacity:1;fill-rule:nonzero;stroke:none" />
      <path
         id="path12"
         d="M 27.285725,113.22951 H 16.774006 c -5.179687,0 -7.4414061,0.63281 -10.1249998,2.69531 -3.4101563,2.6836 -5.66015626,7.19531 -5.66015626,11.42578 0,4.69922 3.16406246,7.76953 7.91015626,7.76953 7.0664058,0 13.2070308,-5.47265 13.2070308,-11.7539 0,-1.78125 -0.621093,-3.41016 -1.628906,-4.41797 -0.632812,-0.57422 -1.253906,-0.86719 -2.496094,-1.30078 h 8.25 z m -11.472656,4.41797 c 0.574218,1.10156 0.726562,1.73437 0.726562,2.92969 0,2.54296 -0.960937,6.52734 -2.214844,9.21093 -1.195312,2.60157 -2.542968,3.75 -4.4179683,3.75 -2.0625,0 -3.3515625,-1.4414 -3.3515625,-3.79687 0,-3.83203 1.5820312,-9.02344 3.2578125,-10.60547 1.2070313,-1.10156 2.4023433,-1.48828 4.8515623,-1.48828 z m 0,0"
         style="fill:#000000;fill-opacity:1;fill-rule:nonzero;stroke:none" />
      <path
         id="path13"
         d="m 44.755452,138.24025 c -1.863282,2.40234 -2.34375,2.83594 -3.210938,2.83594 -0.914062,0 -1.394531,-0.66797 -1.78125,-2.54297 l -1.535156,-7.48828 c 0.152344,-0.19922 0.199219,-0.29297 0.433594,-0.6211 1.6875,-2.78906 2.882812,-3.9375 3.984375,-3.9375 0.292968,0 0.621093,0.14063 1.207031,0.4336 0.667969,0.42187 1.007812,0.52734 1.535156,0.52734 1.441406,0 2.683594,-1.16015 2.683594,-2.54297 0,-1.54687 -1.300781,-2.92968 -2.789063,-2.92968 -2.25,0 -3.738281,1.28906 -7.582031,6.62109 -0.855469,-4.17188 -1.242187,-5.33203 -2.15625,-6.62109 l -8.015625,1.14843 v 1.30078 c 0.867188,-0.10546 1.195313,-0.10546 1.675781,-0.10546 1.535157,0 2.214844,0.86718 2.695313,3.22265 l 1.441406,7.39453 -2.121094,3.35157 c -0.960937,1.58203 -1.441406,1.96875 -2.296875,1.96875 -0.292968,0 -0.527343,-0.0937 -1.007812,-0.38672 -0.773438,-0.42188 -1.300781,-0.6211 -1.921875,-0.6211 -1.488281,0 -2.636719,1.16016 -2.636719,2.69532 0,1.67578 1.242188,2.82421 3.070313,2.82421 2.402343,0 3.457031,-0.96093 6.28125,-5.5664 l 1.160156,-1.875 c 1.054687,5.51953 2.25,7.4414 4.652344,7.4414 2.308593,0 4.324218,-1.6289 7.242187,-5.84765 z m 0,0"
         style="fill:#000000;fill-opacity:1;fill-rule:nonzero;stroke:none" />
    </g>
    <path
       id="path14"
       d="M 176.328,294.797 631.84,420.574 632.211,783.48 176.402,909.824 Z"
       style="fill:#6d9eeb;fill-opacity:1;fill-rule:nonzero;stroke:#000000;stroke-width:0.75;stroke-linecap:butt;stroke-linejoin:miter;stroke-miterlimit:4;stroke-dasharray:none;stroke-opacity:1"
       transform="scale(1.3333333)" />
    <path
       id="path15"
       d="M 27.772003,-5.295e-4 H 5.4360658 V -39.984905 H 27.772003 v 4.417969 H 10.475128 v 12.492188 h 16.289063 v 4.371093 H 10.475128 V -4.430217 H 27.772003 Z M 50.342316,-30.574748 c 3.585937,0 6.292969,0.867187 8.121094,2.601562 1.828125,1.734375 2.742187,4.543946 2.742187,8.425781 V -5.295e-4 H 56.342316 V -19.207561 c 0,-4.819336 -2.244141,-7.230469 -6.726563,-7.230469 -3.322265,0 -5.61914,0.934571 -6.890625,2.800782 -1.265625,1.86914 -1.898437,4.555664 -1.898437,8.0625 V -5.295e-4 H 35.893097 V -30.023967 h 3.984375 l 0.726563,4.089844 h 0.28125 c 0.966796,-1.561524 2.308593,-2.72461 4.019531,-3.492188 1.716797,-0.764648 3.530273,-1.148437 5.4375,-1.148437 z M 82.548371,0.5619705 c -2.657227,0 -5.021485,-0.5390625 -7.089844,-1.6171875 -2.071289,-1.0839844 -3.697266,-2.765625 -4.875,-5.0390625 -1.171875,-2.2792969 -1.757813,-5.1943355 -1.757813,-8.7421875 0,-3.703125 0.612305,-6.708984 1.839844,-9.023438 1.233398,-2.311523 2.90625,-4.007812 5.015625,-5.085937 2.109375,-1.083984 4.505859,-1.628906 7.195313,-1.628906 1.529296,0 3.005859,0.161133 4.429687,0.480468 1.420898,0.313477 2.578125,0.691407 3.46875,1.136719 l -1.511719,4.089844 c -0.899414,-0.333984 -1.945312,-0.650391 -3.140625,-0.949219 -1.189453,-0.295898 -2.305664,-0.445312 -3.351562,-0.445312 -5.900391,0 -8.847656,3.791015 -8.847656,11.367187 0,3.618164 0.717773,6.3925784 2.15625,8.3203128 1.435546,1.921875 3.574218,2.8828125 6.410156,2.8828125 1.640625,0 3.084961,-0.1669922 4.335937,-0.5039063 1.248047,-0.3339844 2.396485,-0.75 3.445313,-1.2421875 v 4.3710938 c -1.007813,0.52441401 -2.118164,0.9257812 -3.328125,1.2070312 -1.212891,0.28125 -2.677735,0.421875 -4.394531,0.421875 z M 123.47903,-15.070842 c 0,4.96875 -1.26269,8.8183594 -3.78515,11.5429688 -2.5166,2.72753901 -5.92383,4.0898437 -10.21875,4.0898437 -2.64844,0 -5.00977,-0.60351562 -7.07813,-1.8164062 -2.07129,-1.21875 -3.703122,-2.991211 -4.898434,-5.3203125 -1.195313,-2.334961 -1.792969,-5.1679688 -1.792969,-8.4960938 0,-4.959961 1.248047,-8.783203 3.75,-11.472656 2.499023,-2.686524 5.897463,-4.03125 10.195313,-4.03125 2.72461,0 5.12402,0.606445 7.19531,1.816406 2.06836,1.212891 3.69141,2.964844 4.86328,5.261719 1.17774,2.296875 1.76953,5.106445 1.76953,8.425781 z m -22.67578,0 c 0,3.547852 0.69727,6.3603516 2.09766,8.4375 1.39746,2.0712891 3.62695,3.1054688 6.69141,3.1054688 3.02343,0 5.24121,-1.0341797 6.65625,-3.1054688 1.42089,-2.0771484 2.13281,-4.889648 2.13281,-8.4375 0,-3.544922 -0.71192,-6.328125 -2.13281,-8.34375 -1.41504,-2.015625 -3.65332,-3.023438 -6.71485,-3.023438 -3.06445,0 -5.28515,1.007813 -6.66797,3.023438 -1.37695,2.015625 -2.0625,4.798828 -2.0625,8.34375 z m 41.10059,15.6328125 c -3.73535,0 -6.72363,-1.29492187 -8.96484,-3.890625 -2.23536,-2.5927734 -3.35157,-6.46875 -3.35157,-11.6250005 0,-5.14746 1.12793,-9.038085 3.38672,-11.671875 2.25586,-2.630859 5.25293,-3.949218 8.98828,-3.949218 2.31153,0 4.20703,0.430664 5.6836,1.289062 1.47656,0.852539 2.67773,1.895508 3.60937,3.128906 h 0.33985 c -0.041,-0.483398 -0.10547,-1.201171 -0.19922,-2.15625 -0.0937,-0.952148 -0.14063,-1.705078 -0.14063,-2.261718 V -42.56303 h 4.9336 V -5.295e-4 h -3.97266 l -0.73828,-4.03125 h -0.22266 c -0.89062,1.265625 -2.08594,2.3496094 -3.58594,3.24609375 -1.49414,0.89648438 -3.41601,1.34765625 -5.76562,1.34765625 z m 0.78516,-4.0898437 c 3.16992,0 5.40234,-0.8671875 6.6914,-2.6015625 1.28906,-1.7402344 1.9336,-4.3652343 1.9336,-7.8750003 v -0.890625 c 0,-3.732422 -0.61817,-6.597656 -1.85157,-8.589844 -1.22754,-1.998046 -3.5039,-3 -6.83203,-3 -2.64844,0 -4.63769,1.054688 -5.96484,3.164063 -1.32129,2.109375 -1.98047,4.939453 -1.98047,8.484375 0,3.580078 0.65918,6.3603516 1.98047,8.34375 1.32715,1.9775391 3.33398,2.9648438 6.02344,2.9648438 z m 34.60253,-27.0468748 c 2.57813,0 4.78711,0.55957 6.63282,1.675781 1.85156,1.119141 3.27246,2.695312 4.26562,4.734375 0.99024,2.033203 1.48828,4.412109 1.48828,7.136719 v 2.964843 h -20.55468 c 0.0703,3.398438 0.9375,5.9853521 2.60156,7.757813 1.66406,1.7753906 3.9873,2.6601563 6.97265,2.6601563 1.9043,0 3.5918,-0.1757813 5.0625,-0.5273438 1.47657,-0.3515625 3,-0.8613281 4.57032,-1.5351562 v 4.3125 c -1.53223,0.67382808 -3.04395,1.16601558 -4.53516,1.47656245 -1.49414,0.31933594 -3.2666,0.48046875 -5.32031,0.48046875 -2.83594,0 -5.34961,-0.57714844 -7.53516,-1.734375 -2.18847,-1.1630859 -3.88769,-2.8886719 -5.09765,-5.1796875 -1.21289,-2.296875 -1.81641,-5.109375 -1.81641,-8.4375 0,-3.28125 0.55078,-6.09668 1.65234,-8.449219 1.10157,-2.349609 2.64844,-4.160156 4.64063,-5.425781 1.99805,-1.271484 4.32422,-1.910156 6.97265,-1.910156 z m -0.0469,4.03125 c -2.35254,0 -4.21289,0.758789 -5.57813,2.273437 -1.35937,1.508789 -2.17382,3.606446 -2.4375,6.292969 h 15.293 c -0.041,-2.537109 -0.63867,-4.599609 -1.79297,-6.1875 -1.15722,-1.584961 -2.98535,-2.378906 -5.48437,-2.378906 z m 34.0459,-4.03125 c 0.5625,0 1.16601,0.0293 1.8164,0.08203 0.65625,0.05566 1.22461,0.137695 1.71094,0.246094 l -0.62109,4.535156 c -0.48633,-0.108398 -1.0166,-0.199219 -1.59375,-0.269531 -0.58008,-0.07617 -1.13086,-0.117188 -1.65235,-0.117188 -1.53222,0 -2.9707,0.421875 -4.3125,1.265625 -1.34472,0.837891 -2.41992,2.012696 -3.22265,3.527344 -0.79688,1.508789 -1.19531,3.269531 -1.19531,5.285156 V -5.295e-4 h -4.9336 V -30.023967 h 4.03125 l 0.5625,5.496094 h 0.22266 c 0.96679,-1.640625 2.21777,-3.058594 3.75,-4.253907 1.52929,-1.195312 3.34277,-1.792968 5.4375,-1.792968 z m 0,0"
       style="fill:#000000;fill-opacity:1;fill-rule:nonzero;stroke:none"
       aria-label="Encoder"
       transform="matrix(1.3333333,0,0,1.3333333,382.96676,779.03196)" />
    <g
       id="g15"
       aria-label="e&#10;θ&#10;(x)"
       transform="matrix(1.3333333,0,0,1.3333333,383.34444,870.34055)">
      <path
         id="path16"
         d="m 15.210419,-6.8208417 c -2.203125,3.3164063 -3.597656,4.3710938 -5.6601562,4.3710938 -2.015625,0 -3.0703125,-1.3476563 -3.0703125,-3.9375 0,-0.7617188 0.09375,-1.3945313 0.2929687,-2.34375 4.992188,-0.9609375 7.335938,-2.0273441 9.738281,-4.2304691 1.675782,-1.535156 2.589844,-3.316406 2.589844,-5.039062 0,-2.449219 -2.109375,-4.171875 -5.039062,-4.171875 -6.960938,0 -13.8281255,7.816406 -13.8281255,15.7382811 0,4.078125 3.0820313,7.05468746 7.2539063,7.05468746 3.6914062,0 6.2343752,-1.86328126 9.1171872,-6.62109376 z M 7.101044,-10.277873 c 1.734375,-6.667969 3.9375,-10.3125 6.246094,-10.3125 0.914062,0 1.335937,0.527344 1.335937,1.628906 0,2.109375 -0.808593,4.171875 -2.34375,5.765625 -1.300781,1.382813 -2.4960935,2.0625 -5.238281,2.917969 z m 0,0"
         style="fill:#000000;fill-opacity:1;fill-rule:nonzero;stroke:none" />
      <path
         id="path17"
         d="m 38.445771,-22.556193 c -5.085938,0 -8.824219,3.832031 -11.320313,11.566406 -1.347656,4.21875 -2.402344,9.7382813 -2.402344,12.6210938 0,5.4257812 2.296875,8.3554687 6.621094,8.3554687 4.171875,0 7.875,-2.7890625 9.9375,-7.4882812 2.203125,-4.9921875 3.9375,-12.4804688 3.9375,-16.9453123 0,-2.355469 -0.574219,-4.558594 -1.582031,-5.90625 -1.160156,-1.582031 -2.601563,-2.203125 -5.191406,-2.203125 z m 0.199218,16.0312498 c -1.394531,5.7539062 -2.261718,8.7304687 -3.269531,11.2265625 -0.914062,2.2617187 -2.25,3.5976562 -3.691406,3.5976562 -1.300781,0 -2.109375,-1.1484375 -2.109375,-3.1171875 0,-2.5898437 0.375,-4.74609375 1.957031,-11.7070312 z m -6.679687,-1.78125 c 2.402344,-9.8320308 3.796875,-12.6679688 6.339844,-12.6679688 1.300781,0 2.015625,1.101563 2.015625,3.164063 0,2.589843 -0.339844,4.757812 -1.394532,9.5039058 z m 0,0"
         style="fill:#000000;fill-opacity:1;fill-rule:nonzero;stroke:none" />
      <path
         id="path18"
         d="m 61.868622,-32.883342 c -7.289062,5.378907 -10.171875,8.496094 -12.375,13.488282 -1.300781,2.882812 -1.921875,6 -1.921875,9.4570308 0,6.5742188 1.96875,11.90625 6.808594,18.5273438 L 55.493622,7.8744708 C 52.845185,3.2104083 52.083466,0.29243956 52.083466,-5.2856854 c 0,-6.1406246 1.195312,-12.3281246 3.257812,-16.9335936 1.734375,-3.84375 3.503907,-6.152344 7.394532,-9.703125 z m 19.535156,26.9765628 c -1.863281,2.4023438 -2.34375,2.8359375 -3.210937,2.8359375 -0.914063,0 -1.394531,-0.6679687 -1.78125,-2.5429687 l -1.535156,-7.4882816 c 0.152343,-0.199218 0.199218,-0.292968 0.433593,-0.621093 1.6875,-2.789063 2.882813,-3.9375 3.984375,-3.9375 0.292969,0 0.621094,0.140625 1.207032,0.433593 0.667968,0.421875 1.007812,0.527344 1.535156,0.527344 1.441406,0 2.683594,-1.160156 2.683594,-2.542969 0,-1.546875 -1.300782,-2.929687 -2.789063,-2.929687 -2.25,0 -3.738281,1.289062 -7.582031,6.621094 -0.855469,-4.171875 -1.242188,-5.332032 -2.15625,-6.621094 l -8.015625,1.148437 v 1.300782 c 0.867187,-0.105469 1.195312,-0.105469 1.675781,-0.105469 1.535156,0 2.214844,0.867187 2.695313,3.222656 l 1.441406,7.3945313 -2.121094,3.3515625 c -0.960937,1.5820313 -1.441406,1.96875 -2.296875,1.96875 -0.292969,0 -0.527344,-0.09375 -1.007812,-0.3867187 -0.773438,-0.421875 -1.300782,-0.6210938 -1.921875,-0.6210938 -1.488282,0 -2.636719,1.1601563 -2.636719,2.6953125 0,1.67578126 1.242187,2.82421876 3.070312,2.82421876 2.402344,0 3.457032,-0.9609375 6.28125,-5.56640626 l 1.160157,-1.875 c 1.054687,5.5195313 2.25,7.44140626 4.652343,7.44140626 2.308594,0 4.324219,-1.62890626 7.242188,-5.84765626 z m 3.503907,14.4960938 c 5.671875,-4.03125 8.074218,-6.3867188 10.511718,-10.171875 2.554688,-3.890625 3.796875,-8.109375 3.796875,-12.7734376 0,-3.550781 -0.773437,-7.289062 -2.25,-10.839844 -1.113281,-2.648437 -2.121093,-4.277343 -4.617187,-7.6875 l -1.101563,0.726563 c 2.589844,4.3125 3.457032,7.535156 3.457032,13.007812 0,6.375 -1.535157,13.6757816 -3.9375,18.48046906 C 89.231903,2.4018146 87.743622,4.2768146 84.099091,7.6283771 Z m 0,0"
         style="fill:#000000;fill-opacity:1;fill-rule:nonzero;stroke:none" />
    </g>
    <path
       id="path19"
       d="m 848.66,482.102 h 335.902 V 722.52 H 848.66 Z"
       style="fill:#d8d8d8;fill-opacity:1;fill-rule:nonzero;stroke:#000000;stroke-width:3;stroke-linecap:butt;stroke-linejoin:bevel;stroke-miterlimit:4;stroke-dasharray:none;stroke-opacity:1"
       transform="scale(1.3333333)" />
    <g
       id="g19"
       aria-label="z~𝓝 (μ&#10;x&#10;,σ&#10;x&#10;)"
       transform="matrix(1.3333333,0,0,1.3333333,1228.1492,817.74248)">
      <path
         id="path20"
         d="m 0.51506413,-11.800999 1.12499997,0.117188 c 0.6445313,-1.757813 1.2773438,-2.390625 2.5195313,-2.4375 H 9.9603766 L -1.7232171,0.03493888 -0.71540462,0.91384513 -0.28181087,0.59743888 c 0.3984375,-0.28125 0.59765625,-0.43359375 0.64453125,-0.43359375 0.3984375,-0.28125 0.59765625,-0.36328125 0.96093752,-0.36328125 0.796875,0 1.5585937,0.36328125 2.953125,1.32421872 2.1210937,1.4296875 3.5976562,1.9921875 5.2382812,1.9921875 2.4374999,0 4.3242189,-1.5585937 4.3242189,-3.63281247 0,-1.12500003 -0.996094,-2.08593753 -2.121094,-2.08593753 -1.078125,0 -2.0039061,0.9609375 -2.0039061,2.08593753 0,0.43359375 0.1289062,0.796875 0.5273441,1.23046875 0.199218,0.28125 0.28125,0.44531252 0.28125,0.60937502 0,0.3515625 -0.363282,0.6328125 -0.8789066,0.6328125 -0.7265625,0 -1.2070313,-0.4804688 -1.8867188,-1.87500002 C 6.4799079,-2.3556861 5.5189704,-3.3166236 3.4799079,-4.1603736 L 14.718189,-17.554905 v -0.398437 H 2.2377204 Z M 34.074634,-12.562717 c -0.996093,1.324218 -1.757812,1.804687 -2.671875,1.804687 -0.761718,0 -1.359375,-0.199219 -3.328125,-1.078125 -3.152343,-1.359375 -4.03125,-1.640625 -5.519531,-1.640625 -2.039062,0 -3.550781,1.042969 -4.875,3.363281 l 2.15625,1.8750004 c 0.960938,-1.2773438 1.605469,-1.6757813 2.800781,-1.6757813 1.40625,0 2.636719,0.3984375 4.523438,1.3945313 1.875,0.9960937 2.882812,1.3242187 4.242187,1.3242187 1.875,0 3.070313,-0.84375 4.957032,-3.3984371 z m 0,0"
         style="fill:#000000;fill-opacity:1;fill-rule:nonzero;stroke:none" />
      <path
         id="path21"
         d="m 57.438892,2.6833764 c -0.445312,-3.12890627 -0.761718,-5.5664063 -0.925781,-7.40625 -0.152344,-1.875 -0.234375,-3.4804688 -0.234375,-4.875 0,-3.8789064 0.679688,-7.0781254 2.121094,-9.6796874 -0.08203,1.195312 -0.398438,2.273437 -0.925781,3.234375 -0.550782,0.925781 -1.03125,1.886719 -1.511719,2.847656 l -3.046875,6.1992189 c -1.441406,2.9179687 -3.152344,5.15625 -5.121094,6.67968748 -1.992187,1.51171872 -4.113281,2.27343752 -6.433594,2.27343752 -1.640625,0 -2.964843,-0.4335938 -3.960937,-1.35937502 -0.960938,-0.9140625 -1.441406,-2.07421878 -1.441406,-3.51562498 0,-1.2421875 0.445312,-2.3671875 1.359375,-3.28125 0.925781,-0.9257813 2.039062,-1.3945313 3.328125,-1.3945313 1.113281,0 2.039062,0.2695313 2.71875,0.796875 0.679687,0.5625 0.996093,1.2421875 0.996093,2.1210938 0,0.9960937 -0.316406,1.6757812 -0.996093,2.0742187 -0.644532,0.3632813 -1.488282,0.6445313 -2.519532,0.84375 -0.480468,0.082031 -0.726562,0.1992188 -0.726562,0.3164063 0,0.1171875 0.117187,0.2460937 0.316406,0.3632812 0.246094,0.16406253 0.609375,0.19921878 1.089844,0.19921878 1.558594,0 3.117187,-0.64453128 4.710937,-2.00390628 1.605469,-1.3125 3.480469,-4.2773437 5.566407,-8.8359371 1.113281,-2.285157 2.15625,-4.277344 3.152343,-5.964844 0.960938,-1.710938 1.839844,-3.035156 2.683594,-4.078125 1.757813,-2.15625 3.164063,-3.234375 4.125,-3.234375 0.398438,0 0.75,0.117187 1.160156,0.316406 0.351563,0.246094 0.515625,0.5625 0.515625,1.007813 0,0.199218 -0.03516,0.398437 -0.08203,0.632812 -0.08203,0.246094 -0.117187,0.480469 -0.164062,0.679688 -0.117188,0.644531 -0.199219,1.40625 -0.269532,2.285156 -0.128906,0.832031 -0.199218,1.640625 -0.246093,2.390625 -0.03516,0.726562 -0.08203,1.242187 -0.08203,1.570312 0,1.839844 0.04687,3.515625 0.128907,5.074219 0.07031,1.5585939 0,2.3554689 -0.210938,2.3554689 l 1.359375,-4.1953129 c 0.644531,-1.394531 1.160156,-2.636718 1.640625,-3.644531 0.527344,-0.996094 0.960938,-1.792969 1.40625,-2.320312 0.960938,-1.277344 2.074219,-1.910157 3.363281,-1.910157 0.714844,0 1.3125,0.199219 1.792969,0.550782 0.480469,0.363281 0.726563,0.890625 0.726563,1.488281 0,1.113281 -0.925782,1.875 -2.800782,2.320312 -0.679687,0.117188 -1.324218,0.679688 -1.96875,1.640625 -0.597656,0.914063 -1.230468,2.191407 -1.875,3.714844 -0.445312,1.0781251 -0.878906,2.2382814 -1.359375,3.4804689 -0.480468,1.2421875 -0.925781,2.4375 -1.324218,3.5625 l 0.398437,3.51562498 z m 0,0"
         style="fill:#000000;fill-opacity:1;fill-rule:nonzero;stroke:none" />
      <path
         id="path22"
         d="m 87.802174,-27.398655 c -6.082032,4.476563 -8.484375,7.078125 -10.324219,11.238281 -1.078125,2.402344 -1.59375,5.003907 -1.59375,7.8867191 0,5.4726563 1.628906,9.9140625 5.671875,15.4335938 L 82.481861,6.5622826 C 80.278736,2.6833764 79.634205,0.23415763 79.634205,-4.3947486 c 0,-5.1210938 1.007812,-10.2890624 2.71875,-14.1210934 1.441406,-3.199219 2.929687,-5.121094 6.164062,-8.085938 z m 0,0"
         style="fill:#000000;fill-opacity:1;fill-rule:nonzero;stroke:none" />
      <path
         id="path23"
         d="m 105.88128,-5.1564674 c -0.84375,1.7929688 -1.5586,2.8007813 -1.95704,2.8007813 -0.21093,0 -0.32812,-0.1640625 -0.32812,-0.3632813 0,-0.1640625 0.0469,-0.3984375 0.24609,-1.078125 l 3.59766,-13.9570316 h -4.55859 l -2.00391,7.675782 c -0.79688,2.1562496 -1.242189,3.0351559 -2.35547,4.7578121 -1.160156,1.7578125 -1.6875,2.2851563 -2.367187,2.2851563 -0.398438,0 -0.597657,-0.2460938 -0.597657,-0.7617188 0,-0.28125 0,-0.28125 0.246094,-1.0429687 l 3.316406,-12.9140629 h -4.558593 l -2.636719,10.1601566 c -0.398438,1.4765625 -0.808594,3 -1.160156,4.4765625 -0.398438,1.4414063 -0.679688,2.40234378 -0.878907,2.88281253 -0.08203,0.19921875 -0.363281,0.796875 -0.761718,1.67578127 -0.84375,1.7578125 -1.160157,2.8828125 -1.160157,3.9609375 0,1.3125 0.878907,2.2382812 2.121094,2.2382812 1.230469,0 2.238281,-0.9257812 2.238281,-2.0859375 0,-0.3984375 -0.04687,-0.9140625 -0.164062,-1.4296875 -0.234375,-1.3242187 -0.316406,-2.1679687 -0.316406,-3.41015622 0,-0.48046875 0,-0.796875 0.08203,-1.4765625 0.480469,0.796875 0.878906,1.078125 1.59375,1.078125 1.6875,0 3,-1.11328125 6,-5.15624998 -0.164063,0.6445312 -0.28125,1.125 -0.398438,1.4414062 -0.234375,0.796875 -0.363281,1.5234375 -0.363281,2.0039063 0,0.99609373 0.878906,1.71093748 2.121096,1.71093748 2.23828,0 4.24219,-1.79296878 5.80078,-5.15624998 z m 0,0"
         style="fill:#000000;fill-opacity:1;fill-rule:nonzero;stroke:none" />
      <path
         id="path24"
         d="m 126.31585,3.0788842 c -1.5586,2.0039062 -1.95704,2.3671875 -2.67188,2.3671875 -0.76172,0 -1.16016,-0.5625 -1.48828,-2.1210938 l -1.27734,-6.2460937 c 0.11718,-0.1523438 0.16406,-0.234375 0.36328,-0.515625 1.39453,-2.3203125 2.40234,-3.28125 3.3164,-3.28125 0.2461,0 0.51563,0.1171875 0.9961,0.3632812 0.5625,0.3515625 0.84375,0.4335938 1.28906,0.4335938 1.19531,0 2.23828,-0.9609375 2.23828,-2.1210938 0,-1.2773437 -1.07812,-2.4375004 -2.32031,-2.4375004 -1.88672,0 -3.11719,1.0781254 -6.32813,5.5195317 -0.71484,-3.4804688 -1.03125,-4.4414063 -1.79297,-5.5195317 l -6.67968,0.9609379 v 1.078125 c 0.71484,-0.082031 0.99609,-0.082031 1.39453,-0.082031 1.28906,0 1.83984,0.7265625 2.25,2.6835937 l 1.19531,6.16406254 -1.75781,2.80078126 c -0.8086,1.3125 -1.20703,1.640625 -1.92188,1.640625 -0.24609,0 -0.44531,-0.082031 -0.84375,-0.328125 -0.63281,-0.3515625 -1.07812,-0.515625 -1.59375,-0.515625 -1.24218,0 -2.20312,0.9609375 -2.20312,2.2382812 0,1.3945313 1.04297,2.3554688 2.55469,2.3554688 2.0039,0 2.88281,-0.796875 5.25,-4.640625 l 0.94921,-1.5585938 c 0.89063,4.6054688 1.88672,6.1992188 3.89063,6.1992188 1.91016,0 3.59766,-1.359375 6.03516,-4.875 z m 2.12988,4.1982422 c 4.6289,-2.0390625 7.6289,-5.4726563 7.6289,-8.71875 0,-2.3554688 -1.35937,-3.9140625 -3.39843,-3.9140625 -1.64063,0 -2.83594,1.2304687 -2.83594,2.9179687 0,1.078125 0.39844,1.72265628 1.60547,2.51953128 0.91406,0.59765625 1.19531,0.99609372 1.19531,1.55859372 0,1.4414063 -1.55859,3 -4.72266,4.6757813 z m 0,0"
         style="fill:#000000;fill-opacity:1;fill-rule:nonzero;stroke:none" />
      <path
         id="path25"
         d="m 163.31194,-17.754124 h -8.75391 c -4.32422,0 -6.19922,0.515625 -8.4375,2.238282 -2.83593,2.238281 -4.72265,5.9999996 -4.72265,9.5156246 0,3.9257813 2.63672,6.48046878 6.59765,6.48046878 5.88282,0 11.00391,-4.55859378 11.00391,-9.79687498 0,-1.4882814 -0.52734,-2.8476564 -1.35938,-3.6796874 -0.52734,-0.480469 -1.04296,-0.726563 -2.08593,-1.078125 h 6.8789 z m -9.55078,3.679688 c 0.48047,0.914062 0.59765,1.429687 0.59765,2.4375 0,2.1210936 -0.79687,5.4374999 -1.83984,7.6757811 -0.99609,2.15625 -2.12109,3.11718753 -3.67969,3.11718753 -1.72265,0 -2.80078,-1.19531253 -2.80078,-3.15234373 0,-3.1992188 1.32422,-7.5234379 2.71875,-8.8476559 0.9961,-0.914063 2.00391,-1.230469 4.04297,-1.230469 z m 0,0"
         style="fill:#000000;fill-opacity:1;fill-rule:nonzero;stroke:none" />
      <path
         id="path26"
         d="m 177.87542,3.0788842 c -1.5586,2.0039062 -1.95704,2.3671875 -2.67188,2.3671875 -0.76172,0 -1.16016,-0.5625 -1.48828,-2.1210938 l -1.27734,-6.2460937 c 0.11718,-0.1523438 0.16406,-0.234375 0.36328,-0.515625 1.39453,-2.3203125 2.40234,-3.28125 3.3164,-3.28125 0.2461,0 0.51563,0.1171875 0.9961,0.3632812 0.5625,0.3515625 0.84375,0.4335938 1.28906,0.4335938 1.19531,0 2.23828,-0.9609375 2.23828,-2.1210938 0,-1.2773437 -1.07812,-2.4375004 -2.32031,-2.4375004 -1.88672,0 -3.11719,1.0781254 -6.32813,5.5195317 -0.71484,-3.4804688 -1.03125,-4.4414063 -1.79297,-5.5195317 l -6.67968,0.9609379 v 1.078125 c 0.71484,-0.082031 0.99609,-0.082031 1.39453,-0.082031 1.28906,0 1.83984,0.7265625 2.25,2.6835937 l 1.19531,6.16406254 -1.75781,2.80078126 c -0.8086,1.3125 -1.20703,1.640625 -1.92188,1.640625 -0.24609,0 -0.44531,-0.082031 -0.84375,-0.328125 -0.63281,-0.3515625 -1.07812,-0.515625 -1.59375,-0.515625 -1.24218,0 -2.20312,0.9609375 -2.20312,2.2382812 0,1.3945313 1.04297,2.3554688 2.55469,2.3554688 2.0039,0 2.88281,-0.796875 5.25,-4.640625 l 0.94921,-1.5585938 c 0.89063,4.6054688 1.88672,6.1992188 3.89063,6.1992188 1.91016,0 3.59766,-1.359375 6.03516,-4.875 z m 2.92675,4.0810547 c 4.72266,-3.3632813 6.71485,-5.3203125 8.75391,-8.484375 2.12109,-3.234375 3.16406,-6.75 3.16406,-10.6289059 0,-2.964844 -0.64453,-6.082032 -1.875,-9.046875 -0.92578,-2.203125 -1.76953,-3.5625 -3.84375,-6.398438 l -0.92578,0.597656 c 2.16797,3.597657 2.88281,6.28125 2.88281,10.839844 0,5.320313 -1.27734,11.4023439 -3.28125,15.39843763 -1.27734,2.56640627 -2.51953,4.12499997 -5.55468,6.92578127 z m 0,0"
         style="fill:#000000;fill-opacity:1;fill-rule:nonzero;stroke:none" />
    </g>
    <path
       id="path27"
       d="m 1856.895,294.797 -455.512,125.777 -0.371,362.906 455.812,126.344 z"
       style="fill:#f4c61f;fill-opacity:1;fill-rule:nonzero;stroke:#000000;stroke-width:0.75;stroke-linecap:butt;stroke-linejoin:miter;stroke-miterlimit:4;stroke-dasharray:none;stroke-opacity:1"
       transform="scale(1.3333333)" />
    <path
       id="path28"
       d="m 37.465879,-20.391157 c 0,6.758789 -1.839843,11.847656 -5.519531,15.269531 -3.673828,3.4160156 -8.794922,5.12109375 -15.363281,5.12109375 H 5.4385356 V -39.984907 H 17.754942 c 4.03125,0 7.517578,0.74707 10.464844,2.238281 2.953125,1.494141 5.229492,3.688477 6.832031,6.585938 1.608398,2.891601 2.414062,6.480468 2.414062,10.769531 z m -5.320312,0.175781 c 0,-5.34375 -1.31836,-9.251953 -3.949219,-11.730469 -2.633789,-2.484375 -6.357422,-3.726562 -11.167969,-3.726562 h -6.550781 v 31.3593748 h 5.425781 c 10.828125,0 16.242188,-5.2998047 16.242188,-15.9023438 z m 25.081055,-10.359375 c 2.578125,0 4.787109,0.55957 6.632812,1.675781 1.851563,1.119141 3.272461,2.695313 4.265625,4.734375 0.990234,2.033203 1.488281,4.41211 1.488281,7.136719 v 2.964844 H 49.058653 c 0.07031,3.398437 0.9375,5.9853513 2.601562,7.7578123 1.664063,1.7753906 3.987305,2.6601562 6.972657,2.6601562 1.904296,0 3.591796,-0.1757812 5.0625,-0.5273437 1.476562,-0.3515625 3,-0.8613282 4.570312,-1.5351563 v 4.3125 c -1.532227,0.67382813 -3.043945,1.16601563 -4.535156,1.4765625 -1.494141,0.31933594 -3.266602,0.48046875 -5.320313,0.48046875 -2.835937,0 -5.349609,-0.57714844 -7.535156,-1.73437495 -2.188477,-1.163086 -3.887695,-2.8886719 -5.097656,-5.1796875 -1.212891,-2.296875 -1.816406,-5.1093753 -1.816406,-8.4375003 0,-3.28125 0.550781,-6.096679 1.652343,-8.449218 1.101563,-2.34961 2.648438,-4.160157 4.640625,-5.425782 1.998047,-1.271484 4.324219,-1.910156 6.972657,-1.910156 z m -0.04687,4.03125 c -2.35254,0 -4.212891,0.758789 -5.578125,2.273438 -1.359375,1.508789 -2.173829,3.606445 -2.4375,6.292968 H 64.45709 c -0.04101,-2.537109 -0.638672,-4.599609 -1.792968,-6.1875 -1.157227,-1.584961 -2.985352,-2.378906 -5.484375,-2.378906 z M 89.268614,0.56196775 c -2.657227,0 -5.021485,-0.5390625 -7.089844,-1.61718745 -2.071289,-1.0839844 -3.697266,-2.765625 -4.875,-5.0390625 -1.171875,-2.2792969 -1.757813,-5.1943358 -1.757813,-8.7421878 0,-3.703125 0.612305,-6.708984 1.839844,-9.023437 1.233399,-2.311524 2.90625,-4.007813 5.015625,-5.085938 2.109375,-1.083984 4.50586,-1.628906 7.195313,-1.628906 1.529297,0 3.005859,0.161133 4.429687,0.480469 1.420899,0.313476 2.578125,0.691406 3.46875,1.136719 l -1.511719,4.089843 c -0.899414,-0.333984 -1.945312,-0.65039 -3.140625,-0.949218 -1.189453,-0.295899 -2.305664,-0.445313 -3.351562,-0.445313 -5.900391,0 -8.847656,3.791016 -8.847656,11.367188 0,3.618164 0.717773,6.3925776 2.15625,8.320312 1.435547,1.921875 3.574218,2.8828125 6.410156,2.8828125 1.640625,0 3.084961,-0.1669922 4.335937,-0.5039062 1.248047,-0.3339844 2.396485,-0.75 3.445313,-1.2421875 v 4.3710937 c -1.007813,0.52441406 -2.118164,0.92578125 -3.328125,1.20703125 -1.212891,0.28125 -2.677734,0.421875 -4.394531,0.421875 z M 130.19928,-15.070845 c 0,4.96875 -1.2627,8.8183596 -3.78516,11.542969 -2.5166,2.72753906 -5.92383,4.08984375 -10.21875,4.08984375 -2.64844,0 -5.00976,-0.60351562 -7.07812,-1.81640625 -2.07129,-1.21875 -3.70313,-2.9912109 -4.89844,-5.3203125 -1.19531,-2.3349609 -1.79297,-5.167969 -1.79297,-8.496094 0,-4.959961 1.24805,-8.783203 3.75,-11.472656 2.49902,-2.686523 5.89746,-4.03125 10.19531,-4.03125 2.72461,0 5.12403,0.606445 7.19532,1.816406 2.06835,1.212891 3.6914,2.964844 4.86328,5.261719 1.17773,2.296875 1.76953,5.106445 1.76953,8.425781 z m -22.67578,0 c 0,3.547852 0.69726,6.3603518 2.09765,8.4375003 1.39746,2.071289 3.62696,3.1054687 6.69141,3.1054687 3.02344,0 5.24121,-1.0341797 6.65625,-3.1054687 1.4209,-2.0771485 2.13281,-4.8896483 2.13281,-8.4375003 0,-3.544922 -0.71191,-6.328125 -2.13281,-8.34375 -1.41504,-2.015625 -3.65332,-3.023437 -6.71484,-3.023437 -3.06446,0 -5.28516,1.007812 -6.66797,3.023437 -1.37696,2.015625 -2.0625,4.798828 -2.0625,8.34375 z m 41.09765,15.63281275 c -3.73535,0 -6.72363,-1.29492187 -8.96484,-3.89062495 -2.23535,-2.5927735 -3.35156,-6.46875 -3.35156,-11.6249998 0,-5.147461 1.12793,-9.038086 3.38672,-11.671875 2.25585,-2.63086 5.25292,-3.949219 8.98828,-3.949219 2.31152,0 4.20703,0.430664 5.68359,1.289063 1.47656,0.852539 2.67773,1.895507 3.60938,3.128906 h 0.33984 c -0.041,-0.483399 -0.10547,-1.201172 -0.19922,-2.15625 -0.0937,-0.952149 -0.14062,-1.705078 -0.14062,-2.261719 v -11.988281 h 4.93359 V -5.3225e-4 h -3.97266 l -0.73828,-4.03124995 h -0.22265 c -0.89063,1.265625 -2.08594,2.3496093 -3.58594,3.2460937 -1.49414,0.89648438 -3.41602,1.34765625 -5.76563,1.34765625 z m 0.78516,-4.08984375 c 3.16992,0 5.40234,-0.8671875 6.69141,-2.6015625 1.28906,-1.7402344 1.93359,-4.3652345 1.93359,-7.8749995 v -0.890625 c 0,-3.732422 -0.61817,-6.597657 -1.85156,-8.589844 -1.22754,-1.998047 -3.50391,-3 -6.83203,-3 -2.64844,0 -4.6377,1.054687 -5.96485,3.164062 -1.32129,2.109375 -1.98047,4.939453 -1.98047,8.484375 0,3.580078 0.65918,6.3603518 1.98047,8.3437503 1.32715,1.977539 3.33399,2.9648437 6.02344,2.9648437 z m 34.60547,-27.046875 c 2.57812,0 4.78711,0.55957 6.63281,1.675781 1.85156,1.119141 3.27246,2.695313 4.26563,4.734375 0.99023,2.033203 1.48828,4.41211 1.48828,7.136719 v 2.964844 h -20.55469 c 0.0703,3.398437 0.9375,5.9853513 2.60156,7.7578123 1.66406,1.7753906 3.98731,2.6601562 6.97266,2.6601562 1.90429,0 3.59179,-0.1757812 5.0625,-0.5273437 1.47656,-0.3515625 3,-0.8613282 4.57031,-1.5351563 v 4.3125 c -1.53223,0.67382813 -3.04395,1.16601563 -4.53516,1.4765625 -1.49414,0.31933594 -3.2666,0.48046875 -5.32031,0.48046875 -2.83594,0 -5.34961,-0.57714844 -7.53515,-1.73437495 -2.18848,-1.163086 -3.8877,-2.8886719 -5.09766,-5.1796875 -1.21289,-2.296875 -1.81641,-5.1093753 -1.81641,-8.4375003 0,-3.28125 0.55078,-6.096679 1.65235,-8.449218 1.10156,-2.34961 2.64843,-4.160157 4.64062,-5.425782 1.99805,-1.271484 4.32422,-1.910156 6.97266,-1.910156 z m -0.0469,4.03125 c -2.35254,0 -4.21289,0.758789 -5.57812,2.273438 -1.35938,1.508789 -2.17383,3.606445 -2.4375,6.292968 h 15.29297 c -0.041,-2.537109 -0.63868,-4.599609 -1.79297,-6.1875 -1.15723,-1.584961 -2.98535,-2.378906 -5.48438,-2.378906 z m 34.0459,-4.03125 c 0.5625,0 1.16602,0.0293 1.81641,0.08203 0.65625,0.05566 1.22461,0.137696 1.71093,0.246094 l -0.62109,4.535156 c -0.48633,-0.108398 -1.0166,-0.199218 -1.59375,-0.269531 -0.58008,-0.07617 -1.13086,-0.117187 -1.65234,-0.117187 -1.53223,0 -2.97071,0.421875 -4.3125,1.265625 -1.34473,0.83789 -2.41992,2.012695 -3.22266,3.527343 -0.79687,1.508789 -1.19531,3.269532 -1.19531,5.285157 V -5.3225e-4 h -4.9336 V -30.02397 h 4.03125 l 0.5625,5.496094 h 0.22266 c 0.9668,-1.640625 2.21777,-3.058594 3.75,-4.253906 1.5293,-1.195313 3.34277,-1.792969 5.4375,-1.792969 z m 0,0"
       style="fill:#000000;fill-opacity:1;fill-rule:nonzero;stroke:none"
       aria-label="Decoder"
       transform="matrix(1.3333333,0,0,1.3333333,2011.7408,779.39133)" />
    <g
       id="g28"
       aria-label="d&#10;Φ&#10;(z)"
       transform="matrix(1.3333333,0,0,1.3333333,2012.1185,870.69993)">
      <path
         id="path29"
         d="m 20.495115,-6.2935007 c -1.347656,2.1679688 -2.496093,3.4570313 -3.210937,3.4570313 -0.292969,0 -0.527344,-0.28125 -0.527344,-0.5742188 0,-0.4335937 1.054688,-4.6054687 2.730469,-10.6992188 l 5.332031,-19.441406 c -2.882812,0.667969 -5.191406,1.007812 -10.03125,1.394531 v 1.289063 h 1.007813 c 1.242187,0 1.96875,0.480468 1.96875,1.347656 0,0.433594 -0.246094,1.488281 -1.394532,5.660156 l -0.867187,3.269531 c -1.148438,-1.148437 -2.0625,-1.582031 -3.457031,-1.582031 -5.8593754,0 -13.0546879,9.257813 -13.0546879,16.7929688 0,3.5039063 2.15625,6.00000001 5.0859375,6.00000001 3.0703125,0 5.2382813,-1.72265621 7.9687504,-6.28125001 -0.433594,1.8632813 -0.527344,2.4960938 -0.527344,3.2578125 0,1.82812501 1.054687,2.92968751 2.882812,2.92968751 2.355469,0 4.511719,-1.82812501 7.148438,-6.04687501 z M 13.006834,-20.156782 c 1.054688,0.04687 1.78125,1.007813 1.78125,2.34375 0,2.167969 -2.074219,8.3085938 -3.75,11.4257813 -1.3476561,2.3554688 -2.6835936,3.5507813 -4.1249999,3.5507813 -1.2070312,0 -2.0625,-1.3359375 -1.96875,-3.0234375 0.140625,-2.5898438 1.6289063,-7.0078121 3.3632813,-10.1250001 1.5351562,-2.730469 3.2578126,-4.277344 4.6992186,-4.171875 z m 0,0"
         style="fill:#000000;fill-opacity:1;fill-rule:nonzero;stroke:none" />
      <path
         id="path30"
         d="m 42.139647,-23.610883 -0.28125,1.054687 h 1.054687 c 1.195313,0.04687 2.0625,0.808594 2.0625,1.96875 0,0.234375 -0.04687,0.621094 -0.140625,1.007813 -4.078125,0.140625 -6.574219,0.480468 -8.542969,1.148437 -6.386718,2.203125 -10.03125,7.242187 -10.03125,13.7695313 0,4.61718745 1.863282,7.921875 5.566407,9.8906249 1.769531,0.9609375 3.070312,1.2539063 6,1.4882813 -0.679688,2.3085938 -1.394532,3.0703125 -3.128907,3.2695313 h -0.375 L 34.030272,11.04146 h 12.820312 l 0.28125,-1.0546872 h -1.394531 c -1.195313,-0.046875 -2.0625,-0.8203125 -2.0625,-1.921875 0,-0.3398438 0.105469,-0.7734376 0.199219,-1.2539063 4.125,-0.140625 6.046875,-0.375 8.25,-1.1484375 6.339843,-2.109375 10.03125,-7.1953125 10.03125,-13.7226563 0,-6.6328127 -4.171875,-10.8515627 -11.273438,-11.4257807 0.574219,-2.109375 1.441406,-2.929688 3.070313,-3.070313 h 0.574218 l 0.292969,-1.054687 z m -3.9375,28.9335932 C 34.69824,4.7953665 32.975584,2.4047415 32.975584,-1.9194772 c 0,-5.3320313 2.25,-11.2382818 5.378906,-14.0156248 1.582032,-1.441406 3.023438,-1.921875 6.09375,-2.15625 z M 50.495115,-18.091352 c 2.015625,0.480469 2.589844,0.761719 3.363282,1.863281 1.054687,1.441406 1.535156,3.222656 1.535156,5.566406 0,5.2851565 -2.167969,10.89843775 -5.238281,13.6875003 C 48.29199,4.6547415 46.897459,5.2289602 44.26074,5.381304 Z m 0,0"
         style="fill:#000000;fill-opacity:1;fill-rule:nonzero;stroke:none" />
      <path
         id="path31"
         d="m 77.515623,-32.883344 c -7.289062,5.378906 -10.171875,8.496093 -12.375,13.488281 -1.300781,2.882812 -1.921875,6 -1.921875,9.4570311 0,6.5742187 1.96875,11.90625 6.808594,18.5273437 L 71.140623,7.8744681 C 68.492186,3.2104056 67.730467,0.29243681 67.730467,-5.2856882 c 0,-6.1406248 1.195312,-12.3281248 3.257812,-16.9335938 1.734375,-3.84375 3.503907,-6.152344 7.394532,-9.703125 z m 0.960938,18.726562 1.347656,0.140625 c 0.761719,-2.109375 1.535156,-2.882812 3.023437,-2.929687 h 6.960938 L 75.792967,0.04634306 76.988279,1.1010306 77.515623,0.71431181 c 0.480469,-0.328125 0.726563,-0.52734375 0.773438,-0.52734375 0.480468,-0.328125 0.714843,-0.421875 1.148437,-0.421875 0.960938,0 1.875,0.421875 3.550781,1.58203124 2.542969,1.7226563 4.324219,2.390625 6.292969,2.390625 2.929688,0 5.179688,-1.8632812 5.179688,-4.35937499 0,-1.34765621 -1.195313,-2.49609371 -2.542969,-2.49609371 -1.289063,0 -2.402344,1.1484375 -2.402344,2.49609371 0,0.52734375 0.152344,0.9609375 0.632813,1.48828125 0.234375,0.32812504 0.328125,0.52734374 0.328125,0.71484374 0,0.4335938 -0.433594,0.7734375 -1.054688,0.7734375 -0.867187,0 -1.441406,-0.5742187 -2.25,-2.26171874 C 85.636717,-2.8364694 84.476561,-3.9849069 82.027342,-4.9927194 L 95.515623,-21.070844 v -0.480469 H 80.539061 Z M 95.228514,8.5893118 c 5.671876,-4.03125 8.074216,-6.3867187 10.511716,-10.171875 2.55469,-3.890625 3.79688,-8.109375 3.79688,-12.7734378 0,-3.550781 -0.77344,-7.289062 -2.25,-10.839843 -1.11328,-2.648438 -2.1211,-4.277344 -4.61719,-7.6875 l -1.10156,0.726562 c 2.58984,4.3125 3.45703,7.535156 3.45703,13.007813 0,6.375 -1.53516,13.6757808 -3.9375,18.48046831 C 99.552733,2.4018118 98.064451,4.2768118 94.41992,7.6283743 Z m 0,0"
         style="fill:#000000;fill-opacity:1;fill-rule:nonzero;stroke:none" />
    </g>
    <path
       id="path32"
       d="m 1226.184,400.816 h 134.332 v 134.328 h -134.332 z"
       style="fill:#a1be1f;fill-opacity:1;fill-rule:nonzero;stroke:#000000;stroke-width:3;stroke-linecap:butt;stroke-linejoin:bevel;stroke-miterlimit:4;stroke-dasharray:none;stroke-opacity:1"
       transform="scale(1.3333333)" />
    <path
       id="path33"
       d="m 1226.184,535.145 h 134.332 v 134.332 h -134.332 z"
       style="fill:#a1be1f;fill-opacity:1;fill-rule:nonzero;stroke:#000000;stroke-width:3;stroke-linecap:butt;stroke-linejoin:bevel;stroke-miterlimit:4;stroke-dasharray:none;stroke-opacity:1"
       transform="scale(1.3333333)" />
    <path
       id="path34"
       d="m 1226.184,669.477 h 134.332 v 134.328 h -134.332 z"
       style="fill:#a1be1f;fill-opacity:1;fill-rule:nonzero;stroke:#000000;stroke-width:3;stroke-linecap:butt;stroke-linejoin:bevel;stroke-miterlimit:4;stroke-dasharray:none;stroke-opacity:1"
       transform="scale(1.3333333)" />
    <path
       id="path35"
       d="m 1897.395,132.152 h 134.328 v 134.332 h -134.328 z"
       style="fill:#007b53;fill-opacity:1;fill-rule:nonzero;stroke:#000000;stroke-width:3;stroke-linecap:butt;stroke-linejoin:bevel;stroke-miterlimit:4;stroke-dasharray:none;stroke-opacity:1"
       transform="scale(1.3333333)" />
    <path
       id="path36"
       d="m 1897.395,266.484 h 134.328 v 134.332 h -134.328 z"
       style="fill:#007b53;fill-opacity:1;fill-rule:nonzero;stroke:#000000;stroke-width:3;stroke-linecap:butt;stroke-linejoin:bevel;stroke-miterlimit:4;stroke-dasharray:none;stroke-opacity:1"
       transform="scale(1.3333333)" />
    <path
       id="path37"
       d="m 1897.395,400.816 h 134.328 v 134.328 h -134.328 z"
       style="fill:#007b53;fill-opacity:1;fill-rule:nonzero;stroke:#000000;stroke-width:3;stroke-linecap:butt;stroke-linejoin:bevel;stroke-miterlimit:4;stroke-dasharray:none;stroke-opacity:1"
       transform="scale(1.3333333)" />
    <path
       id="path38"
       d="m 1897.395,535.145 h 134.328 v 134.332 h -134.328 z"
       style="fill:#007b53;fill-opacity:1;fill-rule:nonzero;stroke:#000000;stroke-width:3;stroke-linecap:butt;stroke-linejoin:bevel;stroke-miterlimit:4;stroke-dasharray:none;stroke-opacity:1"
       transform="scale(1.3333333)" />
    <path
       id="path39"
       d="m 1897.395,669.477 h 134.328 v 134.328 h -134.328 z"
       style="fill:#007b53;fill-opacity:1;fill-rule:nonzero;stroke:#000000;stroke-width:3;stroke-linecap:butt;stroke-linejoin:bevel;stroke-miterlimit:4;stroke-dasharray:none;stroke-opacity:1"
       transform="scale(1.3333333)" />
    <path
       id="path40"
       d="m 1897.395,803.805 h 134.328 v 134.332 h -134.328 z"
       style="fill:#007b53;fill-opacity:1;fill-rule:nonzero;stroke:#000000;stroke-width:3;stroke-linecap:butt;stroke-linejoin:bevel;stroke-miterlimit:4;stroke-dasharray:none;stroke-opacity:1"
       transform="scale(1.3333333)" />
    <path
       id="path41"
       d="m 1897.395,938.137 h 134.328 v 134.332 h -134.328 z"
       style="fill:#007b53;fill-opacity:1;fill-rule:nonzero;stroke:#000000;stroke-width:3;stroke-linecap:butt;stroke-linejoin:bevel;stroke-miterlimit:4;stroke-dasharray:none;stroke-opacity:1"
       transform="scale(1.3333333)" />
    <path
       id="path42"
       d="m 57.597348,-17.707031 c -5.613282,7.195312 -7.054688,8.4960935 -9.644532,8.4960935 -2.742187,0 -4.171875,-2.0156245 -5.332031,-7.6406245 l -4.605469,-22.464844 c 0.433594,-0.574219 0.574219,-0.855469 1.300782,-1.863281 5.039062,-8.355469 8.636718,-11.8125 11.953125,-11.8125 0.855468,0 1.863281,0.433593 3.597656,1.300781 2.015625,1.289062 3.023437,1.582031 4.605469,1.582031 4.324218,0 8.0625,-3.457031 8.0625,-7.628906 0,-4.617188 -3.890625,-8.789063 -8.355469,-8.789063 -6.761719,0 -11.226563,3.890625 -22.746094,19.875 -2.589844,-12.527343 -3.75,-15.984375 -6.480469,-19.875 l -24.0468746,3.457032 v 3.890625 c 2.5898437,-0.292969 3.5976562,-0.292969 5.0390626,-0.292969 4.605469,0 6.621094,2.589844 8.0625,9.644531 l 4.324219,22.183594 -6.339844,10.078125 c -2.882813,4.746094 -4.324219,5.90625 -6.914063,5.90625 -0.8671871,0 -1.5820309,-0.292969 -3.0234371,-1.160156 -2.296875,-1.289063 -3.890625,-1.863282 -5.7539063,-1.863282 -4.4648437,0 -7.921875,3.457032 -7.921875,8.0625003 0,5.0390625 3.7382813,8.4960937 9.2109375,8.4960937 7.2070313,0 10.3710939,-2.8828125 18.8671879,-16.710937 l 3.457031,-5.613282 C 28.077816,-3.890625 31.675473,1.875 38.882504,1.875 c 6.914062,0 12.960937,-4.8984375 21.738281,-17.566406 z M 1233.6149,219.36035 l 4.0313,0.4336 c 2.2969,-6.33985 4.6054,-8.63672 9.0703,-8.78907 h 20.8828 l -42.0469,50.97657 3.5977,3.17578 1.582,-1.16016 c 1.4414,-1.00781 2.1563,-1.58203 2.3086,-1.58203 1.4297,-1.00781 2.1563,-1.28906 3.457,-1.28906 2.8711,0 5.6133,1.28906 10.6524,4.74609 7.6289,5.17969 12.9609,7.19531 18.8672,7.19531 8.7773,0 15.5508,-5.61328 15.5508,-13.10156 0,-4.03125 -3.6094,-7.48828 -7.6407,-7.48828 -3.8789,0 -7.1953,3.45703 -7.1953,7.48828 0,1.58203 0.4336,2.88281 1.875,4.46484 0.7149,1.00782 1.0078,1.58204 1.0078,2.16797 0,1.28907 -1.3008,2.29688 -3.1758,2.29688 -2.5898,0 -4.3125,-1.72266 -6.7617,-6.76172 -4.6054,-8.78906 -8.0625,-12.24609 -15.4101,-15.26953 l 40.4648,-48.23438 v -1.4414 h -44.9297 z m 698.3467,-237.067381 c -5.6133,7.195312 -7.0547,8.4960935 -9.6445,8.4960935 -2.7422,0 -4.1719,-2.0156245 -5.3321,-7.6406245 l -4.6054,-22.464844 c 0.4336,-0.574219 0.5742,-0.855469 1.3008,-1.863281 5.039,-8.355469 8.6367,-11.8125 11.9531,-11.8125 0.8554,0 1.8633,0.433593 3.5976,1.300781 2.0157,1.289062 3.0235,1.582031 4.6055,1.582031 4.3242,0 8.0625,-3.457031 8.0625,-7.628906 0,-4.617188 -3.8906,-8.789063 -8.3555,-8.789063 -6.7617,0 -11.2265,3.890625 -22.7461,19.875 -2.5898,-12.527343 -3.75,-15.984375 -6.4804,-19.875 l -24.0469,3.457032 v 3.890625 c 2.5898,-0.292969 3.5977,-0.292969 5.0391,-0.292969 4.6054,0 6.6211,2.589844 8.0625,9.644531 l 4.3242,22.183594 -6.3399,10.078125 c -2.8828,4.746094 -4.3242,5.90625 -6.914,5.90625 -0.8672,0 -1.5821,-0.292969 -3.0235,-1.160156 -2.2968,-1.289063 -3.8906,-1.863282 -5.7539,-1.863282 -4.4648,0 -7.9218,3.457032 -7.9218,8.0625003 0,5.0390625 3.7382,8.4960937 9.2109,8.4960937 7.207,0 10.3711,-2.8828125 18.8672,-16.710937 l 3.457,-5.613282 c 3.1641,16.558594 6.7617,22.324219 13.9688,22.324219 6.914,0 12.9609,-4.8984375 21.7382,-17.566406 z m 38.7422,-39.609375 11.8008,-26.777344 c 0.1523,-0.140625 0.4336,-0.867187 0.8672,-2.015625 1.4414,-3.175781 1.582,-3.597656 1.582,-5.472656 0,-3.890625 -2.8828,-7.054688 -6.4805,-7.054688 -5.6133,0 -10.9453,5.039063 -11.3789,10.511719 l -2.2969,30.808594 z m 0,0"
       style="fill:#000000;fill-opacity:1;fill-rule:nonzero;stroke:none"
       aria-label="x&#10;z&#10;x'"
       transform="matrix(1.3333333,0,0,1.3333333,50.945724,153.5625)" />
    <path
       id="path43"
       d="m 5.2038171,-29.472565 c 0.5302735,0 1.0019532,0.181641 1.4179688,0.539063 0.4130859,0.360351 0.6210937,0.925781 0.6210937,1.699219 0,0.74414 -0.2080078,1.300781 -0.6210937,1.675781 -0.4160156,0.375 -0.8876953,0.5625 -1.4179688,0.5625 -0.5859375,0 -1.0839843,-0.1875 -1.4882812,-0.5625 -0.3984375,-0.375 -0.5976563,-0.931641 -0.5976563,-1.675781 0,-0.773438 0.1992188,-1.338868 0.5976563,-1.699219 0.4042969,-0.357422 0.9023437,-0.539063 1.4882812,-0.539063 z m 1.7109375,8.039063 V 9.15625e-5 H 3.3991296 V -21.433502 Z M 24.041708,-21.83194 c 2.554687,0 4.482422,0.621094 5.789062,1.863282 1.3125,1.236328 1.96875,3.240234 1.96875,6.011718 V 9.15625e-5 H 28.319051 V -13.722565 c 0,-3.436523 -1.602539,-5.15625 -4.804687,-5.15625 -2.367188,0 -4.007813,0.667969 -4.921875,2.003907 -0.908203,1.330078 -1.359375,3.246093 -1.359375,5.753906 V 9.15625e-5 H 13.717489 V -21.433502 h 2.835937 l 0.527344,2.917969 h 0.199219 c 0.694336,-1.125 1.655273,-1.957032 2.882812,-2.496094 1.22461,-0.544922 2.519532,-0.820313 3.878907,-0.820313 z m 24.591797,0 c 2.639648,0 4.763671,0.919922 6.375,2.753907 1.617187,1.836914 2.425781,4.611328 2.425781,8.320312 0,3.6503907 -0.808594,6.4218751 -2.425781,8.3203126 -1.611329,1.89257809 -3.747071,2.83593746 -6.410157,2.83593746 -1.658203,0 -3.023437,-0.31347656 -4.101562,-0.9375 C 43.418661,-1.1629944 42.569051,-1.8895569 41.953817,-2.7186584 h -0.234375 c 0.05273,0.4541015 0.105469,1.0283203 0.152344,1.72265621 0.05273,0.68847657 0.08203,1.28320313 0.08203,1.79296875 V 9.5977478 H 38.438192 V -21.433502 h 2.882813 l 0.480468,2.917969 h 0.152344 c 0.638672,-0.9375 1.479492,-1.722657 2.519531,-2.355469 1.045899,-0.638672 2.431641,-0.960938 4.160157,-0.960938 z m -0.632813,2.953125 c -2.188476,0 -3.732422,0.615235 -4.628906,1.839844 -0.890625,1.227539 -1.365235,3.09375 -1.417969,5.601563 v 0.679687 c 0,2.6425782 0.433594,4.6757813 1.300781,6.1054688 0.867188,1.4238281 2.475586,2.1328125 4.828125,2.1328125 1.303711,0 2.373047,-0.3574219 3.210938,-1.078125 0.84375,-0.7177734 1.470703,-1.6992187 1.886719,-2.9414062 0.413086,-1.2421875 0.621093,-2.663086 0.621093,-4.2656251 0,-2.452148 -0.477539,-4.40918 -1.429687,-5.871094 -0.946289,-1.467773 -2.402344,-2.203125 -4.371094,-2.203125 z m 32.956055,-2.554687 V 9.15625e-5 H 78.073934 L 77.558309,-2.8358459 h -0.164062 c -0.688477,1.1191406 -1.646485,1.93945309 -2.871094,2.46093746 -1.227539,0.515625 -2.537109,0.7734375 -3.925781,0.7734375 -2.586914,0 -4.532227,-0.61523437 -5.835938,-1.85156246 -1.30664,-1.2421875 -1.957031,-3.2226563 -1.957031,-5.9414063 V -21.433502 h 3.550781 v 13.7929686 c 0,3.4160156 1.587891,5.1210937 4.769532,5.1210937 2.367187,0 4.010742,-0.6621094 4.933593,-1.9921875 0.919922,-1.3359375 1.382813,-3.2578125 1.382813,-5.7656248 v -11.15625 z m 13.96289,18.9492186 c 0.530274,0 1.078125,-0.041016 1.640625,-0.1289063 0.5625,-0.09375 1.013672,-0.1933594 1.359375,-0.3046875 v 2.68359376 c -0.375,0.18164063 -0.911132,0.328125 -1.605468,0.4453125 -0.688477,0.12304688 -1.353516,0.1875 -1.992188,0.1875 -1.125,0 -2.162109,-0.19335937 -3.105469,-0.57421875 C 90.270223,-0.56533812 89.505575,-1.2420959 88.919637,-2.2030334 88.3337,-3.1639709 88.040731,-4.5057678 88.040731,-6.2342834 V -18.714752 h -3.035156 v -1.6875 l 3.070312,-1.394531 1.40625,-4.558594 h 2.074219 v 4.921875 h 6.199219 v 2.71875 h -6.199219 v 12.3984373 c 0,1.3066406 0.310547,2.2705078 0.9375,2.8945313 0.632813,0.6269531 1.441406,0.9375 2.425781,0.9375 z m 0,0"
       style="fill:#18974c;fill-opacity:1;fill-rule:nonzero;stroke:none"
       aria-label="input"
       transform="matrix(1.3333333,0,0,1.3333333,21.085015,1504.3553)" />
    <path
       id="path44"
       d="M 6.9138661,-2.745e-4 H 3.3982411 V -30.398712 h 3.515625 z M 21.840624,-21.797149 c 2.607422,0 4.538086,0.574218 5.789062,1.722656 1.256836,1.142578 1.886719,2.964844 1.886719,5.472656 V -2.745e-4 H 26.961718 L 26.28203,-3.0354307 h -0.164062 c -0.931641,1.171875 -1.910157,2.03906245 -2.941407,2.60156245 -1.02539,0.55371094 -2.443359,0.83203125 -4.253906,0.83203125 -1.945312,0 -3.55957,-0.50976562 -4.839844,-1.5351562 -1.283203,-1.03125 -1.921875,-2.6396485 -1.921875,-4.828125 0,-2.1328125 0.837891,-3.7763672 2.519532,-4.9335938 1.678711,-1.163086 4.265625,-1.795898 7.757812,-1.898437 l 3.644531,-0.117188 v -1.289062 c 0,-1.78125 -0.386718,-3.017579 -1.160156,-3.714844 -0.773437,-0.694336 -1.86914,-1.042969 -3.28125,-1.042969 -1.11914,0 -2.185547,0.169922 -3.199219,0.503906 -1.016601,0.336914 -1.96289,0.714844 -2.835937,1.136719 l -1.089844,-2.636719 c 0.9375,-0.506836 2.041992,-0.940429 3.316406,-1.300781 1.280274,-0.357422 2.616211,-0.539062 4.007813,-0.539062 z m 1.042969,11.4375 c -2.671875,0.111328 -4.520508,0.539062 -5.542969,1.289062 -1.025391,0.7441406 -1.535156,1.7929688 -1.535156,3.1523438 0,1.1953125 0.363281,2.0742187 1.089843,2.6367187 0.732422,0.5625 1.675782,0.84375 2.824219,0.84375 1.810547,0 3.316406,-0.4980469 4.511719,-1.5 1.201172,-0.9990234 1.804687,-2.5371094 1.804687,-4.6171875 v -1.921875 z m 20.43457,7.8749995 c 0.530273,0 1.078125,-0.041016 1.640625,-0.1289062 0.5625,-0.09375 1.013672,-0.1933594 1.359375,-0.3046875 v 2.6835937 c -0.375,0.18164063 -0.911133,0.328125 -1.605469,0.4453125 -0.688476,0.12304688 -1.353515,0.1875 -1.992187,0.1875 -1.125,0 -2.16211,-0.19335937 -3.105469,-0.57421875 C 38.668749,-0.56570419 37.904101,-1.242462 37.318163,-2.2033995 36.732226,-3.164337 36.439257,-4.5061339 36.439257,-6.2346495 V -18.715118 h -3.035156 v -1.6875 l 3.070312,-1.394531 1.40625,-4.558594 h 2.074219 v 4.921875 h 6.199219 v 2.71875 h -6.199219 v 12.3984373 c 0,1.3066406 0.310547,2.2705078 0.9375,2.8945312 0.632812,0.6269531 1.441406,0.9375 2.425781,0.9375 z m 15.56543,-19.3476565 c 1.833984,0 3.413086,0.398438 4.734375,1.195313 1.318359,0.796875 2.332031,1.921875 3.035156,3.375 0.708984,1.453125 1.066406,3.152344 1.066406,5.097656 v 2.121094 H 53.035936 c 0.05273,2.4316404 0.673829,4.2773435 1.863282,5.5429685 1.186523,1.265625 2.847656,1.8984375 4.980468,1.8984375 1.359375,0 2.566407,-0.1230469 3.621094,-0.375 1.054688,-0.2578125 2.138672,-0.6240234 3.257813,-1.1015625 v 3.08203125 c -1.095703,0.47753906 -2.176758,0.82910156 -3.246094,1.0546875 -1.063477,0.22558594 -2.329102,0.33984375 -3.796875,0.33984375 -2.024414,0 -3.817383,-0.41015625 -5.378906,-1.23046875 -1.555664,-0.82617185 -2.765625,-2.06249995 -3.632813,-3.70312495 -0.867187,-1.640625 -1.300781,-3.647461 -1.300781,-6.0234373 0,-2.34375 0.389648,-4.353516 1.171875,-6.035156 0.788086,-1.678711 1.892578,-2.970704 3.316406,-3.878907 1.429688,-0.905273 3.09375,-1.359375 4.992188,-1.359375 z m -0.04687,2.871094 c -1.681641,0 -3.008789,0.544922 -3.984375,1.628906 -0.969727,1.078125 -1.546875,2.575196 -1.734375,4.488282 h 10.921875 c -0.03223,-1.810547 -0.462891,-3.28418 -1.289063,-4.417969 -0.820312,-1.13086 -2.126953,-1.699219 -3.914062,-1.699219 z m 24.644531,-2.871094 c 2.554687,0 4.482422,0.621094 5.789062,1.863282 1.3125,1.236328 1.96875,3.240234 1.96875,6.011718 V -2.745e-4 H 87.758593 V -13.722931 c 0,-3.436523 -1.602539,-5.15625 -4.804688,-5.15625 -2.367187,0 -4.007812,0.667969 -4.921875,2.003907 -0.908203,1.330078 -1.359375,3.246093 -1.359375,5.753906 V -2.745e-4 H 73.15703 V -21.433868 h 2.835938 l 0.527343,2.917969 h 0.199219 c 0.694336,-1.125 1.655274,-1.957032 2.882813,-2.496094 1.224609,-0.544922 2.519531,-0.820313 3.878906,-0.820313 z M 105.0379,-2.4846495 c 0.53027,0 1.07812,-0.041016 1.64062,-0.1289062 0.5625,-0.09375 1.01367,-0.1933594 1.35938,-0.3046875 v 2.6835937 c -0.375,0.18164063 -0.91113,0.328125 -1.60547,0.4453125 -0.68848,0.12304688 -1.35351,0.1875 -1.99219,0.1875 -1.125,0 -2.16211,-0.19335937 -3.10547,-0.57421875 -0.94628,-0.38964844 -1.710938,-1.06640625 -2.296875,-2.02734375 -0.585938,-0.9609375 -0.878907,-2.3027344 -0.878907,-4.03125 V -18.715118 h -3.035156 v -1.6875 l 3.070313,-1.394531 1.40625,-4.558594 h 2.074225 v 4.921875 h 6.19922 v 2.71875 h -6.19922 v 12.3984373 c 0,1.3066406 0.31055,2.2705078 0.9375,2.8945312 0.63281,0.6269531 1.4414,0.9375 2.42578,0.9375 z M -43.716993,50.39914 c -2.671875,0 -4.810547,-0.925782 -6.410156,-2.777344 -1.59375,-1.851563 -2.390625,-4.617188 -2.390625,-8.296875 0,-3.679688 0.802734,-6.457031 2.414062,-8.332031 1.617188,-1.88086 3.755859,-2.824219 6.421875,-2.824219 1.655273,0 3.005859,0.310547 4.054688,0.925781 1.054687,0.609375 1.916015,1.353516 2.589843,2.226563 h 0.234375 c -0.02344,-0.342774 -0.07031,-0.855469 -0.140625,-1.535157 -0.06445,-0.679687 -0.09375,-1.21875 -0.09375,-1.617187 v -8.566406 h 3.515625 v 30.398437 h -2.835937 l -0.527344,-2.882812 h -0.152344 c -0.641601,0.908203 -1.49707,1.68164 -2.566406,2.320312 -1.063477,0.638672 -2.43457,0.960938 -4.113281,0.960938 z m 0.550781,-2.917969 c 2.264648,0 3.858398,-0.615235 4.78125,-1.851563 0.919922,-1.242187 1.382813,-3.117187 1.382813,-5.625 v -0.644531 c 0,-2.663086 -0.442383,-4.705078 -1.324219,-6.128906 -0.875977,-1.429688 -2.501953,-2.144531 -4.875,-2.144531 -1.892578,0 -3.313477,0.755859 -4.265625,2.261718 -0.946289,1.5 -1.417969,3.521485 -1.417969,6.058594 0,2.554688 0.47168,4.541016 1.417969,5.953125 0.952148,1.415039 2.384765,2.121094 4.300781,2.121094 z m 18.249023,-26.953125 c 0.530274,0 1.001954,0.18164 1.417969,0.539062 0.413086,0.360352 0.621094,0.925782 0.621094,1.699219 0,0.744141 -0.208008,1.300781 -0.621094,1.675781 -0.416015,0.375 -0.887695,0.5625 -1.417969,0.5625 -0.585937,0 -1.083984,-0.1875 -1.488281,-0.5625 -0.398437,-0.375 -0.597656,-0.93164 -0.597656,-1.675781 0,-0.773437 0.199219,-1.338867 0.597656,-1.699219 0.404297,-0.357422 0.902344,-0.539062 1.488281,-0.539062 z m 1.710938,8.039062 v 21.433594 h -3.515625 V 28.567108 Z m 20.7626953,15.515625 c 0,2.080078 -0.7734375,3.653321 -2.3203125,4.722657 -1.546875,1.063476 -3.6269532,1.59375 -6.2343748,1.59375 -1.494141,0 -2.783203,-0.123047 -3.867188,-0.363282 -1.078125,-0.234375 -2.033203,-0.565429 -2.859375,-0.996093 v -3.199219 c 0.858399,0.430664 1.892578,0.826172 3.105469,1.183594 1.209961,0.360351 2.443359,0.539062 3.703125,0.539062 1.78125,0 3.0703125,-0.28418 3.8671875,-0.855469 0.8027344,-0.577148 1.2070313,-1.347656 1.2070313,-2.308593 0,-0.530274 -0.1494141,-1.007813 -0.4453125,-1.429688 -0.2900391,-0.427734 -0.8144532,-0.858398 -1.5703125,-1.289062 -0.7587891,-0.427735 -1.8457032,-0.908204 -3.2578128,-1.441407 -1.391601,-0.530273 -2.578125,-1.060547 -3.5625,-1.59375 -0.984375,-0.539062 -1.746093,-1.177734 -2.285156,-1.921875 -0.533203,-0.75 -0.796875,-1.710937 -0.796875,-2.882812 0,-1.810547 0.738281,-3.210938 2.214844,-4.195313 1.482422,-0.984375 3.424804,-1.476562 5.8242185,-1.476562 1.3037109,0 2.5224609,0.125976 3.65625,0.375 1.1308594,0.251953 2.1943359,0.603515 3.1875,1.054687 l -1.2070312,2.800782 c -0.9082032,-0.366211 -1.8515625,-0.682618 -2.8359375,-0.949219 -0.984375,-0.272461 -1.9980469,-0.410156 -3.0351563,-0.410156 -1.4472655,0 -2.5488285,0.234375 -3.3046875,0.703125 -0.758789,0.46875 -1.136719,1.101562 -1.136719,1.898437 0,0.585938 0.169922,1.086914 0.515625,1.5 0.342774,0.416016 0.919922,0.817383 1.734375,1.207031 0.820313,0.383789 1.910157,0.840821 3.2695315,1.371094 1.359375,0.509766 2.5195313,1.03125 3.4804688,1.570313 0.9609375,0.533203 1.6904296,1.177734 2.1914062,1.933593 0.5068359,0.758789 0.7617188,1.710938 0.7617188,2.859375 z m 12.3632812,3.433594 c 0.5302735,0 1.0781255,-0.04102 1.6406255,-0.128906 0.5625,-0.09375 1.013671,-0.19336 1.359375,-0.304688 v 2.683594 c -0.375,0.181641 -0.911133,0.328125 -1.605469,0.445313 -0.688477,0.123046 -1.3535159,0.1875 -1.9921877,0.1875 -1.125,0 -2.1621094,-0.19336 -3.1054688,-0.574219 C 5.2703114,49.435272 4.505663,48.758515 3.9197255,47.797577 3.333788,46.83664 3.0408193,45.494843 3.0408193,43.766327 V 31.285858 H 0.005663 v -1.6875 l 3.0703125,-1.394531 1.40625,-4.558594 h 2.0742188 v 4.921875 h 6.1992187 v 2.71875 H 6.5564443 v 12.398438 c 0,1.30664 0.3105468,2.270508 0.9375,2.894531 0.6328125,0.626953 1.4414062,0.9375 2.4257812,0.9375 z M 27.193163,28.168671 c 0.404297,0 0.837891,0.02051 1.300781,0.05859 0.46875,0.04102 0.873047,0.09961 1.21875,0.175781 l -0.433593,3.234375 c -0.351563,-0.07617 -0.735352,-0.140625 -1.148438,-0.1875 -0.407227,-0.05273 -0.796875,-0.08203 -1.171875,-0.08203 -1.095703,0 -2.121094,0.301757 -3.082031,0.902343 -0.960938,0.594727 -1.731446,1.435547 -2.308594,2.519532 -0.571289,1.078125 -0.855469,2.33789 -0.855469,3.773437 v 11.4375 H 17.197069 V 28.567108 h 2.882813 l 0.398437,3.914063 h 0.164063 c 0.685547,-1.171875 1.576172,-2.182617 2.671875,-3.035156 1.092773,-0.84961 2.384765,-1.277344 3.878906,-1.277344 z m 8.329102,-7.640625 c 0.530273,0 1.001953,0.18164 1.417968,0.539062 0.413086,0.360352 0.621094,0.925782 0.621094,1.699219 0,0.744141 -0.208008,1.300781 -0.621094,1.675781 -0.416015,0.375 -0.887695,0.5625 -1.417968,0.5625 -0.585938,0 -1.083985,-0.1875 -1.488282,-0.5625 -0.398437,-0.375 -0.597656,-0.93164 -0.597656,-1.675781 0,-0.773437 0.199219,-1.338867 0.597656,-1.699219 0.404297,-0.357422 0.902344,-0.539062 1.488282,-0.539062 z m 1.710937,8.039062 V 50.000702 H 33.717577 V 28.567108 Z m 10.321289,-1.558593 c 0,0.908203 -0.02051,1.754882 -0.05859,2.542968 -0.04102,0.782227 -0.08789,1.400391 -0.140625,1.851563 h 0.199219 c 0.615235,-0.905274 1.456055,-1.664063 2.519531,-2.273438 1.069336,-0.615234 2.44336,-0.925781 4.125,-0.925781 2.663086,0 4.798829,0.925781 6.410157,2.777344 1.617187,1.851562 2.425781,4.617187 2.425781,8.296875 0,3.679687 -0.814453,6.454101 -2.4375,8.320312 -1.625977,1.869141 -3.758789,2.800782 -6.398438,2.800782 -1.68164,0 -3.055664,-0.304688 -4.125,-0.914063 C 49.01055,48.869843 48.16973,48.134491 47.554495,47.281952 H 47.28496 l -0.726563,2.71875 H 44.038866 V 19.602265 h 3.515625 z m 6.046875,4.113281 c -2.267578,0 -3.84082,0.65625 -4.722656,1.96875 -0.884766,1.30664 -1.324219,3.328125 -1.324219,6.070312 v 0.164063 c 0,2.642578 0.433594,4.661133 1.300781,6.058594 0.867188,1.40039 2.475586,2.097656 4.828125,2.097656 1.913086,0 3.342774,-0.706055 4.289063,-2.121094 0.952148,-1.412109 1.429687,-3.451172 1.429687,-6.117187 0,-5.414063 -1.933593,-8.121094 -5.800781,-8.121094 z m 32.956055,-2.554688 v 21.433594 h -2.882813 l -0.515625,-2.835937 h -0.164062 c -0.688477,1.11914 -1.646485,1.939453 -2.871094,2.460937 -1.227539,0.515625 -2.537109,0.773438 -3.925781,0.773438 -2.586914,0 -4.532227,-0.615235 -5.835938,-1.851563 -1.30664,-1.242187 -1.957031,-3.222656 -1.957031,-5.941406 V 28.567108 h 3.550781 v 13.792969 c 0,3.416016 1.587891,5.121094 4.769532,5.121094 2.367187,0 4.010742,-0.66211 4.933593,-1.992188 0.919922,-1.335937 1.382813,-3.257812 1.382813,-5.765625 v -11.15625 z m 13.959959,18.949219 c 0.53028,0 1.07813,-0.04102 1.64063,-0.128906 0.5625,-0.09375 1.01367,-0.19336 1.35937,-0.304688 v 2.683594 c -0.375,0.181641 -0.91113,0.328125 -1.60547,0.445313 -0.68847,0.123046 -1.35351,0.1875 -1.992184,0.1875 -1.125,0 -2.16211,-0.19336 -3.105469,-0.574219 -0.946289,-0.389649 -1.710938,-1.066406 -2.296875,-2.027344 -0.585938,-0.960937 -0.878906,-2.302734 -0.878906,-4.03125 V 31.285858 h -3.035157 v -1.6875 l 3.070313,-1.394531 1.40625,-4.558594 h 2.074219 v 4.921875 h 6.199219 v 2.71875 h -6.199219 v 12.398438 c 0,1.30664 0.310546,2.270508 0.9375,2.894531 0.632812,0.626953 1.441406,0.9375 2.425779,0.9375 z m 9.08496,-26.988281 c 0.53028,0 1.00196,0.18164 1.41797,0.539062 0.41309,0.360352 0.6211,0.925782 0.6211,1.699219 0,0.744141 -0.20801,1.300781 -0.6211,1.675781 -0.41601,0.375 -0.88769,0.5625 -1.41797,0.5625 -0.58593,0 -1.08398,-0.1875 -1.48828,-0.5625 -0.39844,-0.375 -0.59765,-0.93164 -0.59765,-1.675781 0,-0.773437 0.19921,-1.338867 0.59765,-1.699219 0.4043,-0.357422 0.90235,-0.539062 1.48828,-0.539062 z m 1.71094,8.039062 v 21.433594 h -3.51562 V 28.567108 Z m 25.4502,10.675782 c 0,3.547851 -0.90235,6.292968 -2.70704,8.238281 -1.79882,1.945312 -4.23046,2.917969 -7.30078,2.917969 -1.89258,0 -3.58008,-0.433594 -5.0625,-1.300782 -1.47656,-0.867187 -2.64258,-2.132812 -3.49218,-3.796875 -0.85254,-1.664062 -1.27735,-3.682617 -1.27735,-6.058593 0,-3.544922 0.89063,-6.275391 2.67188,-8.191407 1.78711,-1.921875 4.21875,-2.882812 7.28906,-2.882812 1.94531,0 3.65625,0.433594 5.13281,1.300781 1.48242,0.861328 2.64258,2.109375 3.48047,3.75 0.84375,1.640625 1.26563,3.650391 1.26563,6.023438 z m -16.20704,0 c 0,2.53125 0.49805,4.541015 1.5,6.023437 0.99903,1.476563 2.59278,2.214844 4.78125,2.214844 2.16211,0 3.75,-0.738281 4.75782,-2.214844 1.01367,-1.482422 1.52343,-3.492187 1.52343,-6.023437 0,-2.53125 -0.50976,-4.514649 -1.52343,-5.953125 -1.00782,-1.444336 -2.60743,-2.167969 -4.79297,-2.167969 -2.18848,0 -3.7793,0.723633 -4.76953,2.167969 -0.98438,1.438476 -1.47657,3.421875 -1.47657,5.953125 z m 32.08594,-11.074219 c 2.55469,0 4.48242,0.621094 5.78906,1.863281 1.3125,1.236328 1.96875,3.240234 1.96875,6.011719 v 13.957031 h -3.48046 V 36.278046 c 0,-3.436524 -1.60254,-5.15625 -4.80469,-5.15625 -2.36719,0 -4.00781,0.667969 -4.92188,2.003906 -0.9082,1.330078 -1.35937,3.246094 -1.35937,5.753906 v 11.121094 h -3.51563 V 28.567108 h 2.83594 l 0.52734,2.917969 h 0.19922 c 0.69434,-1.125 1.65528,-1.957031 2.88282,-2.496094 1.2246,-0.544922 2.51953,-0.820312 3.8789,-0.820312 z m 0,0"
       style="fill:#a1be1f;fill-opacity:1;fill-rule:nonzero;stroke:none"
       aria-label="latent&#10;distribution"
       transform="matrix(1.3333333,0,0,1.3333333,914.67995,1142.0316)" />
    <path
       id="path45"
       d="m 17.355915,-5.9178768 c 0,2.0800781 -0.773438,3.6533203 -2.320313,4.7226562 -1.546875,1.0634766 -3.626953,1.59375004 -6.2343748,1.59375004 -1.4941406,0 -2.7832031,-0.12304688 -3.8671875,-0.36328125 -1.078125,-0.234375 -2.0332031,-0.56542969 -2.859375,-0.99609375 V -4.1600643 c 0.8583984,0.4306641 1.8925781,0.8261719 3.1054687,1.1835937 1.209961,0.3603516 2.4433594,0.5390625 3.703125,0.5390625 1.7812496,0 3.0703126,-0.2841796 3.8671876,-0.8554687 0.802734,-0.5771484 1.207031,-1.3476563 1.207031,-2.3085938 0,-0.5302734 -0.149414,-1.0078125 -0.445312,-1.4296875 -0.290039,-0.4277343 -0.814453,-0.8583984 -1.570313,-1.2890625 -0.758789,-0.4277343 -1.845703,-0.9082031 -3.2578123,-1.4414062 -1.3916016,-0.5302732 -2.578125,-1.0605472 -3.5625,-1.5937502 -0.984375,-0.539062 -1.7460938,-1.177734 -2.2851563,-1.921875 -0.5332031,-0.75 -0.796875,-1.710937 -0.796875,-2.882812 0,-1.810547 0.7382813,-3.210938 2.2148438,-4.195313 1.4824219,-0.984375 3.4248047,-1.476562 5.8242188,-1.476562 1.303711,0 2.522461,0.125976 3.65625,0.375 1.130859,0.251953 2.194336,0.603515 3.1875,1.054687 l -1.207031,2.800781 c -0.908203,-0.36621 -1.851563,-0.682617 -2.835938,-0.949218 -0.984375,-0.272461 -1.998047,-0.410157 -3.0351561,-0.410157 -1.4472656,0 -2.5488281,0.234375 -3.3046875,0.703125 -0.758789,0.46875 -1.1367187,1.101563 -1.1367187,1.898438 0,0.585937 0.1699219,1.086914 0.515625,1.5 0.3427734,0.416016 0.9199219,0.817383 1.734375,1.207031 0.8203125,0.383789 1.9101562,0.840821 3.2695313,1.371094 1.359375,0.509766 2.519531,1.03125 3.480469,1.570312 0.960937,0.533204 1.690429,1.1777348 2.191406,1.9335942 0.506836,0.7587891 0.761719,1.7109375 0.761719,2.859375 z M 30.680133,-21.796783 c 2.607422,0 4.538086,0.574219 5.789063,1.722656 1.256836,1.142578 1.886719,2.964844 1.886719,5.472656 V 9.19375e-5 H 35.801227 L 35.12154,-3.0350643 h -0.164063 c -0.93164,1.171875 -1.910156,2.03906249 -2.941406,2.60156249 -1.025391,0.55371094 -2.443359,0.83203125 -4.253906,0.83203125 -1.945313,0 -3.559571,-0.50976563 -4.839844,-1.53515624 -1.283203,-1.03125 -1.921875,-2.6396484 -1.921875,-4.828125 0,-2.1328125 0.837891,-3.7763672 2.519531,-4.9335942 1.678711,-1.163085 4.265625,-1.795898 7.757813,-1.898437 l 3.644531,-0.117188 v -1.289062 c 0,-1.78125 -0.386719,-3.017578 -1.160156,-3.714844 -0.773438,-0.694336 -1.869141,-1.042969 -3.28125,-1.042969 -1.119141,0 -2.185547,0.169922 -3.199219,0.503907 -1.016602,0.336914 -1.962891,0.714843 -2.835938,1.136718 l -1.089843,-2.636718 c 0.9375,-0.506836 2.041992,-0.94043 3.316406,-1.300782 1.280273,-0.357421 2.616211,-0.539062 4.007812,-0.539062 z m 1.042969,11.4375 c -2.671875,0.111328 -4.520508,0.5390624 -5.542969,1.2890624 -1.02539,0.7441407 -1.535156,1.7929688 -1.535156,3.1523438 0,1.1953125 0.363281,2.0742187 1.089844,2.6367187 0.732422,0.5625 1.675781,0.84375 2.824219,0.84375 1.810547,0 3.316406,-0.4980468 4.511718,-1.5 1.201172,-0.9990234 1.804688,-2.5371093 1.804688,-4.6171875 v -1.9218754 z m 36.793945,-11.472656 c 2.428711,0 4.242188,0.621093 5.4375,1.863281 1.201172,1.236328 1.804688,3.240234 1.804688,6.011719 V 9.19375e-5 H 72.278766 V -13.792877 c 0,-3.389648 -1.453125,-5.085937 -4.359375,-5.085937 -2.080078,0 -3.568359,0.603515 -4.464844,1.804687 -0.890625,1.195313 -1.335937,2.941406 -1.335937,5.238281 V 9.19375e-5 H 58.638141 V -13.792877 c 0,-3.389648 -1.464844,-5.085937 -4.394531,-5.085937 -2.165039,0 -3.662109,0.667968 -4.488281,2.003906 -0.829102,1.330078 -1.242188,3.246094 -1.242188,5.753906 V 9.19375e-5 H 44.997516 V -21.433502 h 2.835938 l 0.527343,2.917969 h 0.199219 c 0.66211,-1.125 1.561524,-1.957031 2.695313,-2.496094 1.130859,-0.544922 2.33789,-0.820312 3.621093,-0.820312 3.357422,0 5.545899,1.201172 6.5625,3.597656 h 0.199219 c 0.717774,-1.224609 1.69336,-2.132813 2.929688,-2.71875 1.242187,-0.585938 2.557617,-0.878906 3.949218,-0.878906 z m 24.076172,0 c 2.639649,0 4.763672,0.919922 6.375,2.753906 1.617191,1.836914 2.425781,4.611328 2.425781,8.320312 0,3.6503911 -0.80859,6.4218754 -2.425781,8.3203129 -1.611328,1.89257816 -3.74707,2.83593754 -6.410156,2.83593754 -1.658203,0 -3.023437,-0.31347656 -4.101562,-0.9375 C 87.378376,-1.162994 86.528766,-1.8895565 85.913532,-2.7186581 h -0.234375 c 0.05273,0.4541016 0.105469,1.0283204 0.152344,1.72265629 0.05273,0.68847656 0.08203,1.28320312 0.08203,1.79296875 V 9.5977482 H 82.397907 V -21.433502 h 2.882812 l 0.480469,2.917969 h 0.152344 c 0.638672,-0.9375 1.479492,-1.722656 2.519531,-2.355469 1.045899,-0.638672 2.431641,-0.960937 4.160156,-0.960937 z m -0.632812,2.953125 c -2.188477,0 -3.732422,0.615234 -4.628906,1.839843 -0.890625,1.22754 -1.365235,3.09375 -1.417969,5.601563 v 0.679687 c 0,2.6425786 0.433594,4.6757817 1.300781,6.1054692 0.867188,1.4238281 2.475586,2.1328125 4.828125,2.1328125 1.303711,0 2.373047,-0.3574219 3.210938,-1.078125 0.84375,-0.7177734 1.470703,-1.6992188 1.886718,-2.9414063 0.413086,-1.2421875 0.621094,-2.6630859 0.621094,-4.2656254 0,-2.452148 -0.477539,-4.409179 -1.429687,-5.871093 -0.946289,-1.467774 -2.402344,-2.203125 -4.371094,-2.203125 z M 110.51412,9.19375e-5 h -3.51563 V -30.398346 h 3.51563 z M 119.12447,-29.472564 c 0.53027,0 1.00195,0.18164 1.41797,0.539062 0.41308,0.360352 0.62109,0.925781 0.62109,1.699219 0,0.744141 -0.20801,1.300781 -0.62109,1.675781 -0.41602,0.375 -0.8877,0.5625 -1.41797,0.5625 -0.58594,0 -1.08399,-0.1875 -1.48828,-0.5625 -0.39844,-0.375 -0.59766,-0.93164 -0.59766,-1.675781 0,-0.773438 0.19922,-1.338867 0.59766,-1.699219 0.40429,-0.357422 0.90234,-0.539062 1.48828,-0.539062 z m 1.71094,8.039062 V 9.19375e-5 h -3.51563 V -21.433502 Z m 17.12695,-0.398437 c 2.55469,0 4.48242,0.621093 5.78906,1.863281 1.3125,1.236328 1.96875,3.240234 1.96875,6.011719 V 9.19375e-5 H 142.2397 V -13.722564 c 0,-3.436524 -1.60254,-5.15625 -4.80468,-5.15625 -2.36719,0 -4.00782,0.667968 -4.92188,2.003906 -0.9082,1.330078 -1.35937,3.246094 -1.35937,5.753906 V 9.19375e-5 h -3.51563 V -21.433502 h 2.83594 l 0.52734,2.917969 h 0.19922 c 0.69434,-1.125 1.65527,-1.957031 2.88281,-2.496094 1.22461,-0.544922 2.51953,-0.820312 3.87891,-0.820312 z m 22.00195,0 c 1.40625,0 2.67481,0.266601 3.8086,0.796875 1.13965,0.533203 2.10937,1.344726 2.90625,2.4375 h 0.19922 l 0.48046,-2.835938 h 2.80079 V 0.36337319 c 0,3.06152341 -0.78223,5.36718751 -2.34375,6.91406251 -1.55567,1.546875 -3.97266,2.3203125 -7.25391,2.3203125 -3.14941,0 -5.72461,-0.4541016 -7.72266,-1.359375 v -3.234375 c 2.10938,1.1162109 4.74903,1.6757812 7.92188,1.6757812 1.83398,0 3.28125,-0.5390625 4.33594,-1.6171875 1.05468,-1.078125 1.58203,-2.5517578 1.58203,-4.41796871 v -0.84375 c 0,-0.31933594 0.0117,-0.77929688 0.0352,-1.38281249 0.0293,-0.6005859 0.0586,-1.0195313 0.082,-1.2539063 H 166.644 c -1.44727,2.15625004 -3.66211,3.23437504 -6.64453,3.23437504 -2.77441,0 -4.94238,-0.97265625 -6.50391,-2.91796874 -1.55566,-1.9453125 -2.33203,-4.6640625 -2.33203,-8.1562497 0,-3.413086 0.77637,-6.123047 2.33203,-8.132813 1.56153,-2.015625 3.71778,-3.023437 6.46875,-3.023437 z m 0.48047,2.953125 c -1.79004,0 -3.18164,0.714843 -4.17187,2.144531 -0.98438,1.423828 -1.47657,3.454102 -1.47657,6.09375 0,2.6425781 0.4834,4.6611328 1.45313,6.0585937 0.97559,1.4003906 2.39648,2.0976562 4.26562,2.0976562 2.16211,0 3.73829,-0.5771484 4.72266,-1.734375 0.98438,-1.1630859 1.47656,-3.0380859 1.47656,-5.625 v -0.8320309 c 0,-2.935547 -0.50976,-5.039063 -1.52343,-6.304688 -1.00782,-1.265625 -2.58985,-1.898437 -4.7461,-1.898437 z m 0,0"
       style="fill:#707372;fill-opacity:1;fill-rule:nonzero;stroke:none"
       aria-label="sampling"
       transform="matrix(1.3333333,0,0,1.3333333,1234.6752,1051.4882)" />
    <path
       id="path46"
       d="M 6.9143238,-2.745e-4 H 3.3986988 V -30.398712 h 3.515625 z M 21.838152,-21.797149 c 2.607422,0 4.538086,0.574218 5.789062,1.722656 1.256836,1.142578 1.886719,2.964844 1.886719,5.472656 V -2.745e-4 h -2.554687 l -0.679688,-3.0351562 h -0.164062 c -0.931641,1.171875 -1.910157,2.03906245 -2.941407,2.60156245 -1.02539,0.55371094 -2.443359,0.83203125 -4.253906,0.83203125 -1.945312,0 -3.55957,-0.50976562 -4.839844,-1.5351562 -1.283203,-1.03125 -1.921875,-2.6396485 -1.921875,-4.828125 0,-2.1328125 0.837891,-3.7763672 2.519532,-4.9335938 1.678711,-1.163086 4.265625,-1.795898 7.757812,-1.898437 l 3.644531,-0.117188 v -1.289062 c 0,-1.78125 -0.386718,-3.017579 -1.160156,-3.714844 -0.773437,-0.694336 -1.86914,-1.042969 -3.28125,-1.042969 -1.11914,0 -2.185547,0.169922 -3.199219,0.503906 -1.016601,0.336914 -1.96289,0.714844 -2.835937,1.136719 l -1.089844,-2.636719 c 0.9375,-0.506836 2.041992,-0.940429 3.316406,-1.300781 1.280274,-0.357422 2.616211,-0.539062 4.007813,-0.539062 z m 1.042969,11.4375 c -2.671875,0.111328 -4.520508,0.539062 -5.542969,1.289062 -1.025391,0.7441406 -1.535156,1.7929688 -1.535156,3.1523438 0,1.1953125 0.363281,2.0742187 1.089843,2.6367187 0.732422,0.5625 1.675782,0.84375 2.824219,0.84375 1.810547,0 3.316406,-0.4980469 4.511719,-1.5 1.201172,-0.9990234 1.804687,-2.5371094 1.804687,-4.6171875 v -1.921875 z m 20.4375,7.8749995 c 0.530273,0 1.078125,-0.041016 1.640625,-0.1289062 0.5625,-0.09375 1.013672,-0.1933594 1.359375,-0.3046875 v 2.6835937 c -0.375,0.18164063 -0.911133,0.328125 -1.605469,0.4453125 -0.688477,0.12304688 -1.353516,0.1875 -1.992188,0.1875 -1.125,0 -2.162109,-0.19335937 -3.105468,-0.57421875 C 38.669207,-0.56570419 37.904558,-1.242462 37.318621,-2.2033995 36.732683,-3.164337 36.439714,-4.5061339 36.439714,-6.2346495 V -18.715118 h -3.035156 v -1.6875 l 3.070313,-1.394531 1.40625,-4.558594 h 2.074218 v 4.921875 h 6.199219 v 2.71875 h -6.199219 v 12.3984373 c 0,1.3066406 0.310547,2.2705078 0.9375,2.8945312 0.632813,0.6269531 1.441407,0.9375 2.425782,0.9375 z M 58.88405,-21.832306 c 1.833985,0 3.413086,0.398438 4.734375,1.195313 1.31836,0.796875 2.332032,1.921875 3.035157,3.375 0.708984,1.453125 1.066406,3.152344 1.066406,5.097656 v 2.121094 H 53.036394 c 0.05273,2.4316404 0.673828,4.2773435 1.863281,5.5429685 1.186524,1.265625 2.847657,1.8984375 4.980469,1.8984375 1.359375,0 2.566406,-0.1230469 3.621094,-0.375 1.054687,-0.2578125 2.138672,-0.6240234 3.257812,-1.1015625 v 3.08203125 c -1.095703,0.47753906 -2.176757,0.82910156 -3.246093,1.0546875 C 62.44948,0.28390519 61.183855,0.398163 59.716082,0.398163 c -2.024414,0 -3.817383,-0.41015625 -5.378907,-1.23046875 -1.555664,-0.82617185 -2.765625,-2.06249995 -3.632812,-3.70312495 -0.867188,-1.640625 -1.300781,-3.647461 -1.300781,-6.0234373 0,-2.34375 0.389648,-4.353516 1.171875,-6.035156 0.788086,-1.678711 1.892578,-2.970704 3.316406,-3.878907 1.429687,-0.905273 3.09375,-1.359375 4.992187,-1.359375 z m -0.04687,2.871094 c -1.68164,0 -3.008789,0.544922 -3.984375,1.628906 -0.969726,1.078125 -1.546875,2.575196 -1.734375,4.488282 H 64.0403 c -0.03223,-1.810547 -0.46289,-3.28418 -1.289062,-4.417969 -0.820313,-1.13086 -2.126953,-1.699219 -3.914063,-1.699219 z m 24.644532,-2.871094 c 2.554687,0 4.482422,0.621094 5.789062,1.863282 1.3125,1.236328 1.96875,3.240234 1.96875,6.011718 V -2.745e-4 H 87.75905 V -13.722931 c 0,-3.436523 -1.602539,-5.15625 -4.804687,-5.15625 -2.367188,0 -4.007813,0.667969 -4.921875,2.003907 -0.908203,1.330078 -1.359375,3.246093 -1.359375,5.753906 V -2.745e-4 H 73.157488 V -21.433868 h 2.835937 l 0.527344,2.917969 h 0.199219 c 0.694336,-1.125 1.655273,-1.957032 2.882812,-2.496094 1.22461,-0.544922 2.519532,-0.820313 3.878907,-0.820313 z m 21.556638,19.3476565 c 0.53027,0 1.07812,-0.041016 1.64062,-0.1289062 0.5625,-0.09375 1.01368,-0.1933594 1.35938,-0.3046875 v 2.6835937 c -0.375,0.18164063 -0.91114,0.328125 -1.60546,0.4453125 -0.68848,0.12304688 -1.35353,0.1875 -1.99219,0.1875 -1.125,0 -2.16211,-0.19335937 -3.10547,-0.57421875 -0.9463,-0.38964844 -1.710945,-1.06640625 -2.296883,-2.02734375 -0.585937,-0.9609375 -0.878906,-2.3027344 -0.878906,-4.03125 V -18.715118 h -3.035156 v -1.6875 l 3.070312,-1.394531 1.40625,-4.558594 h 2.074223 v 4.921875 h 6.19921 v 2.71875 h -6.19921 v 12.3984373 c 0,1.3066406 0.31054,2.2705078 0.9375,2.8945312 0.63281,0.6269531 1.4414,0.9375 2.42578,0.9375 z M 3.9611988,50.000702 -4.1598949,28.567108 h 3.76171871 L 4.1604176,41.199921 c 0.2109375,0.585937 0.4365234,1.242187 0.6796875,1.96875 0.2402343,0.720703 0.4511718,1.40625 0.6328125,2.0625 0.1875,0.65039 0.3222656,1.201172 0.4101562,1.652344 H 6.0354176 C 6.143816,46.432343 6.2961598,45.872772 6.4924488,45.207733 6.6945973,44.536835 6.9201832,43.842499 7.1721363,43.121796 7.4299488,42.404022 7.6526051,41.762421 7.8401051,41.199921 L 12.398699,28.567108 h 3.761719 L 8.0041676,50.000702 Z M 27.844011,28.168671 c 1.833985,0 3.413086,0.398437 4.734375,1.195312 1.31836,0.796875 2.332032,1.921875 3.035157,3.375 0.708984,1.453125 1.066406,3.152344 1.066406,5.097657 v 2.121093 H 21.996355 c 0.05273,2.431641 0.673828,4.277344 1.863281,5.542969 1.186524,1.265625 2.847657,1.898438 4.980469,1.898438 1.359375,0 2.566406,-0.123047 3.621094,-0.375 1.054687,-0.257813 2.138672,-0.624024 3.257812,-1.101563 v 3.082031 c -1.095703,0.477539 -2.176757,0.829102 -3.246093,1.054688 -1.063477,0.225586 -2.329102,0.339844 -3.796875,0.339844 -2.024414,0 -3.817383,-0.410157 -5.378907,-1.230469 -1.555664,-0.826172 -2.765625,-2.0625 -3.632812,-3.703125 -0.867188,-1.640625 -1.300781,-3.647461 -1.300781,-6.023438 0,-2.34375 0.389648,-4.353515 1.171875,-6.035156 0.788086,-1.678711 1.892578,-2.970703 3.316406,-3.878906 1.429687,-0.905274 3.09375,-1.359375 4.992187,-1.359375 z m -0.04687,2.871094 c -1.68164,0 -3.008789,0.544921 -3.984375,1.628906 -0.969726,1.078125 -1.546875,2.575195 -1.734375,4.488281 h 10.921875 c -0.03223,-1.810547 -0.46289,-3.28418 -1.289062,-4.417969 -0.820313,-1.130859 -2.126953,-1.699218 -3.914063,-1.699218 z m 22.92187,19.359375 c -1.892578,0 -3.580078,-0.386719 -5.0625,-1.160157 -1.476562,-0.773437 -2.636718,-1.971679 -3.480468,-3.597656 -0.837891,-1.623047 -1.253907,-3.703125 -1.253907,-6.234375 0,-2.639648 0.436524,-4.787109 1.3125,-6.445312 0.881836,-1.655274 2.077149,-2.865235 3.585938,-3.632813 1.505859,-0.773437 3.216797,-1.160156 5.132812,-1.160156 1.092774,0 2.147461,0.114258 3.164063,0.339844 1.013672,0.228515 1.842773,0.498046 2.484375,0.808593 l -1.089844,2.929688 c -0.632812,-0.240235 -1.379883,-0.46875 -2.238281,-0.679688 -0.852539,-0.216797 -1.649414,-0.328125 -2.390625,-0.328125 -4.21875,0 -6.328125,2.707032 -6.328125,8.121094 0,2.586914 0.509765,4.567383 1.535156,5.941406 1.03125,1.376953 2.557617,2.0625 4.582031,2.0625 1.177735,0 2.214844,-0.120117 3.105469,-0.363281 0.890625,-0.240234 1.710938,-0.533203 2.460938,-0.878906 v 3.117187 c -0.720704,0.375 -1.511719,0.66211 -2.378907,0.855469 -0.867187,0.202149 -1.916015,0.304688 -3.140625,0.304688 z m 17.759766,-2.882813 c 0.530273,0 1.078125,-0.04102 1.640625,-0.128906 0.5625,-0.09375 1.013672,-0.19336 1.359375,-0.304688 v 2.683594 c -0.375,0.181641 -0.911133,0.328125 -1.605469,0.445313 -0.688476,0.123046 -1.353515,0.1875 -1.992187,0.1875 -1.125,0 -2.16211,-0.19336 -3.105469,-0.574219 -0.946289,-0.389649 -1.710938,-1.066406 -2.296875,-2.027344 -0.585938,-0.960937 -0.878906,-2.302734 -0.878906,-4.03125 V 31.285858 h -3.035157 v -1.6875 l 3.070313,-1.394531 1.40625,-4.558594 h 2.074219 v 4.921875 h 6.199218 v 2.71875 h -6.199218 v 12.398438 c 0,1.30664 0.310547,2.270508 0.9375,2.894531 0.632812,0.626953 1.441406,0.9375 2.425781,0.9375 z M 94.403582,39.24289 c 0,3.547851 -0.902344,6.292968 -2.707032,8.238281 -1.798828,1.945312 -4.230468,2.917969 -7.300781,2.917969 -1.892578,0 -3.580078,-0.433594 -5.0625,-1.300782 -1.476562,-0.867187 -2.642578,-2.132812 -3.492187,-3.796875 -0.852539,-1.664062 -1.277344,-3.682617 -1.277344,-6.058593 0,-3.544922 0.890625,-6.275391 2.671875,-8.191407 1.787109,-1.921875 4.21875,-2.882812 7.289062,-2.882812 1.945313,0 3.65625,0.433594 5.132813,1.300781 1.482422,0.861328 2.642578,2.109375 3.480469,3.75 0.84375,1.640625 1.265625,3.650391 1.265625,6.023438 z m -16.207032,0 c 0,2.53125 0.498047,4.541015 1.5,6.023437 0.999024,1.476563 2.592774,2.214844 4.78125,2.214844 2.16211,0 3.75,-0.738281 4.757813,-2.214844 1.013672,-1.482422 1.523437,-3.492187 1.523437,-6.023437 0,-2.53125 -0.509765,-4.514649 -1.523437,-5.953125 -1.007813,-1.444336 -2.607422,-2.167969 -4.792969,-2.167969 -2.188476,0 -3.779297,0.723633 -4.769531,2.167969 -0.984375,1.438476 -1.476563,3.421875 -1.476563,5.953125 z m 31.75781,-11.074219 c 0.4043,0 0.83789,0.02051 1.30078,0.05859 0.46875,0.04102 0.87305,0.09961 1.21875,0.175781 l -0.43359,3.234375 c -0.35156,-0.07617 -0.73535,-0.140625 -1.14844,-0.1875 -0.40722,-0.05273 -0.79687,-0.08203 -1.17187,-0.08203 -1.09571,0 -2.1211,0.301757 -3.08203,0.902343 -0.96094,0.594727 -1.73145,1.435547 -2.3086,2.519532 -0.57129,1.078125 -0.85547,2.33789 -0.85547,3.773437 v 11.4375 H 99.958269 V 28.567108 h 2.882811 l 0.39844,3.914063 h 0.16406 c 0.68555,-1.171875 1.57617,-2.182617 2.67188,-3.035156 1.09277,-0.84961 2.38476,-1.277344 3.8789,-1.277344 z m 0,0"
       style="fill:#a1be1f;fill-opacity:1;fill-rule:nonzero;stroke:none"
       aria-label="latent&#10;vector"
       transform="matrix(1.3333333,0,0,1.3333333,1651.0582,1142.0316)" />
    <path
       id="path47"
       d="m 13.395182,-21.83194 c 0.404297,0 0.83789,0.02051 1.300781,0.05859 0.46875,0.04102 0.873047,0.09961 1.21875,0.175781 l -0.433594,3.234375 c -0.351562,-0.07617 -0.735351,-0.140625 -1.148437,-0.1875 -0.407227,-0.05273 -0.796875,-0.08203 -1.171875,-0.08203 -1.095703,0 -2.121094,0.301758 -3.082031,0.902344 -0.960938,0.594726 -1.7314458,1.435547 -2.3085942,2.519531 -0.5712891,1.078125 -0.8554688,2.337891 -0.8554688,3.773438 V 9.15625e-5 H 3.399088 V -21.433502 h 2.8828125 l 0.3984375,3.914062 h 0.1640625 c 0.6855469,-1.171875 1.5761719,-2.182617 2.671875,-3.035156 1.0927735,-0.849609 2.3847655,-1.277344 3.8789065,-1.277344 z m 14.009765,0 c 1.833985,0 3.413086,0.398438 4.734375,1.195313 1.31836,0.796875 2.332032,1.921875 3.035157,3.375 0.708984,1.453125 1.066406,3.152344 1.066406,5.097656 v 2.121094 H 21.557291 c 0.05274,2.4316404 0.673828,4.2773436 1.863281,5.5429686 1.186524,1.265625 2.847657,1.8984375 4.980469,1.8984375 1.359375,0 2.566406,-0.1230469 3.621094,-0.375 1.054687,-0.2578125 2.138672,-0.6240235 3.257812,-1.1015625 v 3.08203121 c -1.095703,0.47753907 -2.176757,0.82910157 -3.246093,1.0546875 -1.063477,0.22558594 -2.329102,0.33984375 -3.796875,0.33984375 -2.024414,0 -3.817383,-0.41015625 -5.378907,-1.23046875 -1.555664,-0.82617191 -2.765625,-2.06250001 -3.632812,-3.70312501 -0.867188,-1.640625 -1.300781,-3.6474609 -1.300781,-6.0234373 0,-2.34375 0.389648,-4.353516 1.171875,-6.035156 0.788086,-1.678711 1.892578,-2.970704 3.316406,-3.878907 1.429687,-0.905273 3.09375,-1.359375 4.992187,-1.359375 z m -0.04687,2.871094 c -1.68164,0 -3.008789,0.544922 -3.984375,1.628906 -0.969726,1.078125 -1.546875,2.575196 -1.734375,4.488282 h 10.921875 c -0.03223,-1.810547 -0.46289,-3.28418 -1.289062,-4.417969 -0.820313,-1.13086 -2.126953,-1.699219 -3.914063,-1.699219 z m 22.92187,19.35937506 c -1.892578,0 -3.580078,-0.38671875 -5.0625,-1.16015625 -1.476562,-0.77343751 -2.636718,-1.97167971 -3.480468,-3.59765621 -0.837891,-1.6230469 -1.253907,-3.703125 -1.253907,-6.2343746 0,-2.639649 0.436524,-4.78711 1.3125,-6.445313 0.881836,-1.655273 2.077149,-2.865234 3.585938,-3.632812 1.505859,-0.773438 3.216797,-1.160157 5.132812,-1.160157 1.092774,0 2.147461,0.114258 3.164063,0.339844 1.013672,0.228516 1.842773,0.498047 2.484375,0.808594 l -1.089844,2.929687 c -0.632812,-0.240234 -1.379883,-0.46875 -2.238281,-0.679687 -0.852539,-0.216797 -1.649414,-0.328125 -2.390625,-0.328125 -4.21875,0 -6.328125,2.707031 -6.328125,8.121094 0,2.5869136 0.509766,4.5673824 1.535156,5.9414058 1.03125,1.3769531 2.557617,2.0625 4.582031,2.0625 1.177735,0 2.214844,-0.1201172 3.105469,-0.3632812 0.890625,-0.2402344 1.710938,-0.5332032 2.460938,-0.8789063 v 3.11718751 c -0.720703,0.375 -1.511719,0.66210938 -2.378907,0.85546875 -0.867187,0.20214844 -1.916015,0.3046875 -3.140625,0.3046875 z M 79.524088,-10.757721 c 0,3.5478516 -0.902344,6.2929688 -2.707031,8.2382813 -1.798828,1.94531251 -4.230469,2.91796876 -7.300781,2.91796876 -1.892579,0 -3.580079,-0.43359375 -5.0625,-1.30078125 -1.476563,-0.86718751 -2.642579,-2.13281251 -3.492188,-3.79687501 -0.852539,-1.6640625 -1.277344,-3.6826172 -1.277344,-6.0585938 0,-3.544922 0.890625,-6.275391 2.671875,-8.191406 1.78711,-1.921875 4.21875,-2.882813 7.289063,-2.882813 1.945312,0 3.65625,0.433594 5.132812,1.300782 1.482422,0.861328 2.642578,2.109375 3.480469,3.75 0.84375,1.640625 1.265625,3.65039 1.265625,6.023437 z m -16.207031,0 c 0,2.5312501 0.498047,4.5410157 1.5,6.0234376 0.999023,1.4765625 2.592773,2.2148437 4.78125,2.2148437 2.162109,0 3.75,-0.7382812 4.757812,-2.2148437 1.013672,-1.4824219 1.523438,-3.4921875 1.523438,-6.0234376 0,-2.53125 -0.509766,-4.514648 -1.523438,-5.953125 -1.007812,-1.444336 -2.607422,-2.167969 -4.792968,-2.167969 -2.188477,0 -3.779297,0.723633 -4.769532,2.167969 -0.984375,1.438477 -1.476562,3.421875 -1.476562,5.953125 z M 95.402994,-21.83194 c 2.554688,0 4.482422,0.621094 5.789066,1.863282 1.3125,1.236328 1.96875,3.240234 1.96875,6.011718 V 9.15625e-5 H 99.680338 V -13.722565 c 0,-3.436523 -1.602539,-5.15625 -4.804687,-5.15625 -2.367188,0 -4.007813,0.667969 -4.921875,2.003907 -0.908204,1.330078 -1.359375,3.246093 -1.359375,5.753906 V 9.15625e-5 H 85.078776 V -21.433502 h 2.835937 l 0.527344,2.917969 h 0.199219 c 0.694335,-1.125 1.655273,-1.957032 2.882812,-2.496094 1.224609,-0.544922 2.519531,-0.820313 3.878906,-0.820313 z m 28.353516,15.9140628 c 0,2.0800781 -0.77344,3.6533203 -2.32031,4.7226563 -1.54688,1.06347653 -3.62696,1.59374996 -6.23438,1.59374996 -1.49414,0 -2.7832,-0.12304687 -3.86719,-0.36328125 -1.07812,-0.234375 -2.0332,-0.56542968 -2.85937,-0.99609375 V -4.1600647 c 0.8584,0.4306641 1.89258,0.8261719 3.10547,1.1835938 1.20996,0.3603515 2.44336,0.5390625 3.70312,0.5390625 1.78125,0 3.07032,-0.2841797 3.86719,-0.8554688 0.80274,-0.5771484 1.20703,-1.3476562 1.20703,-2.3085937 0,-0.5302735 -0.14941,-1.0078125 -0.44531,-1.4296875 -0.29004,-0.4277344 -0.81445,-0.8583985 -1.57031,-1.2890625 -0.75879,-0.4277344 -1.84571,-0.9082032 -3.25782,-1.4414063 -1.3916,-0.5302738 -2.57812,-1.0605468 -3.5625,-1.5937498 -0.98437,-0.539063 -1.74609,-1.177735 -2.28515,-1.921875 -0.5332,-0.75 -0.79688,-1.710938 -0.79688,-2.882813 0,-1.810547 0.73828,-3.210937 2.21485,-4.195312 1.48242,-0.984375 3.4248,-1.476563 5.82422,-1.476563 1.30371,0 2.52246,0.125977 3.65625,0.375 1.13086,0.251953 2.19433,0.603516 3.1875,1.054688 l -1.20704,2.800781 c -0.9082,-0.366211 -1.85156,-0.682617 -2.83593,-0.949219 -0.98438,-0.272461 -1.99805,-0.410156 -3.03516,-0.410156 -1.44726,0 -2.54883,0.234375 -3.30469,0.703125 -0.75879,0.46875 -1.13672,1.101563 -1.13672,1.898438 0,0.585937 0.16993,1.086914 0.51563,1.5 0.34277,0.416015 0.91992,0.817382 1.73437,1.207031 0.82032,0.383789 1.91016,0.84082 3.26954,1.371094 1.35937,0.509765 2.51953,1.03125 3.48046,1.570312 0.96094,0.533203 1.69043,1.1777344 2.19141,1.9335938 0.50684,0.7587891 0.76172,1.7109375 0.76172,2.859375 z m 12.36328,3.4335938 c 0.53027,0 1.07813,-0.041016 1.64063,-0.1289063 0.5625,-0.09375 1.01367,-0.1933594 1.35937,-0.3046875 v 2.68359376 c -0.375,0.18164063 -0.91113,0.328125 -1.60547,0.4453125 -0.68847,0.12304688 -1.35351,0.1875 -1.99219,0.1875 -1.125,0 -2.1621,-0.19335937 -3.10546,-0.57421875 -0.94629,-0.38964843 -1.71094,-1.06640621 -2.29688,-2.02734371 -0.58594,-0.9609375 -0.87891,-2.3027344 -0.87891,-4.03125 V -18.714752 h -3.03515 v -1.6875 l 3.07031,-1.394531 1.40625,-4.558594 h 2.07422 v 4.921875 h 6.19922 v 2.71875 h -6.19922 v 12.3984373 c 0,1.3066406 0.31055,2.2705078 0.9375,2.8945313 0.63281,0.6269531 1.44141,0.9375 2.42578,0.9375 z M 153.39323,-21.83194 c 0.4043,0 0.83789,0.02051 1.30078,0.05859 0.46875,0.04102 0.87305,0.09961 1.21875,0.175781 l -0.43359,3.234375 c -0.35157,-0.07617 -0.73536,-0.140625 -1.14844,-0.1875 -0.40723,-0.05273 -0.79688,-0.08203 -1.17188,-0.08203 -1.0957,0 -2.12109,0.301758 -3.08203,0.902344 -0.96094,0.594726 -1.73144,1.435547 -2.30859,2.519531 -0.57129,1.078125 -0.85547,2.337891 -0.85547,3.773438 V 9.15625e-5 h -3.51563 V -21.433502 h 2.88282 l 0.39843,3.914062 h 0.16407 c 0.68554,-1.171875 1.57617,-2.182617 2.67187,-3.035156 1.09278,-0.849609 2.38477,-1.277344 3.87891,-1.277344 z m 24.44238,0.398438 V 9.15625e-5 H 174.9528 L 174.43717,-2.8358459 h -0.16406 c -0.68848,1.1191406 -1.64648,1.93945309 -2.87109,2.46093746 -1.22754,0.515625 -2.53711,0.7734375 -3.92578,0.7734375 -2.58692,0 -4.53223,-0.61523437 -5.83594,-1.85156246 -1.30664,-1.2421875 -1.95703,-3.2226563 -1.95703,-5.9414063 V -21.433502 h 3.55078 v 13.7929686 c 0,3.4160156 1.58789,5.1210937 4.76953,5.1210937 2.36719,0 4.01074,-0.6621094 4.93359,-1.9921875 0.91993,-1.3359375 1.38282,-3.2578125 1.38282,-5.7656248 v -11.15625 z m 15.4043,21.83203106 c -1.89258,0 -3.58008,-0.38671875 -5.0625,-1.16015625 -1.47656,-0.77343751 -2.63672,-1.97167971 -3.48047,-3.59765621 -0.83789,-1.6230469 -1.25391,-3.703125 -1.25391,-6.2343746 0,-2.639649 0.43653,-4.78711 1.3125,-6.445313 0.88184,-1.655273 2.07715,-2.865234 3.58594,-3.632812 1.50586,-0.773438 3.2168,-1.160157 5.13281,-1.160157 1.09278,0 2.14746,0.114258 3.16407,0.339844 1.01367,0.228516 1.84277,0.498047 2.48437,0.808594 l -1.08984,2.929687 c -0.63282,-0.240234 -1.37989,-0.46875 -2.23828,-0.679687 -0.85254,-0.216797 -1.64942,-0.328125 -2.39063,-0.328125 -4.21875,0 -6.32812,2.707031 -6.32812,8.121094 0,2.5869136 0.50976,4.5673824 1.53515,5.9414058 1.03125,1.3769531 2.55762,2.0625 4.58203,2.0625 1.17774,0 2.21485,-0.1201172 3.10547,-0.3632812 0.89063,-0.2402344 1.71094,-0.5332032 2.46094,-0.8789063 v 3.11718751 c -0.7207,0.375 -1.51172,0.66210938 -2.37891,0.85546875 -0.86718,0.20214844 -1.91601,0.3046875 -3.14062,0.3046875 z m 17.75976,-2.88281246 c 0.53028,0 1.07813,-0.041016 1.64063,-0.1289063 0.5625,-0.09375 1.01367,-0.1933594 1.35937,-0.3046875 v 2.68359376 c -0.375,0.18164063 -0.91113,0.328125 -1.60546,0.4453125 -0.68848,0.12304688 -1.35352,0.1875 -1.99219,0.1875 -1.125,0 -2.16211,-0.19335937 -3.10547,-0.57421875 -0.94629,-0.38964843 -1.71094,-1.06640621 -2.29688,-2.02734371 -0.58593,-0.9609375 -0.8789,-2.3027344 -0.8789,-4.03125 V -18.714752 h -3.03516 v -1.6875 l 3.07031,-1.394531 1.40625,-4.558594 h 2.07422 v 4.921875 h 6.19922 v 2.71875 h -6.19922 v 12.3984373 c 0,1.3066406 0.31055,2.2705078 0.9375,2.8945313 0.63282,0.6269531 1.44141,0.9375 2.42578,0.9375 z m 15.5625,-19.3476566 c 1.83399,0 3.41309,0.398438 4.73438,1.195313 1.31836,0.796875 2.33203,1.921875 3.03516,3.375 0.70898,1.453125 1.0664,3.152344 1.0664,5.097656 v 2.121094 h -14.68359 c 0.0527,2.4316404 0.67383,4.2773436 1.86328,5.5429686 1.18652,1.265625 2.84766,1.8984375 4.98047,1.8984375 1.35937,0 2.5664,-0.1230469 3.62109,-0.375 1.05469,-0.2578125 2.13867,-0.6240235 3.25781,-1.1015625 v 3.08203121 c -1.0957,0.47753907 -2.17675,0.82910157 -3.24609,1.0546875 -1.06348,0.22558594 -2.3291,0.33984375 -3.79687,0.33984375 -2.02442,0 -3.81739,-0.41015625 -5.37891,-1.23046875 -1.55567,-0.82617191 -2.76563,-2.06250001 -3.63281,-3.70312501 -0.86719,-1.640625 -1.30078,-3.6474609 -1.30078,-6.0234373 0,-2.34375 0.38964,-4.353516 1.17187,-6.035156 0.78809,-1.678711 1.89258,-2.970704 3.31641,-3.878907 1.42968,-0.905273 3.09375,-1.359375 4.99218,-1.359375 z m -0.0469,2.871094 c -1.68164,0 -3.00879,0.544922 -3.98438,1.628906 -0.96972,1.078125 -1.54687,2.575196 -1.73437,4.488282 h 10.92187 c -0.0322,-1.810547 -0.46289,-3.28418 -1.28906,-4.417969 -0.82031,-1.13086 -2.12695,-1.699219 -3.91406,-1.699219 z m 21.92871,19.35937506 c -2.67188,0 -4.81055,-0.92578125 -6.41016,-2.77734376 -1.59375,-1.8515625 -2.39062,-4.6171875 -2.39062,-8.2968753 0,-3.679687 0.80273,-6.457031 2.41406,-8.332031 1.61719,-1.880859 3.75586,-2.824219 6.42188,-2.824219 1.65527,0 3.00586,0.310547 4.05468,0.925782 1.05469,0.609375 1.91602,1.353515 2.58985,2.226562 h 0.23437 c -0.0234,-0.342773 -0.0703,-0.855469 -0.14062,-1.535156 -0.0645,-0.679688 -0.0937,-1.21875 -0.0937,-1.617188 v -8.566406 h 3.51562 V 9.15625e-5 H 255.8034 L 255.27604,-2.8827209 h -0.15234 c -0.6416,0.9082031 -1.49707,1.6816406 -2.56641,2.32031246 -1.06348,0.63867188 -2.43457,0.9609375 -4.11328,0.9609375 z m 0.55078,-2.91796876 c 2.26465,0 3.8584,-0.6152344 4.78125,-1.8515625 0.91992,-1.2421875 1.38281,-3.1171875 1.38281,-5.625 v -0.6445308 c 0,-2.663086 -0.44238,-4.705079 -1.32422,-6.128907 -0.87597,-1.429687 -2.50195,-2.144531 -4.875,-2.144531 -1.89257,0 -3.31347,0.755859 -4.26562,2.261719 -0.94629,1.5 -1.41797,3.521484 -1.41797,6.058594 0,2.5546871 0.47168,4.5410152 1.41797,5.9531246 0.95215,1.415039 2.38477,2.1210937 4.30078,2.1210937 z M 86.82194,20.528412 c 0.530273,0 1.001953,0.181641 1.417968,0.539062 0.413086,0.360352 0.621094,0.925782 0.621094,1.699219 0,0.744141 -0.208008,1.300781 -0.621094,1.675781 -0.416015,0.375 -0.887695,0.5625 -1.417968,0.5625 -0.585938,0 -1.083985,-0.1875 -1.488282,-0.5625 -0.398437,-0.375 -0.597656,-0.93164 -0.597656,-1.675781 0,-0.773437 0.199219,-1.338867 0.597656,-1.699219 0.404297,-0.357421 0.902344,-0.539062 1.488282,-0.539062 z m 1.710937,8.039062 V 50.001068 H 85.017252 V 28.567474 Z m 17.129883,-0.398437 c 2.55469,0 4.48242,0.621094 5.78906,1.863281 1.3125,1.236328 1.96875,3.240235 1.96875,6.011719 V 50.001068 H 109.9401 V 36.278412 c 0,-3.436524 -1.60254,-5.15625 -4.80468,-5.15625 -2.36719,0 -4.00782,0.667969 -4.92188,2.003906 -0.908202,1.330078 -1.359374,3.246094 -1.359374,5.753906 V 50.001068 H 95.338541 V 28.567474 h 2.835938 l 0.527343,2.917969 h 0.199219 c 0.694336,-1.125 1.655269,-1.957031 2.882809,-2.496094 1.22461,-0.544921 2.51953,-0.820312 3.87891,-0.820312 z m 24.5918,0 c 2.63965,0 4.76367,0.919922 6.375,2.753906 1.61718,1.836914 2.42578,4.611328 2.42578,8.320313 0,3.65039 -0.8086,6.421875 -2.42578,8.320312 -1.61133,1.892578 -3.74707,2.835938 -6.41016,2.835938 -1.6582,0 -3.02344,-0.313477 -4.10156,-0.9375 -1.07813,-0.624024 -1.92774,-1.350586 -2.54297,-2.179688 h -0.23438 c 0.0527,0.454102 0.10547,1.02832 0.15235,1.722656 0.0527,0.688477 0.082,1.283204 0.082,1.792969 v 8.800781 h -3.51563 v -31.03125 h 2.88282 l 0.48047,2.917969 h 0.15234 c 0.63867,-0.9375 1.47949,-1.722656 2.51953,-2.355469 1.0459,-0.638671 2.43164,-0.960937 4.16016,-0.960937 z m -0.63282,2.953125 c -2.18847,0 -3.73242,0.615234 -4.6289,1.839844 -0.89063,1.227539 -1.36524,3.09375 -1.41797,5.601562 v 0.679688 c 0,2.642578 0.43359,4.675781 1.30078,6.105468 0.86719,1.423829 2.47559,2.132813 4.82813,2.132813 1.30371,0 2.37304,-0.357422 3.21093,-1.078125 0.84375,-0.717774 1.47071,-1.699219 1.88672,-2.941406 0.41309,-1.242188 0.6211,-2.663086 0.6211,-4.265625 0,-2.452149 -0.47754,-4.40918 -1.42969,-5.871094 -0.94629,-1.467774 -2.40235,-2.203125 -4.3711,-2.203125 z m 32.95313,-2.554688 v 21.433594 h -2.88281 l -0.51563,-2.835937 h -0.16406 c -0.68848,1.11914 -1.64649,1.939453 -2.87109,2.460937 -1.22754,0.515625 -2.53711,0.773438 -3.92579,0.773438 -2.58691,0 -4.53222,-0.615235 -5.83593,-1.851563 -1.30664,-1.242187 -1.95703,-3.222656 -1.95703,-5.941406 V 28.567474 h 3.55078 v 13.792969 c 0,3.416016 1.58789,5.121094 4.76953,5.121094 2.36719,0 4.01074,-0.662109 4.93359,-1.992188 0.91992,-1.335937 1.38281,-3.257812 1.38281,-5.765625 v -11.15625 z m 13.96289,18.949219 c 0.53027,0 1.07812,-0.04101 1.64062,-0.128906 0.5625,-0.09375 1.01368,-0.193359 1.35938,-0.304688 v 2.683594 c -0.375,0.181641 -0.91113,0.328125 -1.60547,0.445313 -0.68848,0.123047 -1.35351,0.1875 -1.99219,0.1875 -1.125,0 -2.16211,-0.19336 -3.10547,-0.574219 -0.94628,-0.389649 -1.71093,-1.066406 -2.29687,-2.027344 -0.58594,-0.960937 -0.87891,-2.302734 -0.87891,-4.03125 V 31.286224 h -3.03515 v -1.6875 l 3.07031,-1.394531 1.40625,-4.558594 h 2.07422 v 4.921875 h 6.19922 v 2.71875 h -6.19922 v 12.398438 c 0,1.306641 0.31055,2.270508 0.9375,2.894531 0.63281,0.626953 1.4414,0.9375 2.42578,0.9375 z m 0,0"
       style="fill:#007b53;fill-opacity:1;fill-rule:nonzero;stroke:none"
       aria-label="reconstructed&#10;input"
       transform="matrix(1.3333333,0,0,1.3333333,2444.7179,1504.3553)" />
  </g>
</svg>
