<?xml version="1.0" encoding="utf-8"?>
<!-- Generator: Adobe Illustrator 27.6.1, SVG Export Plug-In . SVG Version: 6.00 Build 0)  -->
<svg version="1.1"
	 id="svg1" xmlns:svg="http://www.w3.org/2000/svg" xmlns:sodipodi="http://sodipodi.sourceforge.net/DTD/sodipodi-0.dtd" xmlns:inkscape="http://www.inkscape.org/namespaces/inkscape"
	 xmlns="http://www.w3.org/2000/svg" xmlns:xlink="http://www.w3.org/1999/xlink" x="0px" y="0px" viewBox="0 0 2799.9 1582.1"
	 style="enable-background:new 0 0 2799.9 1582.1;" xml:space="preserve">
<style type="text/css">
	.st0{fill:#DCD9DA;stroke:#000000;stroke-miterlimit:10;}
	.st1{fill:#18974C;stroke:#000000;stroke-width:3.823;stroke-linejoin:bevel;stroke-miterlimit:5.3333;}
	.st2{fill:#A1BE1F;stroke:#000000;stroke-width:3.823;stroke-linejoin:bevel;stroke-miterlimit:5.3333;}
	.st3{fill:#6D9EEB;stroke:#000000;stroke-width:0.9557;stroke-miterlimit:5.3333;}
	.st4{fill:#FFFFFF;stroke:#000000;stroke-width:3.823;stroke-linejoin:bevel;stroke-miterlimit:5.3333;}
	.st5{fill:#F4C61F;stroke:#000000;stroke-width:0.9557;stroke-miterlimit:5.3333;}
	.st6{fill:#007B53;stroke:#000000;stroke-width:3.823;stroke-linejoin:bevel;stroke-miterlimit:5.3333;}
	.st7{fill:#18974C;}
	.st8{fill:#A1BE1F;}
	.st9{fill:#707372;}
	.st10{fill:#007B53;}
</style>
<sodipodi:namedview  bordercolor="#000000" borderopacity="0.25" id="namedview1" inkscape:current-layer="g1" inkscape:cx="1401.111" inkscape:cy="787.70593" inkscape:deskcolor="#d1d1d1" inkscape:pagecheckerboard="0" inkscape:pageopacity="0.0" inkscape:showpageshadow="2" inkscape:window-height="1056" inkscape:window-maximized="1" inkscape:window-width="1728" inkscape:window-x="0" inkscape:window-y="33" inkscape:zoom="0.14916734" pagecolor="#ffffff">
	<inkscape:page  bleed="0" height="1582.1157" id="page1" inkscape:label="1" margin="0" width="2799.8926" x="0" y="0">
		</inkscape:page>
</sodipodi:namedview>
<g>
	<rect class="st0" width="2799.9" height="1582.1"/>
	<g id="g1" inkscape:groupmode="layer" inkscape:label="1">
		<path id="path1" class="st1" d="M76.7,205.6h171.2v171.2H76.7V205.6z"/>
		<path id="path2" class="st1" d="M76.7,376.8h171.2v171.2H76.7V376.8z"/>
		<path id="path3" class="st1" d="M76.7,547.9h171.2v171.2H76.7V547.9z"/>
		<path id="path4" class="st1" d="M76.7,719.1h171.2v171.2H76.7V719.1z"/>
		<path id="path5" class="st1" d="M76.7,890.3h171.2v171.2H76.7V890.3z"/>
		<path id="path6" class="st1" d="M76.7,1061.5h171.2v171.2H76.7V1061.5z"/>
		<path id="path7" class="st1" d="M76.7,1232.7h171.2v171.2H76.7V1232.7z"/>
		<path id="path8" class="st2" d="M932,633.5h171.2v171.2H932V633.5z"/>
		<path id="path9" class="st2" d="M932,804.7h171.2v171.2H932V804.7z"/>
		<g id="g9" transform="matrix(1.3333333,0,0,1.3333333,953.79481,724.33982)">
			<path id="path10" d="M44.9-2.1c-1,2.1-1.8,3.2-2.3,3.2c-0.2,0-0.4-0.2-0.4-0.4c0-0.2,0-0.4,0.3-1.2l4.1-16h-5.2l-2.3,8.8
				c-0.9,2.5-1.4,3.5-2.7,5.5c-1.3,2-1.9,2.6-2.7,2.6c-0.5,0-0.7-0.3-0.7-0.9c0-0.3,0-0.3,0.3-1.2l3.8-14.8h-5.2l-3,11.7
				c-0.5,1.7-0.9,3.4-1.3,5.1c-0.5,1.6-0.8,2.7-1,3.3c-0.1,0.2-0.4,0.9-0.9,1.9c-1,2-1.3,3.3-1.3,4.5c0,1.5,1,2.6,2.4,2.6
				s2.6-1.1,2.6-2.4c0-0.5,0-1.1-0.2-1.6c-0.3-1.5-0.4-2.5-0.4-3.9c0-0.5,0-0.9,0.1-1.7c0.5,0.9,1,1.2,1.8,1.2
				c1.9,0,3.4-1.3,6.9-5.9c-0.2,0.7-0.3,1.3-0.5,1.7c-0.3,0.9-0.4,1.7-0.4,2.3c0,1.1,1,2,2.4,2c2.6,0,4.9-2.1,6.7-5.9L44.9-2.1z"/>
			<path id="path11" d="M68.3,7.4c-1.8,2.3-2.2,2.7-3.1,2.7c-0.9,0-1.3-0.6-1.7-2.4l-1.5-7.2c0.1-0.2,0.2-0.3,0.4-0.6
				c1.6-2.7,2.8-3.8,3.8-3.8c0.3,0,0.6,0.1,1.2,0.4c0.6,0.4,1,0.5,1.5,0.5c1.4,0,2.6-1.1,2.6-2.4c0-1.5-1.2-2.8-2.7-2.8
				c-2.2,0-3.6,1.2-7.2,6.3c-0.8-4-1.2-5.1-2.1-6.3l-7.7,1.1v1.2c0.8-0.1,1.1-0.1,1.6-0.1c1.5,0,2.1,0.8,2.6,3.1l1.4,7.1l-2,3.2
				c-0.9,1.5-1.4,1.9-2.2,1.9c-0.3,0-0.5-0.1-1-0.4c-0.7-0.4-1.2-0.6-1.8-0.6c-1.4,0-2.5,1.1-2.5,2.6c0,1.6,1.2,2.7,2.9,2.7
				c2.3,0,3.3-0.9,6-5.3l1.1-1.8c1,5.3,2.2,7.1,4.4,7.1c2.2,0,4.1-1.6,6.9-5.6L68.3,7.4z"/>
			<path id="path12" d="M50.5,112.1h-10c-5,0-7.1,0.6-9.7,2.6c-3.3,2.6-5.4,6.9-5.4,10.9c0,4.5,3,7.4,7.6,7.4
				c6.8,0,12.6-5.2,12.6-11.2c0-1.7-0.6-3.3-1.6-4.2c-0.6-0.5-1.2-0.8-2.4-1.2h7.9L50.5,112.1z M39.6,116.3c0.5,1.1,0.7,1.7,0.7,2.8
				c0,2.4-0.9,6.2-2.1,8.8c-1.1,2.5-2.4,3.6-4.2,3.6c-2,0-3.2-1.4-3.2-3.6c0-3.7,1.5-8.6,3.1-10.1c1.2-1.1,2.3-1.4,4.6-1.4
				L39.6,116.3z"/>
			<path id="path13" d="M67.2,136c-1.8,2.3-2.2,2.7-3.1,2.7c-0.9,0-1.3-0.6-1.7-2.4l-1.5-7.2c0.1-0.2,0.2-0.3,0.4-0.6
				c1.6-2.7,2.8-3.8,3.8-3.8c0.3,0,0.6,0.1,1.2,0.4c0.6,0.4,1,0.5,1.5,0.5c1.4,0,2.6-1.1,2.6-2.4c0-1.5-1.2-2.8-2.7-2.8
				c-2.2,0-3.6,1.2-7.2,6.3c-0.8-4-1.2-5.1-2.1-6.3l-7.7,1.1v1.2c0.8-0.1,1.1-0.1,1.6-0.1c1.5,0,2.1,0.8,2.6,3.1l1.4,7.1l-2,3.2
				c-0.9,1.5-1.4,1.9-2.2,1.9c-0.3,0-0.5-0.1-1-0.4c-0.7-0.4-1.2-0.6-1.8-0.6c-1.4,0-2.5,1.1-2.5,2.6c0,1.6,1.2,2.7,2.9,2.7
				c2.3,0,3.3-0.9,6-5.3l1.1-1.8c1,5.3,2.2,7.1,4.4,7.1c2.2,0,4.1-1.6,6.9-5.6L67.2,136z"/>
		</g>
		<path id="path14" class="st3" d="M299.5,412.8L880,573.1l0.5,462.5l-580.8,161L299.5,412.8z"/>
		<path id="path15" d="M476.2,781.7h-28.5v-51h28.5v5.6h-22v15.9h20.8v5.6h-20.8v18.2h22V781.7z M505,742.8c4.6,0,8,1.1,10.3,3.3
			c2.3,2.2,3.5,5.8,3.5,10.7v24.9h-6.2v-24.5c0-6.1-2.9-9.2-8.6-9.2c-4.2,0-7.2,1.2-8.8,3.6c-1.6,2.4-2.4,5.8-2.4,10.3v19.8h-6.3
			v-38.3h5.1l0.9,5.2h0.4c1.2-2,2.9-3.5,5.1-4.5C500.2,743.2,502.5,742.8,505,742.8z M546,782.4c-3.4,0-6.4-0.7-9-2.1
			c-2.6-1.4-4.7-3.5-6.2-6.4c-1.5-2.9-2.2-6.6-2.2-11.1c0-4.7,0.8-8.5,2.3-11.5c1.6-2.9,3.7-5.1,6.4-6.5c2.7-1.4,5.7-2.1,9.2-2.1
			c1.9,0,3.8,0.2,5.6,0.6c1.8,0.4,3.3,0.9,4.4,1.4l-1.9,5.2c-1.1-0.4-2.5-0.8-4-1.2c-1.5-0.4-2.9-0.6-4.3-0.6
			c-7.5,0-11.3,4.8-11.3,14.5c0,4.6,0.9,8.1,2.7,10.6c1.8,2.4,4.6,3.7,8.2,3.7c2.1,0,3.9-0.2,5.5-0.6c1.6-0.4,3.1-1,4.4-1.6v5.6
			c-1.3,0.7-2.7,1.2-4.2,1.5C550.1,782.3,548.2,782.4,546,782.4z M598.2,762.5c0,6.3-1.6,11.2-4.8,14.7c-3.2,3.5-7.5,5.2-13,5.2
			c-3.4,0-6.4-0.8-9-2.3c-2.6-1.6-4.7-3.8-6.2-6.8c-1.5-3-2.3-6.6-2.3-10.8c0-6.3,1.6-11.2,4.8-14.6c3.2-3.4,7.5-5.1,13-5.1
			c3.5,0,6.5,0.8,9.2,2.3c2.6,1.5,4.7,3.8,6.2,6.7C597.4,754.7,598.2,758.3,598.2,762.5z M569.3,762.5c0,4.5,0.9,8.1,2.7,10.8
			c1.8,2.6,4.6,4,8.5,4c3.9,0,6.7-1.3,8.5-4c1.8-2.6,2.7-6.2,2.7-10.8c0-4.5-0.9-8.1-2.7-10.6c-1.8-2.6-4.7-3.9-8.6-3.9
			c-3.9,0-6.7,1.3-8.5,3.9C570.1,754.5,569.3,758,569.3,762.5z M621.6,782.4c-4.8,0-8.6-1.7-11.4-5c-2.8-3.3-4.3-8.2-4.3-14.8
			c0-6.6,1.4-11.5,4.3-14.9c2.9-3.4,6.7-5,11.5-5c2.9,0,5.4,0.5,7.2,1.6c1.9,1.1,3.4,2.4,4.6,4h0.4c-0.1-0.6-0.1-1.5-0.3-2.7
			c-0.1-1.2-0.2-2.2-0.2-2.9v-15.3h6.3v54.2h-5.1l-0.9-5.1h-0.3c-1.1,1.6-2.7,3-4.6,4.1C627.1,781.9,624.6,782.4,621.6,782.4z
			 M622.6,777.2c4,0,6.9-1.1,8.5-3.3c1.6-2.2,2.5-5.6,2.5-10v-1.1c0-4.8-0.8-8.4-2.4-10.9c-1.6-2.5-4.5-3.8-8.7-3.8
			c-3.4,0-5.9,1.3-7.6,4c-1.7,2.7-2.5,6.3-2.5,10.8c0,4.6,0.8,8.1,2.5,10.6C616.7,776,619.2,777.2,622.6,777.2z M666.7,742.8
			c3.3,0,6.1,0.7,8.5,2.1c2.4,1.4,4.2,3.4,5.4,6c1.3,2.6,1.9,5.6,1.9,9.1v3.8h-26.2c0.1,4.3,1.2,7.6,3.3,9.9
			c2.1,2.3,5.1,3.4,8.9,3.4c2.4,0,4.6-0.2,6.5-0.7c1.9-0.4,3.8-1.1,5.8-2v5.5c-2,0.9-3.9,1.5-5.8,1.9c-1.9,0.4-4.2,0.6-6.8,0.6
			c-3.6,0-6.8-0.7-9.6-2.2c-2.8-1.5-5-3.7-6.5-6.6c-1.5-2.9-2.3-6.5-2.3-10.8c0-4.2,0.7-7.8,2.1-10.8c1.4-3,3.4-5.3,5.9-6.9
			C660.4,743.6,663.4,742.8,666.7,742.8z M666.7,747.9c-3,0-5.4,1-7.1,2.9c-1.7,1.9-2.8,4.6-3.1,8H676c-0.1-3.2-0.8-5.9-2.3-7.9
			C672.2,748.9,669.9,747.9,666.7,747.9L666.7,747.9z M710.1,742.8c0.7,0,1.5,0,2.3,0.1c0.8,0.1,1.6,0.2,2.2,0.3l-0.8,5.8
			c-0.6-0.1-1.3-0.3-2-0.3c-0.7-0.1-1.4-0.1-2.1-0.1c-2,0-3.8,0.5-5.5,1.6c-1.7,1.1-3.1,2.6-4.1,4.5c-1,1.9-1.5,4.2-1.5,6.7v20.4
			h-6.3v-38.3h5.1l0.7,7h0.3c1.2-2.1,2.8-3.9,4.8-5.4C705.1,743.5,707.4,742.8,710.1,742.8z"/>
		<g id="g15" transform="matrix(1.3333333,0,0,1.3333333,383.34444,870.34055)">
			<path id="path16" d="M57.9-7.5c-2.1,3.2-3.4,4.2-5.4,4.2c-1.9,0-2.9-1.3-2.9-3.8c0-0.7,0.1-1.3,0.3-2.2c4.8-0.9,7-1.9,9.3-4
				c1.6-1.5,2.5-3.2,2.5-4.8c0-2.3-2-4-4.8-4c-6.7,0-13.2,7.5-13.2,15c0,3.9,2.9,6.7,6.9,6.7c3.5,0,6-1.8,8.7-6.3L57.9-7.5z
				 M50.2-10.8c1.7-6.4,3.8-9.9,6-9.9c0.9,0,1.3,0.5,1.3,1.6c0,2-0.8,4-2.2,5.5C53.9-12.3,52.8-11.7,50.2-10.8z"/>
			<path id="path17" d="M80.1-22.6c-4.9,0-8.4,3.7-10.8,11.1C68-7.5,67-2.2,67,0.5c0,5.2,2.2,8,6.3,8c4,0,7.5-2.7,9.5-7.2
				c2.1-4.8,3.8-11.9,3.8-16.2c0-2.3-0.5-4.4-1.5-5.6C84-22,82.6-22.6,80.1-22.6z M80.3-7.2C79-1.7,78.1,1.1,77.2,3.5
				c-0.9,2.2-2.2,3.4-3.5,3.4c-1.2,0-2-1.1-2-3c0-2.5,0.4-4.5,1.9-11.2H80.3z M73.9-9c2.3-9.4,3.6-12.1,6.1-12.1
				c1.2,0,1.9,1.1,1.9,3c0,2.5-0.3,4.5-1.3,9.1H73.9z"/>
			<path id="path18" d="M102.5-32.4c-7,5.1-9.7,8.1-11.8,12.9c-1.2,2.8-1.8,5.7-1.8,9c0,6.3,1.9,11.4,6.5,17.7l1.1-0.7
				c-2.5-4.5-3.3-7.2-3.3-12.6c0-5.9,1.1-11.8,3.1-16.2c1.7-3.7,3.3-5.9,7.1-9.3L102.5-32.4z M121.2-6.7c-1.8,2.3-2.2,2.7-3.1,2.7
				c-0.9,0-1.3-0.6-1.7-2.4l-1.5-7.2c0.1-0.2,0.2-0.3,0.4-0.6c1.6-2.7,2.8-3.8,3.8-3.8c0.3,0,0.6,0.1,1.2,0.4c0.6,0.4,1,0.5,1.5,0.5
				c1.4,0,2.6-1.1,2.6-2.4c0-1.5-1.2-2.8-2.7-2.8c-2.2,0-3.6,1.2-7.2,6.3c-0.8-4-1.2-5.1-2.1-6.3l-7.7,1.1v1.2
				c0.8-0.1,1.1-0.1,1.6-0.1c1.5,0,2.1,0.8,2.6,3.1l1.4,7.1l-2,3.2c-0.9,1.5-1.4,1.9-2.2,1.9c-0.3,0-0.5-0.1-1-0.4
				c-0.7-0.4-1.2-0.6-1.8-0.6c-1.4,0-2.5,1.1-2.5,2.6c0,1.6,1.2,2.7,2.9,2.7c2.3,0,3.3-0.9,6-5.3l1.1-1.8c1,5.3,2.2,7.1,4.4,7.1
				c2.2,0,4.1-1.6,6.9-5.6L121.2-6.7z M124.5,7.2c5.4-3.9,7.7-6.1,10-9.7c2.4-3.7,3.6-7.8,3.6-12.2c0-3.4-0.7-7-2.2-10.4
				c-1.1-2.5-2-4.1-4.4-7.3l-1.1,0.7c2.5,4.1,3.3,7.2,3.3,12.4c0,6.1-1.5,13.1-3.8,17.7c-1.5,2.9-2.9,4.7-6.4,7.9L124.5,7.2z"/>
		</g>
		<path id="path19" class="st4" d="M1156.3,651.5h428v306.4h-428V651.5z"/>
		<g id="g19" transform="matrix(1.3333333,0,0,1.3333333,1228.1492,817.74248)">
			<path id="path20" d="M15.8-10.5l1.1,0.1c0.6-1.7,1.2-2.3,2.4-2.3h5.5L13.7,0.8l1,0.8l0.4-0.3c0.4-0.3,0.6-0.4,0.6-0.4
				c0.4-0.3,0.6-0.3,0.9-0.3c0.8,0,1.5,0.3,2.8,1.3c2,1.4,3.4,1.9,5,1.9c2.3,0,4.1-1.5,4.1-3.5c0-1.1-1-2-2-2c-1,0-1.9,0.9-1.9,2
				c0,0.4,0.1,0.8,0.5,1.2c0.2,0.3,0.3,0.4,0.3,0.6c0,0.3-0.3,0.6-0.8,0.6c-0.7,0-1.2-0.5-1.8-1.8c-1.2-2.3-2.1-3.2-4.1-4.1L29.4-16
				v-0.4H17.5L15.8-10.5z M47.9-11.3c-1,1.3-1.7,1.7-2.6,1.7c-0.7,0-1.3-0.2-3.2-1c-3-1.3-3.9-1.6-5.3-1.6c-1.9,0-3.4,1-4.7,3.2
				l2.1,1.8c0.9-1.2,1.5-1.6,2.7-1.6c1.3,0,2.5,0.4,4.3,1.3c1.8,1,2.8,1.3,4.1,1.3c1.8,0,2.9-0.8,4.7-3.2L47.9-11.3z"/>
			<path id="path21" d="M70.2,3.3c-0.4-3-0.7-5.3-0.9-7.1c-0.1-1.8-0.2-3.3-0.2-4.7c0-3.7,0.6-6.8,2-9.3c-0.1,1.1-0.4,2.2-0.9,3.1
				c-0.5,0.9-1,1.8-1.4,2.7L65.9-6c-1.4,2.8-3,4.9-4.9,6.4c-1.9,1.4-3.9,2.2-6.1,2.2c-1.6,0-2.8-0.4-3.8-1.3c-0.9-0.9-1.4-2-1.4-3.4
				c0-1.2,0.4-2.3,1.3-3.1c0.9-0.9,1.9-1.3,3.2-1.3c1.1,0,1.9,0.3,2.6,0.8c0.6,0.5,1,1.2,1,2c0,1-0.3,1.6-1,2
				c-0.6,0.3-1.4,0.6-2.4,0.8c-0.5,0.1-0.7,0.2-0.7,0.3s0.1,0.2,0.3,0.3c0.2,0.2,0.6,0.2,1,0.2c1.5,0,3-0.6,4.5-1.9
				c1.5-1.3,3.3-4.1,5.3-8.4c1.1-2.2,2.1-4.1,3-5.7c0.9-1.6,1.8-2.9,2.6-3.9c1.7-2.1,3-3.1,3.9-3.1c0.4,0,0.7,0.1,1.1,0.3
				c0.3,0.2,0.5,0.5,0.5,1c0,0.2,0,0.4-0.1,0.6c-0.1,0.2-0.1,0.5-0.2,0.6c-0.1,0.6-0.2,1.3-0.3,2.2c-0.1,0.8-0.2,1.6-0.2,2.3
				c0,0.7-0.1,1.2-0.1,1.5c0,1.8,0,3.4,0.1,4.8c0.1,1.5,0,2.3-0.2,2.3l1.3-4c0.6-1.3,1.1-2.5,1.6-3.5c0.5-1,0.9-1.7,1.3-2.2
				c0.9-1.2,2-1.8,3.2-1.8c0.7,0,1.3,0.2,1.7,0.5c0.5,0.3,0.7,0.9,0.7,1.4c0,1.1-0.9,1.8-2.7,2.2c-0.6,0.1-1.3,0.6-1.9,1.6
				c-0.6,0.9-1.2,2.1-1.8,3.6c-0.4,1-0.8,2.1-1.3,3.3c-0.5,1.2-0.9,2.3-1.3,3.4l0.4,3.4L70.2,3.3z"/>
			<path id="path22" d="M99.2-25.5c-5.8,4.3-8.1,6.8-9.9,10.7c-1,2.3-1.5,4.8-1.5,7.5c0,5.2,1.6,9.5,5.4,14.8L94.2,7
				c-2.1-3.7-2.7-6-2.7-10.5c0-4.9,1-9.8,2.6-13.5c1.4-3.1,2.8-4.9,5.9-7.7L99.2-25.5z"/>
			<path id="path23" d="M116.5-4.2c-0.8,1.7-1.5,2.7-1.9,2.7c-0.2,0-0.3-0.2-0.3-0.3c0-0.2,0-0.4,0.2-1l3.4-13.3h-4.4l-1.9,7.3
				c-0.8,2.1-1.2,2.9-2.3,4.5c-1.1,1.7-1.6,2.2-2.3,2.2c-0.4,0-0.6-0.2-0.6-0.7c0-0.3,0-0.3,0.2-1l3.2-12.3h-4.4l-2.5,9.7
				c-0.4,1.4-0.8,2.9-1.1,4.3c-0.4,1.4-0.6,2.3-0.8,2.8c-0.1,0.2-0.3,0.8-0.7,1.6c-0.8,1.7-1.1,2.8-1.1,3.8c0,1.3,0.8,2.1,2,2.1
				c1.2,0,2.1-0.9,2.1-2c0-0.4,0-0.9-0.2-1.4c-0.2-1.3-0.3-2.1-0.3-3.3c0-0.5,0-0.8,0.1-1.4c0.5,0.8,0.8,1,1.5,1
				c1.6,0,2.9-1.1,5.7-4.9c-0.2,0.6-0.3,1.1-0.4,1.4c-0.2,0.8-0.3,1.5-0.3,1.9c0,1,0.8,1.6,2,1.6c2.1,0,4.1-1.7,5.5-4.9L116.5-4.2z"
				/>
			<path id="path24" d="M136.1,3.7c-1.5,1.9-1.9,2.3-2.6,2.3c-0.7,0-1.1-0.5-1.4-2l-1.2-6c0.1-0.1,0.2-0.2,0.3-0.5
				c1.3-2.2,2.3-3.1,3.2-3.1c0.2,0,0.5,0.1,1,0.3c0.5,0.3,0.8,0.4,1.2,0.4c1.1,0,2.1-0.9,2.1-2c0-1.2-1-2.3-2.2-2.3
				c-1.8,0-3,1-6,5.3c-0.7-3.3-1-4.2-1.7-5.3l-6.4,0.9v1c0.7-0.1,1-0.1,1.3-0.1c1.2,0,1.8,0.7,2.2,2.6L127,1l-1.7,2.7
				c-0.8,1.3-1.2,1.6-1.8,1.6c-0.2,0-0.4-0.1-0.8-0.3c-0.6-0.3-1-0.5-1.5-0.5c-1.2,0-2.1,0.9-2.1,2.1c0,1.3,1,2.3,2.4,2.3
				c1.9,0,2.8-0.8,5-4.4l0.9-1.5c0.9,4.4,1.8,5.9,3.7,5.9c1.8,0,3.4-1.3,5.8-4.7L136.1,3.7z M138.1,7.7c4.4-1.9,7.3-5.2,7.3-8.3
				c0-2.3-1.3-3.7-3.2-3.7c-1.6,0-2.7,1.2-2.7,2.8c0,1,0.4,1.6,1.5,2.4c0.9,0.6,1.1,1,1.1,1.5c0,1.4-1.5,2.9-4.5,4.5L138.1,7.7z"/>
			<path id="path25" d="M171.4-16.2H163c-4.1,0-5.9,0.5-8.1,2.1c-2.7,2.1-4.5,5.7-4.5,9.1c0,3.8,2.5,6.2,6.3,6.2
				c5.6,0,10.5-4.4,10.5-9.4c0-1.4-0.5-2.7-1.3-3.5c-0.5-0.5-1-0.7-2-1h6.6L171.4-16.2z M162.3-12.7c0.5,0.9,0.6,1.4,0.6,2.3
				c0,2-0.8,5.2-1.8,7.3c-1,2.1-2,3-3.5,3c-1.6,0-2.7-1.1-2.7-3c0-3.1,1.3-7.2,2.6-8.5c1-0.9,1.9-1.2,3.9-1.2H162.3z"/>
			<path id="path26" d="M185.3,3.7c-1.5,1.9-1.9,2.3-2.6,2.3c-0.7,0-1.1-0.5-1.4-2l-1.2-6c0.1-0.1,0.2-0.2,0.3-0.5
				c1.3-2.2,2.3-3.1,3.2-3.1c0.2,0,0.5,0.1,1,0.3c0.5,0.3,0.8,0.4,1.2,0.4c1.1,0,2.1-0.9,2.1-2c0-1.2-1-2.3-2.2-2.3
				c-1.8,0-3,1-6,5.3c-0.7-3.3-1-4.2-1.7-5.3l-6.4,0.9v1c0.7-0.1,1-0.1,1.3-0.1c1.2,0,1.8,0.7,2.2,2.6l1.1,5.9l-1.7,2.7
				c-0.8,1.3-1.2,1.6-1.8,1.6c-0.2,0-0.4-0.1-0.8-0.3c-0.6-0.3-1-0.5-1.5-0.5c-1.2,0-2.1,0.9-2.1,2.1c0,1.3,1,2.3,2.4,2.3
				c1.9,0,2.8-0.8,5-4.4l0.9-1.5c0.9,4.4,1.8,5.9,3.7,5.9c1.8,0,3.4-1.3,5.8-4.7L185.3,3.7z M188.1,7.6c4.5-3.2,6.4-5.1,8.4-8.1
				c2-3.1,3-6.5,3-10.2c0-2.8-0.6-5.8-1.8-8.6c-0.9-2.1-1.7-3.4-3.7-6.1l-0.9,0.6c2.1,3.4,2.8,6,2.8,10.4c0,5.1-1.2,10.9-3.1,14.7
				c-1.2,2.5-2.4,3.9-5.3,6.6L188.1,7.6z"/>
		</g>
		<path id="path27" class="st5" d="M2441.1,412.8l-580.5,160.3l-0.5,462.5l580.9,161L2441.1,412.8z"/>
		<path id="path28" d="M2045.2,756.1c0,8.6-2.3,15.1-7,19.5c-4.7,4.4-11.2,6.5-19.6,6.5h-14.2v-51h15.7c5.1,0,9.6,1,13.3,2.9
			c3.8,1.9,6.7,4.7,8.7,8.4C2044.2,746,2045.2,750.6,2045.2,756.1z M2038.5,756.3c0-6.8-1.7-11.8-5-14.9c-3.4-3.2-8.1-4.7-14.2-4.7
			h-8.3v40h6.9C2031.6,776.6,2038.5,769.8,2038.5,756.3z M2070.4,743.1c3.3,0,6.1,0.7,8.5,2.1c2.4,1.4,4.2,3.4,5.4,6
			c1.3,2.6,1.9,5.6,1.9,9.1v3.8H2060c0.1,4.3,1.2,7.6,3.3,9.9c2.1,2.3,5.1,3.4,8.9,3.4c2.4,0,4.6-0.2,6.5-0.7c1.9-0.4,3.8-1.1,5.8-2
			v5.5c-2,0.9-3.9,1.5-5.8,1.9c-1.9,0.4-4.2,0.6-6.8,0.6c-3.6,0-6.8-0.7-9.6-2.2c-2.8-1.5-5-3.7-6.5-6.6c-1.5-2.9-2.3-6.5-2.3-10.8
			c0-4.2,0.7-7.8,2.1-10.8c1.4-3,3.4-5.3,5.9-6.9C2064.1,743.9,2067.1,743.1,2070.4,743.1z M2070.4,748.2c-3,0-5.4,1-7.1,2.9
			c-1.7,1.9-2.8,4.6-3.1,8h19.5c-0.1-3.2-0.8-5.9-2.3-7.9C2075.9,749.3,2073.6,748.2,2070.4,748.2z M2111.3,782.8
			c-3.4,0-6.4-0.7-9-2.1c-2.6-1.4-4.7-3.5-6.2-6.4c-1.5-2.9-2.2-6.6-2.2-11.1c0-4.7,0.8-8.5,2.3-11.5c1.6-2.9,3.7-5.1,6.4-6.5
			c2.7-1.4,5.7-2.1,9.2-2.1c1.9,0,3.8,0.2,5.6,0.6c1.8,0.4,3.3,0.9,4.4,1.4l-1.9,5.2c-1.1-0.4-2.5-0.8-4-1.2
			c-1.5-0.4-2.9-0.6-4.3-0.6c-7.5,0-11.3,4.8-11.3,14.5c0,4.6,0.9,8.1,2.7,10.6c1.8,2.4,4.6,3.7,8.2,3.7c2.1,0,3.9-0.2,5.5-0.6
			c1.6-0.4,3.1-1,4.4-1.6v5.6c-1.3,0.7-2.7,1.2-4.2,1.5C2115.3,782.6,2113.4,782.8,2111.3,782.8z M2163.4,762.9
			c0,6.3-1.6,11.2-4.8,14.7c-3.2,3.5-7.5,5.2-13,5.2c-3.4,0-6.4-0.8-9-2.3c-2.6-1.6-4.7-3.8-6.2-6.8c-1.5-3-2.3-6.6-2.3-10.8
			c0-6.3,1.6-11.2,4.8-14.6c3.2-3.4,7.5-5.1,13-5.1c3.5,0,6.5,0.8,9.2,2.3c2.6,1.5,4.7,3.8,6.2,6.7
			C2162.7,755.1,2163.4,758.6,2163.4,762.9L2163.4,762.9z M2134.5,762.9c0,4.5,0.9,8.1,2.7,10.8c1.8,2.6,4.6,4,8.5,4
			c3.9,0,6.7-1.3,8.5-4c1.8-2.6,2.7-6.2,2.7-10.8c0-4.5-0.9-8.1-2.7-10.6c-1.8-2.6-4.7-3.9-8.6-3.9c-3.9,0-6.7,1.3-8.5,3.9
			C2135.4,754.8,2134.5,758.3,2134.5,762.9z M2186.9,782.8c-4.8,0-8.6-1.7-11.4-5c-2.8-3.3-4.3-8.2-4.3-14.8
			c0-6.6,1.4-11.5,4.3-14.9c2.9-3.4,6.7-5,11.5-5c2.9,0,5.4,0.5,7.2,1.6c1.9,1.1,3.4,2.4,4.6,4h0.4c-0.1-0.6-0.1-1.5-0.3-2.7
			c-0.1-1.2-0.2-2.2-0.2-2.9v-15.3h6.3v54.2h-5.1l-0.9-5.1h-0.3c-1.1,1.6-2.7,3-4.6,4.1C2192.3,782.2,2189.9,782.8,2186.9,782.8z
			 M2187.9,777.6c4,0,6.9-1.1,8.5-3.3c1.6-2.2,2.5-5.6,2.5-10v-1.1c0-4.8-0.8-8.4-2.4-10.9c-1.6-2.5-4.5-3.8-8.7-3.8
			c-3.4,0-5.9,1.3-7.6,4c-1.7,2.7-2.5,6.3-2.5,10.8c0,4.6,0.8,8.1,2.5,10.6C2181.9,776.3,2184.5,777.6,2187.9,777.6z M2232,743.1
			c3.3,0,6.1,0.7,8.5,2.1c2.4,1.4,4.2,3.4,5.4,6c1.3,2.6,1.9,5.6,1.9,9.1v3.8h-26.2c0.1,4.3,1.2,7.6,3.3,9.9
			c2.1,2.3,5.1,3.4,8.9,3.4c2.4,0,4.6-0.2,6.5-0.7c1.9-0.4,3.8-1.1,5.8-2v5.5c-2,0.9-3.9,1.5-5.8,1.9c-1.9,0.4-4.2,0.6-6.8,0.6
			c-3.6,0-6.8-0.7-9.6-2.2c-2.8-1.5-5-3.7-6.5-6.6c-1.5-2.9-2.3-6.5-2.3-10.8c0-4.2,0.7-7.8,2.1-10.8c1.4-3,3.4-5.3,5.9-6.9
			C2225.7,743.9,2228.6,743.1,2232,743.1z M2231.9,748.2c-3,0-5.4,1-7.1,2.9c-1.7,1.9-2.8,4.6-3.1,8h19.5c-0.1-3.2-0.8-5.9-2.3-7.9
			C2237.4,749.3,2235.1,748.2,2231.9,748.2z M2275.3,743.1c0.7,0,1.5,0,2.3,0.1c0.8,0.1,1.6,0.2,2.2,0.3l-0.8,5.8
			c-0.6-0.1-1.3-0.3-2-0.3c-0.7-0.1-1.4-0.1-2.1-0.1c-2,0-3.8,0.5-5.5,1.6c-1.7,1.1-3.1,2.6-4.1,4.5c-1,1.9-1.5,4.2-1.5,6.7v20.4
			h-6.3v-38.3h5.1l0.7,7h0.3c1.2-2.1,2.8-3.9,4.8-5.4C2270.3,743.9,2272.6,743.1,2275.3,743.1z"/>
		<g id="g28" transform="matrix(1.3333333,0,0,1.3333333,2012.1185,870.69993)">
			<path id="path29" d="M8.9-7C7.6-5,6.5-3.7,5.8-3.7C5.5-3.7,5.3-4,5.3-4.3c0-0.4,1-4.4,2.6-10.2L13-33.1c-2.8,0.6-5,1-9.6,1.3v1.2
				h1c1.2,0,1.9,0.5,1.9,1.3c0,0.4-0.2,1.4-1.3,5.4l-0.8,3.1c-1.1-1.1-2-1.5-3.3-1.5c-5.6,0-12.5,8.8-12.5,16c0,3.3,2.1,5.7,4.9,5.7
				c2.9,0,5-1.6,7.6-6C0.4-4.7,0.3-4,0.3-3.3c0,1.7,1,2.8,2.8,2.8c2.3,0,4.3-1.7,6.8-5.8L8.9-7z M1.7-20.3c1,0,1.7,1,1.7,2.2
				c0,2.1-2,7.9-3.6,10.9c-1.3,2.3-2.6,3.4-3.9,3.4c-1.2,0-2-1.3-1.9-2.9c0.1-2.5,1.6-6.7,3.2-9.7C-1.3-18.9,0.4-20.4,1.7-20.3z"/>
			<path id="path30" d="M29.6-23.6l-0.3,1h1c1.1,0,2,0.8,2,1.9c0,0.2,0,0.6-0.1,1c-3.9,0.1-6.3,0.5-8.2,1.1
				c-6.1,2.1-9.6,6.9-9.6,13.2c0,4.4,1.8,7.6,5.3,9.5c1.7,0.9,2.9,1.2,5.7,1.4c-0.6,2.2-1.3,2.9-3,3.1h-0.4l-0.3,1h12.3l0.3-1H33
				c-1.1,0-2-0.8-2-1.8c0-0.3,0.1-0.7,0.2-1.2c3.9-0.1,5.8-0.4,7.9-1.1c6.1-2,9.6-6.9,9.6-13.1c0-6.3-4-10.4-10.8-10.9
				c0.5-2,1.4-2.8,2.9-2.9h0.5l0.3-1L29.6-23.6z M25.8,4.1c-3.3-0.5-5-2.8-5-6.9C20.8-8,23-13.6,26-16.3c1.5-1.4,2.9-1.8,5.8-2.1
				L25.8,4.1z M37.6-18.3c1.9,0.5,2.5,0.7,3.2,1.8c1,1.4,1.5,3.1,1.5,5.3c0,5.1-2.1,10.4-5,13.1c-1.8,1.6-3.1,2.1-5.6,2.3L37.6-18.3
				z"/>
			<path id="path31" d="M63.4-32.5c-7,5.1-9.7,8.1-11.8,12.9c-1.2,2.8-1.8,5.7-1.8,9c0,6.3,1.9,11.4,6.5,17.7l1.1-0.7
				C54.8,2,54-0.7,54-6.1c0-5.9,1.1-11.8,3.1-16.2c1.7-3.7,3.3-5.9,7.1-9.3L63.4-32.5z M64.3-14.6l1.3,0.1c0.7-2,1.5-2.8,2.9-2.8
				h6.7L61.7-1l1.1,1l0.5-0.4c0.5-0.3,0.7-0.5,0.7-0.5c0.5-0.3,0.7-0.4,1.1-0.4c0.9,0,1.8,0.4,3.4,1.5c2.4,1.6,4.1,2.3,6,2.3
				c2.8,0,5-1.8,5-4.2c0-1.3-1.1-2.4-2.4-2.4c-1.2,0-2.3,1.1-2.3,2.4c0,0.5,0.1,0.9,0.6,1.4c0.2,0.3,0.3,0.5,0.3,0.7
				c0,0.4-0.4,0.7-1,0.7c-0.8,0-1.4-0.5-2.2-2.2c-1.5-2.8-2.6-3.9-4.9-4.9l12.9-15.4v-0.5H66.3L64.3-14.6z M80.3,7.2
				c5.4-3.9,7.7-6.1,10-9.7c2.4-3.7,3.6-7.8,3.6-12.2c0-3.4-0.7-7-2.2-10.4c-1.1-2.5-2-4.1-4.4-7.3l-1.1,0.7
				c2.5,4.1,3.3,7.2,3.3,12.4c0,6.1-1.5,13.1-3.8,17.7c-1.5,2.9-2.9,4.7-6.4,7.9L80.3,7.2z"/>
		</g>
		<path id="path32" class="st2" d="M1637.4,547.9h171.2v171.2h-171.2V547.9z"/>
		<path id="path33" class="st2" d="M1637.4,719.1h171.2v171.2h-171.2V719.1z"/>
		<path id="path34" class="st2" d="M1637.4,890.3h171.2v171.2h-171.2V890.3z"/>
		<path id="path35" class="st6" d="M2492.7,205.6h171.2v171.2h-171.2V205.6z"/>
		<path id="path36" class="st6" d="M2492.7,376.8h171.2v171.2h-171.2V376.8z"/>
		<path id="path37" class="st6" d="M2492.7,547.9h171.2v171.2h-171.2V547.9z"/>
		<path id="path38" class="st6" d="M2492.7,719.1h171.2v171.2h-171.2V719.1z"/>
		<path id="path39" class="st6" d="M2492.7,890.3h171.2v171.2h-171.2V890.3z"/>
		<path id="path40" class="st6" d="M2492.7,1061.5h171.2v171.2h-171.2V1061.5z"/>
		<path id="path41" class="st6" d="M2492.7,1232.7h171.2v171.2h-171.2V1232.7z"/>
		<path id="path42" d="M196.9,161.4c-7.2,9.2-9,10.8-12.3,10.8c-3.5,0-5.3-2.6-6.8-9.7l-5.9-28.6c0.6-0.7,0.7-1.1,1.7-2.4
			c6.4-10.6,11-15.1,15.2-15.1c1.1,0,2.4,0.6,4.6,1.7c2.6,1.6,3.9,2,5.9,2c5.5,0,10.3-4.4,10.3-9.7c0-5.9-5-11.2-10.6-11.2
			c-8.6,0-14.3,5-29,25.3c-3.3-16-4.8-20.4-8.3-25.3l-30.6,4.4v5c3.3-0.4,4.6-0.4,6.4-0.4c5.9,0,8.4,3.3,10.3,12.3l5.5,28.3
			l-8.1,12.8c-3.7,6-5.5,7.5-8.8,7.5c-1.1,0-2-0.4-3.9-1.5c-2.9-1.6-5-2.4-7.3-2.4c-5.7,0-10.1,4.4-10.1,10.3
			c0,6.4,4.8,10.8,11.7,10.8c9.2,0,13.2-3.7,24-21.3l4.4-7.2c4,21.1,8.6,28.4,17.8,28.4c8.8,0,16.5-6.2,27.7-22.4L196.9,161.4z
			 M1695.5,463.5l5.1,0.6c2.9-8.1,5.9-11,11.6-11.2h26.6l-53.6,65l4.6,4l2-1.5c1.8-1.3,2.7-2,2.9-2c1.8-1.3,2.7-1.6,4.4-1.6
			c3.7,0,7.2,1.6,13.6,6c9.7,6.6,16.5,9.2,24,9.2c11.2,0,19.8-7.2,19.8-16.7c0-5.1-4.6-9.5-9.7-9.5c-4.9,0-9.2,4.4-9.2,9.5
			c0,2,0.6,3.7,2.4,5.7c0.9,1.3,1.3,2,1.3,2.8c0,1.6-1.7,2.9-4,2.9c-3.3,0-5.5-2.2-8.6-8.6c-5.9-11.2-10.3-15.6-19.6-19.5l51.6-61.5
			v-1.8h-57.3L1695.5,463.5z M2585.4,161.4c-7.2,9.2-9,10.8-12.3,10.8c-3.5,0-5.3-2.6-6.8-9.7l-5.9-28.6c0.6-0.7,0.7-1.1,1.7-2.4
			c6.4-10.6,11-15.1,15.2-15.1c1.1,0,2.4,0.6,4.6,1.7c2.6,1.6,3.9,2,5.9,2c5.5,0,10.3-4.4,10.3-9.7c0-5.9-5-11.2-10.6-11.2
			c-8.6,0-14.3,5-29,25.3c-3.3-16-4.8-20.4-8.3-25.3l-30.6,4.4v5c3.3-0.4,4.6-0.4,6.4-0.4c5.9,0,8.4,3.3,10.3,12.3l5.5,28.3
			l-8.1,12.8c-3.7,6-5.5,7.5-8.8,7.5c-1.1,0-2-0.4-3.9-1.5c-2.9-1.6-5-2.4-7.3-2.4c-5.7,0-10.1,4.4-10.1,10.3
			c0,6.4,4.8,10.8,11.7,10.8c9.2,0,13.2-3.7,24-21.3l4.4-7.2c4,21.1,8.6,28.4,17.8,28.4c8.8,0,16.5-6.2,27.7-22.4L2585.4,161.4z
			 M2634.8,110.9l15-34.1c0.2-0.2,0.6-1.1,1.1-2.6c1.8-4,2-4.6,2-7c0-5-3.7-9-8.3-9c-7.2,0-13.9,6.4-14.5,13.4l-2.9,39.3H2634.8z"/>
		<path id="path43" class="st7" d="M101.6,1437.4c0.7,0,1.3,0.2,1.8,0.7c0.5,0.5,0.8,1.2,0.8,2.2c0,0.9-0.3,1.7-0.8,2.1
			c-0.5,0.5-1.1,0.7-1.8,0.7c-0.7,0-1.4-0.2-1.9-0.7c-0.5-0.5-0.8-1.2-0.8-2.1c0-1,0.3-1.7,0.8-2.2
			C100.2,1437.6,100.8,1437.4,101.6,1437.4z M103.8,1447.6v27.3h-4.5v-27.3H103.8z M125.6,1447.1c3.3,0,5.7,0.8,7.4,2.4
			c1.7,1.6,2.5,4.1,2.5,7.7v17.8H131v-17.5c0-4.4-2-6.6-6.1-6.6c-3,0-5.1,0.9-6.3,2.6c-1.2,1.7-1.7,4.1-1.7,7.3v14.2h-4.5v-27.3h3.6
			l0.7,3.7h0.3c0.9-1.4,2.1-2.5,3.7-3.2C122.2,1447.5,123.9,1447.1,125.6,1447.1z M156.9,1447.1c3.4,0,6.1,1.2,8.1,3.5
			c2.1,2.3,3.1,5.9,3.1,10.6c0,4.7-1,8.2-3.1,10.6c-2.1,2.4-4.8,3.6-8.2,3.6c-2.1,0-3.9-0.4-5.2-1.2c-1.4-0.8-2.5-1.7-3.2-2.8h-0.3
			c0.1,0.6,0.1,1.3,0.2,2.2c0.1,0.9,0.1,1.6,0.1,2.3v11.2h-4.5v-39.5h3.7l0.6,3.7h0.2c0.8-1.2,1.9-2.2,3.2-3
			C153,1447.5,154.7,1447.1,156.9,1447.1z M156.1,1450.9c-2.8,0-4.8,0.8-5.9,2.3c-1.1,1.6-1.7,3.9-1.8,7.1v0.9c0,3.4,0.6,6,1.7,7.8
			c1.1,1.8,3.2,2.7,6.2,2.7c1.7,0,3-0.5,4.1-1.4c1.1-0.9,1.9-2.2,2.4-3.7c0.5-1.6,0.8-3.4,0.8-5.4c0-3.1-0.6-5.6-1.8-7.5
			C160.5,1451.8,158.6,1450.9,156.1,1450.9z M198.1,1447.6v27.3h-3.7l-0.7-3.6h-0.2c-0.9,1.4-2.1,2.5-3.7,3.1c-1.6,0.7-3.2,1-5,1
			c-3.3,0-5.8-0.8-7.4-2.4c-1.7-1.6-2.5-4.1-2.5-7.6v-17.9h4.5v17.6c0,4.4,2,6.5,6.1,6.5c3,0,5.1-0.8,6.3-2.5
			c1.2-1.7,1.8-4.2,1.8-7.3v-14.2H198.1z M215.9,1471.8c0.7,0,1.4-0.1,2.1-0.2c0.7-0.1,1.3-0.2,1.7-0.4v3.4c-0.5,0.2-1.2,0.4-2,0.6
			c-0.9,0.2-1.7,0.2-2.5,0.2c-1.4,0-2.8-0.2-4-0.7c-1.2-0.5-2.2-1.4-2.9-2.6c-0.7-1.2-1.1-2.9-1.1-5.1v-15.9h-3.9v-2.2l3.9-1.8
			l1.8-5.8h2.6v6.3h7.9v3.5h-7.9v15.8c0,1.7,0.4,2.9,1.2,3.7C213.6,1471.4,214.7,1471.8,215.9,1471.8z"/>
		<path id="path44" class="st8" d="M957.8,1128.7h-4.5v-38.7h4.5V1128.7z M976.8,1100.9c3.3,0,5.8,0.7,7.4,2.2
			c1.6,1.5,2.4,3.8,2.4,7v18.6h-3.3l-0.9-3.9h-0.2c-1.2,1.5-2.4,2.6-3.7,3.3c-1.3,0.7-3.1,1.1-5.4,1.1c-2.5,0-4.5-0.6-6.2-2
			c-1.6-1.3-2.4-3.4-2.4-6.2c0-2.7,1.1-4.8,3.2-6.3c2.1-1.5,5.4-2.3,9.9-2.4l4.6-0.1v-1.6c0-2.3-0.5-3.8-1.5-4.7
			c-1-0.9-2.4-1.3-4.2-1.3c-1.4,0-2.8,0.2-4.1,0.6c-1.3,0.4-2.5,0.9-3.6,1.4l-1.4-3.4c1.2-0.6,2.6-1.2,4.2-1.7
			C973.4,1101.1,975.1,1100.9,976.8,1100.9z M978.2,1115.5c-3.4,0.1-5.8,0.7-7.1,1.6c-1.3,0.9-2,2.3-2,4c0,1.5,0.5,2.6,1.4,3.4
			c0.9,0.7,2.1,1.1,3.6,1.1c2.3,0,4.2-0.6,5.7-1.9c1.5-1.3,2.3-3.2,2.3-5.9v-2.4L978.2,1115.5z M1004.2,1125.5
			c0.7,0,1.4-0.1,2.1-0.2c0.7-0.1,1.3-0.2,1.7-0.4v3.4c-0.5,0.2-1.2,0.4-2,0.6c-0.9,0.2-1.7,0.2-2.5,0.2c-1.4,0-2.8-0.2-4-0.7
			c-1.2-0.5-2.2-1.4-2.9-2.6c-0.7-1.2-1.1-2.9-1.1-5.1v-15.9h-3.9v-2.2l3.9-1.8l1.8-5.8h2.6v6.3h7.9v3.5h-7.9v15.8
			c0,1.7,0.4,2.9,1.2,3.7C1001.9,1125.1,1002.9,1125.5,1004.2,1125.5z M1024,1100.8c2.3,0,4.3,0.5,6,1.5c1.7,1,3,2.4,3.9,4.3
			c0.9,1.9,1.4,4,1.4,6.5v2.7h-18.7c0.1,3.1,0.9,5.5,2.4,7.1c1.5,1.6,3.6,2.4,6.3,2.4c1.7,0,3.3-0.2,4.6-0.5
			c1.3-0.3,2.7-0.8,4.2-1.4v3.9c-1.4,0.6-2.8,1.1-4.1,1.3c-1.4,0.3-3,0.4-4.8,0.4c-2.6,0-4.9-0.5-6.9-1.6c-2-1.1-3.5-2.6-4.6-4.7
			c-1.1-2.1-1.7-4.6-1.7-7.7c0-3,0.5-5.5,1.5-7.7c1-2.1,2.4-3.8,4.2-4.9C1019.5,1101.4,1021.6,1100.8,1024,1100.8z M1024,1104.5
			c-2.1,0-3.8,0.7-5.1,2.1c-1.2,1.4-2,3.3-2.2,5.7h13.9c0-2.3-0.6-4.2-1.6-5.6C1027.9,1105.2,1026.3,1104.5,1024,1104.5z
			 M1055.4,1100.8c3.3,0,5.7,0.8,7.4,2.4c1.7,1.6,2.5,4.1,2.5,7.7v17.8h-4.4v-17.5c0-4.4-2-6.6-6.1-6.6c-3,0-5.1,0.9-6.3,2.6
			c-1.2,1.7-1.7,4.1-1.7,7.3v14.2h-4.5v-27.3h3.6l0.7,3.7h0.3c0.9-1.4,2.1-2.5,3.7-3.2C1052,1101.2,1053.6,1100.8,1055.4,1100.8z
			 M1082.8,1125.5c0.7,0,1.4-0.1,2.1-0.2c0.7-0.1,1.3-0.2,1.7-0.4v3.4c-0.5,0.2-1.2,0.4-2,0.6c-0.9,0.2-1.7,0.2-2.5,0.2
			c-1.4,0-2.8-0.2-4-0.7c-1.2-0.5-2.2-1.4-2.9-2.6c-0.7-1.2-1.1-2.9-1.1-5.1v-15.9h-3.9v-2.2l3.9-1.8l1.8-5.8h2.6v6.3h7.9v3.5h-7.9
			v15.8c0,1.7,0.4,2.9,1.2,3.7C1080.6,1125.1,1081.6,1125.5,1082.8,1125.5L1082.8,1125.5z M893.3,1192.9c-3.4,0-6.1-1.2-8.2-3.5
			c-2-2.4-3-5.9-3-10.6c0-4.7,1-8.2,3.1-10.6c2.1-2.4,4.8-3.6,8.2-3.6c2.1,0,3.8,0.4,5.2,1.2c1.3,0.8,2.4,1.7,3.3,2.8h0.3
			c0-0.4-0.1-1.1-0.2-2c-0.1-0.9-0.1-1.6-0.1-2.1v-10.9h4.5v38.7h-3.6l-0.7-3.7h-0.2c-0.8,1.2-1.9,2.1-3.3,3
			C897.2,1192.5,895.4,1192.9,893.3,1192.9z M894,1189.2c2.9,0,4.9-0.8,6.1-2.4c1.2-1.6,1.8-4,1.8-7.2v-0.8c0-3.4-0.6-6-1.7-7.8
			c-1.1-1.8-3.2-2.7-6.2-2.7c-2.4,0-4.2,1-5.4,2.9c-1.2,1.9-1.8,4.5-1.8,7.7c0,3.3,0.6,5.8,1.8,7.6
			C889.7,1188.3,891.5,1189.2,894,1189.2z M917.2,1154.8c0.7,0,1.3,0.2,1.8,0.7c0.5,0.5,0.8,1.2,0.8,2.2c0,0.9-0.3,1.7-0.8,2.1
			c-0.5,0.5-1.1,0.7-1.8,0.7c-0.7,0-1.4-0.2-1.9-0.7c-0.5-0.5-0.8-1.2-0.8-2.1c0-1,0.3-1.7,0.8-2.2
			C915.9,1155,916.5,1154.8,917.2,1154.8z M919.4,1165.1v27.3h-4.5v-27.3H919.4z M945.9,1184.8c0,2.7-1,4.7-3,6c-2,1.4-4.6,2-7.9,2
			c-1.9,0-3.5-0.2-4.9-0.5c-1.4-0.3-2.6-0.7-3.6-1.3v-4.1c1.1,0.5,2.4,1.1,4,1.5c1.5,0.5,3.1,0.7,4.7,0.7c2.3,0,3.9-0.4,4.9-1.1
			c1-0.7,1.5-1.7,1.5-2.9c0-0.7-0.2-1.3-0.6-1.8c-0.4-0.5-1-1.1-2-1.6c-1-0.5-2.4-1.2-4.2-1.8c-1.8-0.7-3.3-1.4-4.5-2
			c-1.3-0.7-2.2-1.5-2.9-2.4c-0.7-1-1-2.2-1-3.7c0-2.3,0.9-4.1,2.8-5.3c1.9-1.3,4.4-1.9,7.4-1.9c1.7,0,3.2,0.2,4.7,0.5
			c1.4,0.3,2.8,0.8,4.1,1.3l-1.5,3.6c-1.2-0.5-2.4-0.9-3.6-1.2c-1.3-0.3-2.5-0.5-3.9-0.5c-1.8,0-3.2,0.3-4.2,0.9
			c-1,0.6-1.4,1.4-1.4,2.4c0,0.7,0.2,1.4,0.7,1.9c0.4,0.5,1.2,1,2.2,1.5c1,0.5,2.4,1.1,4.2,1.7c1.7,0.6,3.2,1.3,4.4,2
			c1.2,0.7,2.2,1.5,2.8,2.5C945.6,1182.2,945.9,1183.4,945.9,1184.8z M961.6,1189.2c0.7,0,1.4-0.1,2.1-0.2c0.7-0.1,1.3-0.2,1.7-0.4
			v3.4c-0.5,0.2-1.2,0.4-2,0.6c-0.9,0.2-1.7,0.2-2.5,0.2c-1.4,0-2.8-0.2-4-0.7c-1.2-0.5-2.2-1.4-2.9-2.6c-0.7-1.2-1.1-2.9-1.1-5.1
			v-15.9H949v-2.2l3.9-1.8l1.8-5.8h2.6v6.3h7.9v3.5h-7.9v15.8c0,1.7,0.4,2.9,1.2,3.7C959.4,1188.8,960.4,1189.2,961.6,1189.2z
			 M983.6,1164.6c0.5,0,1.1,0,1.7,0.1c0.6,0.1,1.1,0.1,1.6,0.2l-0.6,4.1c-0.4-0.1-0.9-0.2-1.5-0.2c-0.5-0.1-1-0.1-1.5-0.1
			c-1.4,0-2.7,0.4-3.9,1.1c-1.2,0.8-2.2,1.8-2.9,3.2c-0.7,1.4-1.1,3-1.1,4.8v14.6h-4.5v-27.3h3.7l0.5,5h0.2c0.9-1.5,2-2.8,3.4-3.9
			C980.1,1165.1,981.7,1164.6,983.6,1164.6z M994.3,1154.8c0.7,0,1.3,0.2,1.8,0.7c0.5,0.5,0.8,1.2,0.8,2.2c0,0.9-0.3,1.7-0.8,2.1
			c-0.5,0.5-1.1,0.7-1.8,0.7c-0.7,0-1.4-0.2-1.9-0.7c-0.5-0.5-0.8-1.2-0.8-2.1c0-1,0.3-1.7,0.8-2.2
			C992.9,1155,993.5,1154.8,994.3,1154.8z M996.4,1165.1v27.3H992v-27.3H996.4z M1009.6,1163.1c0,1.2,0,2.2-0.1,3.2
			c-0.1,1-0.1,1.8-0.2,2.4h0.3c0.8-1.2,1.9-2.1,3.2-2.9c1.4-0.8,3.1-1.2,5.3-1.2c3.4,0,6.1,1.2,8.2,3.5c2.1,2.4,3.1,5.9,3.1,10.6
			s-1,8.2-3.1,10.6c-2.1,2.4-4.8,3.6-8.2,3.6c-2.1,0-3.9-0.4-5.3-1.2c-1.4-0.8-2.4-1.7-3.2-2.8h-0.3l-0.9,3.5h-3.2v-38.7h4.5V1163.1
			z M1017.3,1168.3c-2.9,0-4.9,0.8-6,2.5c-1.1,1.7-1.7,4.2-1.7,7.7v0.2c0,3.4,0.6,5.9,1.7,7.7c1.1,1.8,3.2,2.7,6.2,2.7
			c2.4,0,4.3-0.9,5.5-2.7c1.2-1.8,1.8-4.4,1.8-7.8C1024.7,1171.8,1022.2,1168.3,1017.3,1168.3z M1059.3,1165.1v27.3h-3.7l-0.7-3.6
			h-0.2c-0.9,1.4-2.1,2.5-3.7,3.1c-1.6,0.7-3.2,1-5,1c-3.3,0-5.8-0.8-7.4-2.4c-1.7-1.6-2.5-4.1-2.5-7.6v-17.9h4.5v17.6
			c0,4.4,2,6.5,6.1,6.5c3,0,5.1-0.8,6.3-2.5c1.2-1.7,1.8-4.2,1.8-7.3v-14.2H1059.3z M1077.1,1189.2c0.7,0,1.4-0.1,2.1-0.2
			c0.7-0.1,1.3-0.2,1.7-0.4v3.4c-0.5,0.2-1.2,0.4-2,0.6c-0.9,0.2-1.7,0.2-2.5,0.2c-1.4,0-2.8-0.2-4-0.7c-1.2-0.5-2.2-1.4-2.9-2.6
			c-0.7-1.2-1.1-2.9-1.1-5.1v-15.9h-3.9v-2.2l3.9-1.8l1.8-5.8h2.6v6.3h7.9v3.5h-7.9v15.8c0,1.7,0.4,2.9,1.2,3.7
			C1074.8,1188.8,1075.8,1189.2,1077.1,1189.2z M1088.7,1154.8c0.7,0,1.3,0.2,1.8,0.7c0.5,0.5,0.8,1.2,0.8,2.2
			c0,0.9-0.3,1.7-0.8,2.1c-0.5,0.5-1.1,0.7-1.8,0.7c-0.7,0-1.4-0.2-1.9-0.7c-0.5-0.5-0.8-1.2-0.8-2.1c0-1,0.3-1.7,0.8-2.2
			C1087.3,1155,1087.9,1154.8,1088.7,1154.8z M1090.8,1165.1v27.3h-4.5v-27.3H1090.8z M1123.3,1178.7c0,4.5-1.1,8-3.4,10.5
			c-2.3,2.5-5.4,3.7-9.3,3.7c-2.4,0-4.6-0.6-6.5-1.7c-1.9-1.1-3.4-2.7-4.5-4.8c-1.1-2.1-1.6-4.7-1.6-7.7c0-4.5,1.1-8,3.4-10.4
			c2.3-2.4,5.4-3.7,9.3-3.7c2.5,0,4.7,0.6,6.5,1.7c1.9,1.1,3.4,2.7,4.4,4.8C1122.7,1173.1,1123.3,1175.6,1123.3,1178.7
			L1123.3,1178.7z M1102.6,1178.7c0,3.2,0.6,5.8,1.9,7.7c1.3,1.9,3.3,2.8,6.1,2.8c2.8,0,4.8-0.9,6.1-2.8c1.3-1.9,1.9-4.5,1.9-7.7
			c0-3.2-0.6-5.8-1.9-7.6c-1.3-1.8-3.3-2.8-6.1-2.8c-2.8,0-4.8,0.9-6.1,2.8C1103.3,1172.9,1102.6,1175.4,1102.6,1178.7z
			 M1143.5,1164.6c3.3,0,5.7,0.8,7.4,2.4c1.7,1.6,2.5,4.1,2.5,7.7v17.8h-4.4v-17.5c0-4.4-2-6.6-6.1-6.6c-3,0-5.1,0.9-6.3,2.6
			c-1.2,1.7-1.7,4.1-1.7,7.3v14.2h-4.5v-27.3h3.6l0.7,3.7h0.3c0.9-1.4,2.1-2.5,3.7-3.2C1140.1,1164.9,1141.8,1164.6,1143.5,1164.6
			L1143.5,1164.6z"/>
		<path id="path45" class="st9" d="M1276.9,1034.6c0,2.7-1,4.7-3,6c-2,1.4-4.6,2-7.9,2c-1.9,0-3.5-0.2-4.9-0.5
			c-1.4-0.3-2.6-0.7-3.6-1.3v-4.1c1.1,0.5,2.4,1.1,4,1.5c1.5,0.5,3.1,0.7,4.7,0.7c2.3,0,3.9-0.4,4.9-1.1c1-0.7,1.5-1.7,1.5-2.9
			c0-0.7-0.2-1.3-0.6-1.8c-0.4-0.5-1-1.1-2-1.6c-1-0.5-2.4-1.2-4.2-1.8c-1.8-0.7-3.3-1.4-4.5-2c-1.3-0.7-2.2-1.5-2.9-2.4
			c-0.7-1-1-2.2-1-3.7c0-2.3,0.9-4.1,2.8-5.3c1.9-1.3,4.4-1.9,7.4-1.9c1.7,0,3.2,0.2,4.7,0.5c1.4,0.3,2.8,0.8,4.1,1.3l-1.5,3.6
			c-1.2-0.5-2.4-0.9-3.6-1.2c-1.3-0.3-2.5-0.5-3.9-0.5c-1.8,0-3.2,0.3-4.2,0.9c-1,0.6-1.4,1.4-1.4,2.4c0,0.7,0.2,1.4,0.7,1.9
			c0.4,0.5,1.2,1,2.2,1.5c1,0.5,2.4,1.1,4.2,1.7c1.7,0.6,3.2,1.3,4.4,2c1.2,0.7,2.2,1.5,2.8,2.5
			C1276.6,1031.9,1276.9,1033.1,1276.9,1034.6z M1293.9,1014.3c3.3,0,5.8,0.7,7.4,2.2c1.6,1.5,2.4,3.8,2.4,7v18.6h-3.3l-0.9-3.9
			h-0.2c-1.2,1.5-2.4,2.6-3.7,3.3c-1.3,0.7-3.1,1.1-5.4,1.1c-2.5,0-4.5-0.6-6.2-2c-1.6-1.3-2.4-3.4-2.4-6.2c0-2.7,1.1-4.8,3.2-6.3
			c2.1-1.5,5.4-2.3,9.9-2.4l4.6-0.1v-1.6c0-2.3-0.5-3.8-1.5-4.7c-1-0.9-2.4-1.3-4.2-1.3c-1.4,0-2.8,0.2-4.1,0.6
			c-1.3,0.4-2.5,0.9-3.6,1.4l-1.4-3.4c1.2-0.6,2.6-1.2,4.2-1.7C1290.4,1014.6,1292.2,1014.3,1293.9,1014.3z M1295.3,1028.9
			c-3.4,0.1-5.8,0.7-7.1,1.6c-1.3,0.9-2,2.3-2,4c0,1.5,0.5,2.6,1.4,3.4c0.9,0.7,2.1,1.1,3.6,1.1c2.3,0,4.2-0.6,5.7-1.9
			c1.5-1.3,2.3-3.2,2.3-5.9v-2.4L1295.3,1028.9z M1342.1,1014.3c3.1,0,5.4,0.8,6.9,2.4c1.5,1.6,2.3,4.1,2.3,7.7v17.8h-4.4v-17.6
			c0-4.3-1.9-6.5-5.6-6.5c-2.7,0-4.5,0.8-5.7,2.3c-1.1,1.5-1.7,3.7-1.7,6.7v15.1h-4.4v-17.6c0-4.3-1.9-6.5-5.6-6.5
			c-2.8,0-4.7,0.9-5.7,2.6c-1.1,1.7-1.6,4.1-1.6,7.3v14.2h-4.5v-27.3h3.6l0.7,3.7h0.3c0.8-1.4,2-2.5,3.4-3.2c1.4-0.7,3-1,4.6-1
			c4.3,0,7.1,1.5,8.4,4.6h0.3c0.9-1.6,2.2-2.7,3.7-3.5C1338.7,1014.7,1340.4,1014.3,1342.1,1014.3L1342.1,1014.3z M1372.8,1014.3
			c3.4,0,6.1,1.2,8.1,3.5c2.1,2.3,3.1,5.9,3.1,10.6c0,4.7-1,8.2-3.1,10.6c-2.1,2.4-4.8,3.6-8.2,3.6c-2.1,0-3.9-0.4-5.2-1.2
			c-1.4-0.8-2.5-1.7-3.2-2.8h-0.3c0.1,0.6,0.1,1.3,0.2,2.2c0.1,0.9,0.1,1.6,0.1,2.3v11.2h-4.5v-39.5h3.7l0.6,3.7h0.2
			c0.8-1.2,1.9-2.2,3.2-3C1368.9,1014.7,1370.6,1014.3,1372.8,1014.3z M1372,1018.1c-2.8,0-4.8,0.8-5.9,2.3
			c-1.1,1.6-1.7,3.9-1.8,7.1v0.9c0,3.4,0.6,6,1.7,7.8c1.1,1.8,3.2,2.7,6.2,2.7c1.7,0,3-0.5,4.1-1.4c1.1-0.9,1.9-2.2,2.4-3.7
			c0.5-1.6,0.8-3.4,0.8-5.4c0-3.1-0.6-5.6-1.8-7.5C1376.4,1019,1374.5,1018.1,1372,1018.1z M1395.7,1042.1h-4.5v-38.7h4.5V1042.1z
			 M1406.6,1004.6c0.7,0,1.3,0.2,1.8,0.7c0.5,0.5,0.8,1.2,0.8,2.2c0,0.9-0.3,1.7-0.8,2.1c-0.5,0.5-1.1,0.7-1.8,0.7
			c-0.7,0-1.4-0.2-1.9-0.7c-0.5-0.5-0.8-1.2-0.8-2.1c0-1,0.3-1.7,0.8-2.2C1405.3,1004.8,1405.9,1004.6,1406.6,1004.6z
			 M1408.8,1014.8v27.3h-4.5v-27.3H1408.8z M1430.6,1014.3c3.3,0,5.7,0.8,7.4,2.4c1.7,1.6,2.5,4.1,2.5,7.7v17.8h-4.4v-17.5
			c0-4.4-2-6.6-6.1-6.6c-3,0-5.1,0.9-6.3,2.6c-1.2,1.7-1.7,4.1-1.7,7.3v14.2h-4.5v-27.3h3.6l0.7,3.7h0.3c0.9-1.4,2.1-2.5,3.7-3.2
			C1427.3,1014.7,1428.9,1014.3,1430.6,1014.3L1430.6,1014.3z M1458.7,1014.3c1.8,0,3.4,0.3,4.9,1c1.5,0.7,2.7,1.7,3.7,3.1h0.3
			l0.6-3.6h3.6v27.8c0,3.9-1,6.8-3,8.8c-2,2-5.1,3-9.2,3c-4,0-7.3-0.6-9.8-1.7v-4.1c2.7,1.4,6.1,2.1,10.1,2.1c2.3,0,4.2-0.7,5.5-2.1
			s2-3.3,2-5.6v-1.1c0-0.4,0-1,0-1.8c0-0.8,0.1-1.3,0.1-1.6h-0.2c-1.8,2.7-4.7,4.1-8.5,4.1c-3.5,0-6.3-1.2-8.3-3.7
			c-2-2.5-3-5.9-3-10.4c0-4.3,1-7.8,3-10.4C1452.4,1015.6,1455.2,1014.3,1458.7,1014.3z M1459.3,1018.1c-2.3,0-4.1,0.9-5.3,2.7
			c-1.3,1.8-1.9,4.4-1.9,7.8c0,3.4,0.6,5.9,1.9,7.7c1.2,1.8,3.1,2.7,5.4,2.7c2.8,0,4.8-0.7,6-2.2c1.3-1.5,1.9-3.9,1.9-7.2v-1.1
			c0-3.7-0.6-6.4-1.9-8C1464.1,1018.9,1462,1018.1,1459.3,1018.1z"/>
		<path id="path46" class="st8" d="M1661.6,1128.7h-4.5v-38.7h4.5V1128.7z M1680.6,1100.9c3.3,0,5.8,0.7,7.4,2.2
			c1.6,1.5,2.4,3.8,2.4,7v18.6h-3.3l-0.9-3.9h-0.2c-1.2,1.5-2.4,2.6-3.7,3.3c-1.3,0.7-3.1,1.1-5.4,1.1c-2.5,0-4.5-0.6-6.2-2
			c-1.6-1.3-2.4-3.4-2.4-6.2c0-2.7,1.1-4.8,3.2-6.3c2.1-1.5,5.4-2.3,9.9-2.4l4.6-0.1v-1.6c0-2.3-0.5-3.8-1.5-4.7
			c-1-0.9-2.4-1.3-4.2-1.3c-1.4,0-2.8,0.2-4.1,0.6c-1.3,0.4-2.5,0.9-3.6,1.4l-1.4-3.4c1.2-0.6,2.6-1.2,4.2-1.7
			C1677.1,1101.1,1678.8,1100.9,1680.6,1100.9z M1681.9,1115.5c-3.4,0.1-5.8,0.7-7.1,1.6c-1.3,0.9-2,2.3-2,4c0,1.5,0.5,2.6,1.4,3.4
			c0.9,0.7,2.1,1.1,3.6,1.1c2.3,0,4.2-0.6,5.7-1.9c1.5-1.3,2.3-3.2,2.3-5.9v-2.4L1681.9,1115.5z M1708,1125.5c0.7,0,1.4-0.1,2.1-0.2
			c0.7-0.1,1.3-0.2,1.7-0.4v3.4c-0.5,0.2-1.2,0.4-2,0.6c-0.9,0.2-1.7,0.2-2.5,0.2c-1.4,0-2.8-0.2-4-0.7c-1.2-0.5-2.2-1.4-2.9-2.6
			c-0.7-1.2-1.1-2.9-1.1-5.1v-15.9h-3.9v-2.2l3.9-1.8l1.8-5.8h2.6v6.3h7.9v3.5h-7.9v15.8c0,1.7,0.4,2.9,1.2,3.7
			C1705.7,1125.1,1706.7,1125.5,1708,1125.5z M1727.8,1100.8c2.3,0,4.3,0.5,6,1.5c1.7,1,3,2.4,3.9,4.3c0.9,1.9,1.4,4,1.4,6.5v2.7
			h-18.7c0.1,3.1,0.9,5.5,2.4,7.1c1.5,1.6,3.6,2.4,6.3,2.4c1.7,0,3.3-0.2,4.6-0.5c1.3-0.3,2.7-0.8,4.2-1.4v3.9
			c-1.4,0.6-2.8,1.1-4.1,1.3c-1.4,0.3-3,0.4-4.8,0.4c-2.6,0-4.9-0.5-6.9-1.6c-2-1.1-3.5-2.6-4.6-4.7s-1.7-4.6-1.7-7.7
			c0-3,0.5-5.5,1.5-7.7c1-2.1,2.4-3.8,4.2-4.9C1723.3,1101.4,1725.4,1100.8,1727.8,1100.8z M1727.8,1104.5c-2.1,0-3.8,0.7-5.1,2.1
			c-1.2,1.4-2,3.3-2.2,5.7h13.9c0-2.3-0.6-4.2-1.6-5.6C1731.7,1105.2,1730,1104.5,1727.8,1104.5z M1759.2,1100.8
			c3.3,0,5.7,0.8,7.4,2.4c1.7,1.6,2.5,4.1,2.5,7.7v17.8h-4.4v-17.5c0-4.4-2-6.6-6.1-6.6c-3,0-5.1,0.9-6.3,2.6
			c-1.2,1.7-1.7,4.1-1.7,7.3v14.2h-4.5v-27.3h3.6l0.7,3.7h0.3c0.9-1.4,2.1-2.5,3.7-3.2C1755.8,1101.2,1757.4,1100.8,1759.2,1100.8z
			 M1786.6,1125.5c0.7,0,1.4-0.1,2.1-0.2c0.7-0.1,1.3-0.2,1.7-0.4v3.4c-0.5,0.2-1.2,0.4-2,0.6c-0.9,0.2-1.7,0.2-2.5,0.2
			c-1.4,0-2.8-0.2-4-0.7c-1.2-0.5-2.2-1.4-2.9-2.6c-0.7-1.2-1.1-2.9-1.1-5.1v-15.9h-3.9v-2.2l3.9-1.8l1.8-5.8h2.6v6.3h7.9v3.5h-7.9
			v15.8c0,1.7,0.4,2.9,1.2,3.7C1784.4,1125.1,1785.4,1125.5,1786.6,1125.5L1786.6,1125.5z M1657.8,1192.4l-10.3-27.3h4.8l5.8,16.1
			c0.3,0.7,0.6,1.6,0.9,2.5c0.3,0.9,0.6,1.8,0.8,2.6c0.2,0.8,0.4,1.5,0.5,2.1h0.2c0.1-0.6,0.3-1.3,0.6-2.1c0.3-0.9,0.5-1.7,0.9-2.7
			c0.3-0.9,0.6-1.7,0.9-2.4l5.8-16.1h4.8l-10.4,27.3H1657.8z M1688.3,1164.6c2.3,0,4.3,0.5,6,1.5c1.7,1,3,2.4,3.9,4.3
			c0.9,1.9,1.4,4,1.4,6.5v2.7h-18.7c0.1,3.1,0.9,5.5,2.4,7.1c1.5,1.6,3.6,2.4,6.3,2.4c1.7,0,3.3-0.2,4.6-0.5
			c1.3-0.3,2.7-0.8,4.2-1.4v3.9c-1.4,0.6-2.8,1.1-4.1,1.3c-1.4,0.3-3,0.4-4.8,0.4c-2.6,0-4.9-0.5-6.9-1.6c-2-1.1-3.5-2.6-4.6-4.7
			s-1.7-4.6-1.7-7.7c0-3,0.5-5.5,1.5-7.7c1-2.1,2.4-3.8,4.2-4.9C1683.7,1165.1,1685.8,1164.6,1688.3,1164.6z M1688.2,1168.2
			c-2.1,0-3.8,0.7-5.1,2.1c-1.2,1.4-2,3.3-2.2,5.7h13.9c0-2.3-0.6-4.2-1.6-5.6C1692.1,1168.9,1690.5,1168.2,1688.2,1168.2z
			 M1717.4,1192.9c-2.4,0-4.6-0.5-6.5-1.5c-1.9-1-3.4-2.5-4.4-4.6c-1.1-2.1-1.6-4.7-1.6-7.9c0-3.4,0.6-6.1,1.7-8.2
			c1.1-2.1,2.6-3.7,4.6-4.6c1.9-1,4.1-1.5,6.5-1.5c1.4,0,2.7,0.1,4,0.4c1.3,0.3,2.3,0.6,3.2,1l-1.4,3.7c-0.8-0.3-1.8-0.6-2.9-0.9
			c-1.1-0.3-2.1-0.4-3-0.4c-5.4,0-8.1,3.4-8.1,10.3c0,3.3,0.6,5.8,2,7.6c1.3,1.8,3.3,2.6,5.8,2.6c1.5,0,2.8-0.2,4-0.5
			c1.1-0.3,2.2-0.7,3.1-1.1v4c-0.9,0.5-1.9,0.8-3,1.1C1720.3,1192.8,1719,1192.9,1717.4,1192.9z M1740,1189.2c0.7,0,1.4-0.1,2.1-0.2
			c0.7-0.1,1.3-0.2,1.7-0.4v3.4c-0.5,0.2-1.2,0.4-2,0.6c-0.9,0.2-1.7,0.2-2.5,0.2c-1.4,0-2.8-0.2-4-0.7c-1.2-0.5-2.2-1.4-2.9-2.6
			c-0.7-1.2-1.1-2.9-1.1-5.1v-15.9h-3.9v-2.2l3.9-1.8l1.8-5.8h2.6v6.3h7.9v3.5h-7.9v15.8c0,1.7,0.4,2.9,1.2,3.7
			C1737.8,1188.8,1738.8,1189.2,1740,1189.2z M1773.1,1178.7c0,4.5-1.1,8-3.4,10.5c-2.3,2.5-5.4,3.7-9.3,3.7c-2.4,0-4.6-0.6-6.5-1.7
			c-1.9-1.1-3.4-2.7-4.5-4.8c-1.1-2.1-1.6-4.7-1.6-7.7c0-4.5,1.1-8,3.4-10.4c2.3-2.4,5.4-3.7,9.3-3.7c2.5,0,4.7,0.6,6.5,1.7
			c1.9,1.1,3.4,2.7,4.4,4.8C1772.5,1173.1,1773.1,1175.6,1773.1,1178.7z M1752.4,1178.7c0,3.2,0.6,5.8,1.9,7.7
			c1.3,1.9,3.3,2.8,6.1,2.8c2.8,0,4.8-0.9,6.1-2.8c1.3-1.9,1.9-4.5,1.9-7.7c0-3.2-0.6-5.8-1.9-7.6c-1.3-1.8-3.3-2.8-6.1-2.8
			c-2.8,0-4.8,0.9-6.1,2.8C1753.1,1172.9,1752.4,1175.4,1752.4,1178.7z M1792.9,1164.6c0.5,0,1.1,0,1.7,0.1c0.6,0.1,1.1,0.1,1.6,0.2
			l-0.6,4.1c-0.4-0.1-0.9-0.2-1.5-0.2c-0.5-0.1-1-0.1-1.5-0.1c-1.4,0-2.7,0.4-3.9,1.1c-1.2,0.8-2.2,1.8-2.9,3.2
			c-0.7,1.4-1.1,3-1.1,4.8v14.6h-4.5v-27.3h3.7l0.5,5h0.2c0.9-1.5,2-2.8,3.4-3.9C1789.4,1165.1,1791,1164.6,1792.9,1164.6z"/>
		<path id="path47" class="st10" d="M2428.4,1447.1c0.5,0,1.1,0,1.7,0.1c0.6,0.1,1.1,0.1,1.6,0.2l-0.6,4.1c-0.4-0.1-0.9-0.2-1.5-0.2
			c-0.5-0.1-1-0.1-1.5-0.1c-1.4,0-2.7,0.4-3.9,1.1c-1.2,0.8-2.2,1.8-2.9,3.2c-0.7,1.4-1.1,3-1.1,4.8v14.6h-4.5v-27.3h3.7l0.5,5h0.2
			c0.9-1.5,2-2.8,3.4-3.9C2424.8,1447.7,2426.5,1447.1,2428.4,1447.1z M2446.2,1447.1c2.3,0,4.3,0.5,6,1.5c1.7,1,3,2.4,3.9,4.3
			c0.9,1.9,1.4,4,1.4,6.5v2.7h-18.7c0.1,3.1,0.9,5.5,2.4,7.1c1.5,1.6,3.6,2.4,6.3,2.4c1.7,0,3.3-0.2,4.6-0.5
			c1.3-0.3,2.7-0.8,4.2-1.4v3.9c-1.4,0.6-2.8,1.1-4.1,1.3c-1.4,0.3-3,0.4-4.8,0.4c-2.6,0-4.9-0.5-6.9-1.6c-2-1.1-3.5-2.6-4.6-4.7
			c-1.1-2.1-1.7-4.6-1.7-7.7c0-3,0.5-5.5,1.5-7.7c1-2.1,2.4-3.8,4.2-4.9C2441.7,1447.7,2443.8,1447.1,2446.2,1447.1z M2446.2,1450.8
			c-2.1,0-3.8,0.7-5.1,2.1c-1.2,1.4-2,3.3-2.2,5.7h13.9c0-2.3-0.6-4.2-1.6-5.6C2450.1,1451.5,2448.5,1450.8,2446.2,1450.8z
			 M2475.4,1475.5c-2.4,0-4.6-0.5-6.5-1.5c-1.9-1-3.4-2.5-4.4-4.6c-1.1-2.1-1.6-4.7-1.6-7.9c0-3.4,0.6-6.1,1.7-8.2
			c1.1-2.1,2.6-3.7,4.6-4.6c1.9-1,4.1-1.5,6.5-1.5c1.4,0,2.7,0.1,4,0.4c1.3,0.3,2.3,0.6,3.2,1l-1.4,3.7c-0.8-0.3-1.8-0.6-2.9-0.9
			c-1.1-0.3-2.1-0.4-3-0.4c-5.4,0-8.1,3.4-8.1,10.3c0,3.3,0.6,5.8,2,7.6c1.3,1.8,3.3,2.6,5.8,2.6c1.5,0,2.8-0.2,4-0.5
			c1.1-0.3,2.2-0.7,3.1-1.1v4c-0.9,0.5-1.9,0.8-3,1.1C2478.3,1475.3,2477,1475.5,2475.4,1475.5z M2512.7,1461.2
			c0,4.5-1.1,8-3.4,10.5c-2.3,2.5-5.4,3.7-9.3,3.7c-2.4,0-4.6-0.6-6.5-1.7c-1.9-1.1-3.4-2.7-4.5-4.8c-1.1-2.1-1.6-4.7-1.6-7.7
			c0-4.5,1.1-8,3.4-10.4c2.3-2.4,5.4-3.7,9.3-3.7c2.5,0,4.7,0.6,6.5,1.7c1.9,1.1,3.4,2.7,4.4,4.8
			C2512.1,1455.7,2512.7,1458.2,2512.7,1461.2z M2492,1461.2c0,3.2,0.6,5.8,1.9,7.7c1.3,1.9,3.3,2.8,6.1,2.8c2.8,0,4.8-0.9,6.1-2.8
			c1.3-1.9,1.9-4.5,1.9-7.7c0-3.2-0.6-5.8-1.9-7.6c-1.3-1.8-3.3-2.8-6.1-2.8c-2.8,0-4.8,0.9-6.1,2.8
			C2492.6,1455.5,2492,1458,2492,1461.2z M2532.9,1447.1c3.3,0,5.7,0.8,7.4,2.4c1.7,1.6,2.5,4.1,2.5,7.7v17.8h-4.4v-17.5
			c0-4.4-2-6.6-6.1-6.6c-3,0-5.1,0.9-6.3,2.6c-1.2,1.7-1.7,4.1-1.7,7.3v14.2h-4.5v-27.3h3.6l0.7,3.7h0.3c0.9-1.4,2.1-2.5,3.7-3.2
			C2529.5,1447.5,2531.2,1447.1,2532.9,1447.1z M2569,1467.4c0,2.7-1,4.7-3,6c-2,1.4-4.6,2-7.9,2c-1.9,0-3.5-0.2-4.9-0.5
			c-1.4-0.3-2.6-0.7-3.6-1.3v-4.1c1.1,0.5,2.4,1.1,4,1.5c1.5,0.5,3.1,0.7,4.7,0.7c2.3,0,3.9-0.4,4.9-1.1c1-0.7,1.5-1.7,1.5-2.9
			c0-0.7-0.2-1.3-0.6-1.8c-0.4-0.5-1-1.1-2-1.6c-1-0.5-2.4-1.2-4.2-1.8c-1.8-0.7-3.3-1.4-4.5-2c-1.3-0.7-2.2-1.5-2.9-2.4
			c-0.7-1-1-2.2-1-3.7c0-2.3,0.9-4.1,2.8-5.3c1.9-1.3,4.4-1.9,7.4-1.9c1.7,0,3.2,0.2,4.7,0.5c1.4,0.3,2.8,0.8,4.1,1.3l-1.5,3.6
			c-1.2-0.5-2.4-0.9-3.6-1.2c-1.3-0.3-2.5-0.5-3.9-0.5c-1.8,0-3.2,0.3-4.2,0.9c-1,0.6-1.4,1.4-1.4,2.4c0,0.7,0.2,1.4,0.7,1.9
			c0.4,0.5,1.2,1,2.2,1.5c1,0.5,2.4,1.1,4.2,1.7c1.7,0.6,3.2,1.3,4.4,2c1.2,0.7,2.2,1.5,2.8,2.5
			C2568.7,1464.7,2569,1465.9,2569,1467.4L2569,1467.4z M2584.8,1471.8c0.7,0,1.4-0.1,2.1-0.2c0.7-0.1,1.3-0.2,1.7-0.4v3.4
			c-0.5,0.2-1.2,0.4-2,0.6c-0.9,0.2-1.7,0.2-2.5,0.2c-1.4,0-2.8-0.2-4-0.7c-1.2-0.5-2.2-1.4-2.9-2.6c-0.7-1.2-1.1-2.9-1.1-5.1v-15.9
			h-3.9v-2.2l3.9-1.8l1.8-5.8h2.6v6.3h7.9v3.5h-7.9v15.8c0,1.7,0.4,2.9,1.2,3.7C2582.5,1471.4,2583.5,1471.8,2584.8,1471.8
			L2584.8,1471.8z M2606.8,1447.1c0.5,0,1.1,0,1.7,0.1c0.6,0.1,1.1,0.1,1.6,0.2l-0.6,4.1c-0.4-0.1-0.9-0.2-1.5-0.2
			c-0.5-0.1-1-0.1-1.5-0.1c-1.4,0-2.7,0.4-3.9,1.1c-1.2,0.8-2.2,1.8-2.9,3.2c-0.7,1.4-1.1,3-1.1,4.8v14.6h-4.5v-27.3h3.7l0.5,5h0.2
			c0.9-1.5,2-2.8,3.4-3.9C2603.2,1447.7,2604.9,1447.1,2606.8,1447.1z M2637.9,1447.6v27.3h-3.7l-0.7-3.6h-0.2
			c-0.9,1.4-2.1,2.5-3.7,3.1c-1.6,0.7-3.2,1-5,1c-3.3,0-5.8-0.8-7.4-2.4c-1.7-1.6-2.5-4.1-2.5-7.6v-17.9h4.5v17.6
			c0,4.4,2,6.5,6.1,6.5c3,0,5.1-0.8,6.3-2.5c1.2-1.7,1.8-4.2,1.8-7.3v-14.2H2637.9z M2657.6,1475.5c-2.4,0-4.6-0.5-6.5-1.5
			c-1.9-1-3.4-2.5-4.4-4.6c-1.1-2.1-1.6-4.7-1.6-7.9c0-3.4,0.6-6.1,1.7-8.2c1.1-2.1,2.6-3.7,4.6-4.6c1.9-1,4.1-1.5,6.5-1.5
			c1.4,0,2.7,0.1,4,0.4c1.3,0.3,2.3,0.6,3.2,1l-1.4,3.7c-0.8-0.3-1.8-0.6-2.9-0.9c-1.1-0.3-2.1-0.4-3-0.4c-5.4,0-8.1,3.4-8.1,10.3
			c0,3.3,0.6,5.8,2,7.6c1.3,1.8,3.3,2.6,5.8,2.6c1.5,0,2.8-0.2,4-0.5c1.1-0.3,2.2-0.7,3.1-1.1v4c-0.9,0.5-1.9,0.8-3,1.1
			C2660.5,1475.3,2659.1,1475.5,2657.6,1475.5z M2680.2,1471.8c0.7,0,1.4-0.1,2.1-0.2c0.7-0.1,1.3-0.2,1.7-0.4v3.4
			c-0.5,0.2-1.2,0.4-2,0.6c-0.9,0.2-1.7,0.2-2.5,0.2c-1.4,0-2.8-0.2-4-0.7c-1.2-0.5-2.2-1.4-2.9-2.6c-0.7-1.2-1.1-2.9-1.1-5.1v-15.9
			h-3.9v-2.2l3.9-1.8l1.8-5.8h2.6v6.3h7.9v3.5h-7.9v15.8c0,1.7,0.4,2.9,1.2,3.7C2677.9,1471.4,2678.9,1471.8,2680.2,1471.8
			L2680.2,1471.8z M2700,1447.1c2.3,0,4.3,0.5,6,1.5c1.7,1,3,2.4,3.9,4.3c0.9,1.9,1.4,4,1.4,6.5v2.7h-18.7c0.1,3.1,0.9,5.5,2.4,7.1
			c1.5,1.6,3.6,2.4,6.3,2.4c1.7,0,3.3-0.2,4.6-0.5c1.3-0.3,2.7-0.8,4.2-1.4v3.9c-1.4,0.6-2.8,1.1-4.1,1.3c-1.4,0.3-3,0.4-4.8,0.4
			c-2.6,0-4.9-0.5-6.9-1.6c-2-1.1-3.5-2.6-4.6-4.7c-1.1-2.1-1.7-4.6-1.7-7.7c0-3,0.5-5.5,1.5-7.7c1-2.1,2.4-3.8,4.2-4.9
			C2695.5,1447.7,2697.6,1447.1,2700,1447.1L2700,1447.1z M2700,1450.8c-2.1,0-3.8,0.7-5.1,2.1c-1.2,1.4-2,3.3-2.2,5.7h13.9
			c0-2.3-0.6-4.2-1.6-5.6C2703.9,1451.5,2702.2,1450.8,2700,1450.8z M2727.9,1475.5c-3.4,0-6.1-1.2-8.2-3.5c-2-2.4-3-5.9-3-10.6
			s1-8.2,3.1-10.6c2.1-2.4,4.8-3.6,8.2-3.6c2.1,0,3.8,0.4,5.2,1.2c1.3,0.8,2.4,1.7,3.3,2.8h0.3c0-0.4-0.1-1.1-0.2-2
			c-0.1-0.9-0.1-1.6-0.1-2.1v-10.9h4.5v38.7h-3.6l-0.7-3.7h-0.2c-0.8,1.2-1.9,2.1-3.3,3C2731.8,1475,2730.1,1475.5,2727.9,1475.5
			L2727.9,1475.5z M2728.6,1471.7c2.9,0,4.9-0.8,6.1-2.4c1.2-1.6,1.8-4,1.8-7.2v-0.8c0-3.4-0.6-6-1.7-7.8c-1.1-1.8-3.2-2.7-6.2-2.7
			c-2.4,0-4.2,1-5.4,2.9c-1.2,1.9-1.8,4.5-1.8,7.7c0,3.3,0.6,5.8,1.8,7.6C2724.4,1470.8,2726.2,1471.7,2728.6,1471.7z M2522,1501.1
			c0.7,0,1.3,0.2,1.8,0.7c0.5,0.5,0.8,1.2,0.8,2.2c0,0.9-0.3,1.7-0.8,2.1c-0.5,0.5-1.1,0.7-1.8,0.7c-0.7,0-1.4-0.2-1.9-0.7
			c-0.5-0.5-0.8-1.2-0.8-2.1c0-1,0.3-1.7,0.8-2.2C2520.6,1501.3,2521.2,1501.1,2522,1501.1z M2524.1,1511.3v27.3h-4.5v-27.3H2524.1z
			 M2546,1510.8c3.3,0,5.7,0.8,7.4,2.4c1.7,1.6,2.5,4.1,2.5,7.7v17.8h-4.4v-17.5c0-4.4-2-6.6-6.1-6.6c-3,0-5.1,0.9-6.3,2.6
			c-1.2,1.7-1.7,4.1-1.7,7.3v14.2h-4.5v-27.3h3.6l0.7,3.7h0.3c0.9-1.4,2.1-2.5,3.7-3.2C2542.6,1511.2,2544.2,1510.8,2546,1510.8
			L2546,1510.8z M2577.3,1510.8c3.4,0,6.1,1.2,8.1,3.5c2.1,2.3,3.1,5.9,3.1,10.6c0,4.7-1,8.2-3.1,10.6c-2.1,2.4-4.8,3.6-8.2,3.6
			c-2.1,0-3.9-0.4-5.2-1.2c-1.4-0.8-2.5-1.7-3.2-2.8h-0.3c0.1,0.6,0.1,1.3,0.2,2.2c0.1,0.9,0.1,1.6,0.1,2.3v11.2h-4.5v-39.5h3.7
			l0.6,3.7h0.2c0.8-1.2,1.9-2.2,3.2-3C2573.3,1511.3,2575.1,1510.8,2577.3,1510.8L2577.3,1510.8z M2576.5,1514.6
			c-2.8,0-4.8,0.8-5.9,2.3c-1.1,1.6-1.7,3.9-1.8,7.1v0.9c0,3.4,0.6,6,1.7,7.8c1.1,1.8,3.2,2.7,6.2,2.7c1.7,0,3-0.5,4.1-1.4
			c1.1-0.9,1.9-2.2,2.4-3.7c0.5-1.6,0.8-3.4,0.8-5.4c0-3.1-0.6-5.6-1.8-7.5C2580.9,1515.5,2579,1514.6,2576.5,1514.6L2576.5,1514.6z
			 M2618.5,1511.3v27.3h-3.7l-0.7-3.6h-0.2c-0.9,1.4-2.1,2.5-3.7,3.1c-1.6,0.7-3.2,1-5,1c-3.3,0-5.8-0.8-7.4-2.4
			c-1.7-1.6-2.5-4.1-2.5-7.6v-17.9h4.5v17.6c0,4.4,2,6.5,6.1,6.5c3,0,5.1-0.8,6.3-2.5c1.2-1.7,1.8-4.2,1.8-7.3v-14.2H2618.5z
			 M2636.3,1535.5c0.7,0,1.4-0.1,2.1-0.2c0.7-0.1,1.3-0.2,1.7-0.4v3.4c-0.5,0.2-1.2,0.4-2,0.6c-0.9,0.2-1.7,0.2-2.5,0.2
			c-1.4,0-2.8-0.2-4-0.7c-1.2-0.5-2.2-1.4-2.9-2.6c-0.7-1.2-1.1-2.9-1.1-5.1v-15.9h-3.9v-2.2l3.9-1.8l1.8-5.8h2.6v6.3h7.9v3.5h-7.9
			v15.8c0,1.7,0.4,2.9,1.2,3.7C2634,1535.1,2635,1535.5,2636.3,1535.5z"/>
	</g>
</g>
</svg>
